<svg width="90" height="90" fill="none" xmlns="http://www.w3.org/2000/svg"><path d="m52.05 57.115-4.99 4.99c-5.133.57-10.409-.998-14.4-4.99-3.85-3.85-5.56-9.268-4.99-14.258l4.99-4.99a3.614 3.614 0 0 0 0-5.132l-3.137-3.279c-1.426-1.426-4.134-1.283-5.418.428-7.27 9.98-6.273 24.094 2.71 33.076 8.981 8.982 23.096 9.98 33.076 2.709 1.853-1.283 1.995-3.85.427-5.418l-3.279-3.279c-1.283-1.283-3.564-1.283-4.99.143ZM50.766 59.253l7.556 7.556M23.107 31.595l7.557 7.556M60.176 53.265c3.706-6.558 2.708-15.112-2.852-20.672-5.56-5.56-14.114-6.559-20.672-2.852" stroke="#4B2C30" stroke-width="2.5" stroke-miterlimit="10" stroke-linecap="round" stroke-linejoin="round"/><path d="M30.521 23.753c9.98-6.843 23.667-5.845 32.649 3.137 8.981 8.982 9.837 22.526 3.136 32.648M36.937 41.432c.427-3.279 5.132-4.277 6.7-1.14 1.711 3.564-5.275 8.411-7.27 10.407h8.696" stroke="#4B2C30" stroke-width="2.5" stroke-miterlimit="10" stroke-linecap="round" stroke-linejoin="round"/><path d="M52.192 38.295c-1.854 2.71-3.85 5.418-5.703 8.127h8.554M52.192 39.294v11.405" stroke="#4B2C30" stroke-width="2.5" stroke-miterlimit="10" stroke-linecap="round" stroke-linejoin="round"/></svg>