<svg width="1290" height="1291" fill="none" xmlns="http://www.w3.org/2000/svg"><g filter="url(#a)"><path d="M1273.04 657.309c-5.63-13.129-1.88-27.197-.94-40.327h-2.82V604.79c-4.69-7.503-4.69-17.819-12.19-23.446 0-3.751-1.88-6.565-3.75-9.378 1.87-1.876 5.63-7.503.94-8.441-8.44-2.813-10.32-15.943-17.82-16.881 0-5.627-4.69-9.378-6.57-13.13.94-6.565 2.81-13.13 4.69-19.695-3.75-6.564 0-22.508-7.5-24.383h-2.82c0-11.255 1.88-30.949-13.13-32.825-12.19-12.192-27.2-27.197-21.57-45.016-1.88-5.627-9.38-7.503-4.69-14.068-8.44-15.943-6.57-34.7-13.13-51.581 0-.938.93-2.814.93-3.752l-2.81-.938c-1.88-5.627-1.88-11.254-6.57-15.943-1.87-2.813.94-11.254-3.75-8.44-11.25-1.876-2.81-16.882-14.07-18.757-11.25-4.689-12.19-16.881-15.94-27.198-2.82-4.689-9.38-1.875-10.32-7.502-2.81-8.441-11.26-13.13-15.01-20.633v-2.813c1.88-4.69-3.75-11.255-7.5-11.255-11.26-3.751-18.76-16.881-31.89-14.067-3.75-7.503-5.63-16.881-15.01-20.633 4.69-12.192-6.57-13.13-10.32-19.694-6.56-6.565-8.44-15.944-11.25-24.384-3.75-3.752-10.32-4.69-9.38-10.317-.94-9.378-9.38-15.943-15.01-21.57 0-3.751-4.689-3.751-6.565-6.565-5.628-15.005-20.635-25.322-34.705-30.949-3.752-4.689-6.566-10.316-9.38-15.005-7.503-.938-13.131-6.565-20.635-7.503-6.566-2.813-15.007-1.875-19.697-8.44 3.752-4.69-6.566-1.876-8.442-1.876-9.379 2.813-17.821-5.627-27.201-2.814-8.441-3.751-12.193-13.13-23.449-12.192-7.503 3.752-8.441-5.627-13.131-8.44-6.566 0-13.132 2.813-19.697 2.813-.938-3.751-5.628-2.813-8.442-4.689-15.945 0-35.643 6.565-49.712-2.813-5.628-2.814-12.194-3.752-17.822-.938-7.503-.938-15.945-4.69-21.573.938-4.689 1.875-21.573-2.814-20.635 4.689-7.504-.938-18.759-3.752-22.511 3.751-17.821 0-35.643-9.378-53.464-9.378h-1.876c-7.504-.938-14.069-.938-21.573 0-11.256-1.876-20.635 10.316-31.891 5.627-1.876 1.876-3.752 2.813-4.69 4.689-7.503 1.876-15.007 5.627-22.511 7.503v1.876c-5.628 4.689-16.883.937-19.697 7.502-6.566 0-14.069 4.69-17.821 7.503-4.69-.938-8.442.938-11.256 3.751-3.752.938-8.442.938-6.566 6.565-17.821-2.813-34.704-3.751-52.526-4.689-.938.938-2.813 1.876-3.751 1.876l.938-2.814c-8.442 0-15.946 2.814-23.45 6.565-10.317-.938-20.635 4.69-30.952 4.69-19.698.937-37.519 16.88-47.837 30.01-3.751.938-7.503 1.876-10.317 4.689-11.256 3.752-23.449 8.441-34.705 13.13v2.814c-7.504 4.689-8.442 14.067-14.069 20.632 0 7.503-10.318 8.441-10.318 15.006-7.504 6.565-15.007 16.881-25.325 22.508v4.689c-1.876 6.565-10.318 7.503-10.318 15.006.938 5.627-6.565 4.689-5.627 10.316-12.194 1.876-2.814 19.695-13.132 25.322 1.876 5.627-1.876 12.192-2.814 17.819-6.565.937-3.752 15.005-9.379 20.632.938 8.441-7.504 13.13-3.752 21.571-2.814 5.627-9.38 13.129-6.566 20.632-8.442 9.379-1.876 21.57-3.752 31.887-1.876 2.813.938 6.565 3.752 4.689-1.876 3.751-1.876 8.441-.938 13.13h-1.876c2.814 9.378-4.69 16.881-4.69 25.321-.938 3.752-3.751 6.565-2.814 10.317-.937 2.813-.937 4.689-1.875 7.502-6.566-2.813-6.566 4.69-9.38 8.441-3.752 2.814-7.504 4.689-9.38 8.441-1.876.937-3.752 2.813-4.69 4.689h-4.689c-4.69 8.44-11.256 16.881-15.008 26.259-1.876 1.876-6.566 2.814-4.69 5.627-5.627 3.752-11.255 8.441-13.131 14.068-14.07 6.565-14.07 26.26-19.697 39.389-2.814 9.379-10.318 15.944-13.132 25.322-3.752-.938-2.814 5.627-3.752 7.503 0 4.689-7.503 20.632 1.876 19.695 2.814 12.192-3.752 23.446-15.007 28.135-.938 3.751-.938 7.503 0 12.192-4.69 2.813-3.752 14.067-5.628 19.695l-2.814-1.876c2.814 11.254 2.814 25.322-4.69 35.638-1.876 4.689-2.814 9.378-3.752 14.067-10.317 11.255-3.751 29.074-14.069 41.266-2.814 8.44-9.38 17.819-8.442 27.197-6.565 0-9.38 22.508-2.814 21.57-.938 7.503 0 15.944 5.628 21.571 1.876 4.689 0 15.005 4.69 15.005v1.876c0 9.378 13.131 11.254 12.194 20.632-4.69 10.317.938 21.571 7.503 30.949.938 14.068 15.008 25.322 28.14 28.136 6.565-3.752 10.317 3.751 15.945 3.751-2.814 5.627 5.627 2.813 7.503 4.689 20.636.938 33.767 19.695 52.526 25.322 9.38 13.13 32.829 2.813 37.519 19.695-.938 14.067-11.256 28.135-7.504 43.14 7.504 3.752-3.752 27.201 6.566 26.261.938 9.38 5.628 17.82 8.442 27.2 6.565 6.56 12.193 18.75 22.511 17.82v2.81c10.317 12.19 27.201 13.13 42.208 15.94 8.442-2.81 12.194 7.5 19.697 7.5 0 2.82 1.876 3.76 4.69 5.63-.938 4.69 2.814 6.57 6.566 8.44 7.504 4.69 12.193 16.88 22.511 15.95-.938 3.75 5.628 4.69 7.504 7.5 15.007-1.88 27.201 12.19 39.394 18.76-2.814 11.25 6.566 19.69 9.38 30.01 7.504 6.56 2.814 18.75 13.131 21.57 9.38 4.69 16.884 14.06 28.139 15l2.814 2.82-.938 2.81c12.194.94 23.449 0 35.643 0 2.814 10.32 19.697 8.44 25.325 17.82 1.876 5.63 8.442 12.19 15.945 9.38l-.938 1.87c8.442-1.87 7.504 10.32 15.008 8.44.938 0 3.752 0 4.689.94 0 2.81 1.876 8.44 5.628 5.63 5.628-3.75 10.318 1.87 15.008 3.75 11.255 7.5 21.573 21.57 37.518 14.07 8.442 2.81 21.573 9.38 29.077.93 13.132 1.88 25.325 0 38.457 0 6.565 7.51 15.945 2.82 24.387 2.82v2.81c11.255-.94 21.573-3.75 32.828 0 28.139-6.56 58.154-1.87 87.231.94 19.697.94 39.395-8.44 48.774-26.26.938-.94 1.876-1.88 1.876-2.81 5.628 0 9.38-5.63 14.07-5.63.937-4.69 3.751-9.38 5.627-14.07 11.256-1.87 5.628-20.63 9.38-28.13 5.628-7.51 14.069-7.51 22.511-10.32H902.54c11.256 4.69 20.636-4.69 24.387-15.01 5.628-1.87 7.504-10.31 14.07-12.19h4.69c8.441-10.31 20.635-23.44 17.821-37.51 6.566-7.5 14.07-14.07 23.449-19.7 3.752.94 9.38 3.76 9.38-2.81 0-10.32 18.763-5.63 17.823-15 3.75 0 7.5 0 9.38-2.82 6.56.94 10.32-9.38 15.01-13.13 9.37-1.87 17.82-8.44 28.13-10.31v-1.88c.94 0 1.88-.94 2.82-1.88 2.81-.93 8.44 1.88 10.32-2.81 2.81-7.5 10.31-9.38 16.88-11.25v-4.69c5.63-6.57 10.32-13.13 17.82-17.82-3.75-11.26 5.63-17.82 10.32-25.323 4.69.938 1.87-7.503 3.75-10.316-6.57-13.13 10.32-10.317 9.38-18.757 2.81-15.006 0-30.949 4.69-45.017 0-4.689 7.5-3.751 6.56-7.502 6.57-4.69 20.64-6.565 22.52-15.944.93-2.813 1.87-4.689 2.81-7.502 3.75 0 8.44.937 9.38-2.814 5.63-10.316 21.57-13.13 15.94-29.073 3.76-2.814 7.51-4.689 8.45-9.379 1.87-10.316 12.19-14.067 15.94-23.446-3.75-8.44 2.82-12.192 4.69-17.819l1.88.938c1.87-9.378 3.75-18.757 3.75-27.197 5.63-1.876 3.75-9.379 9.38-11.254 5.63 2.813.94-7.503 4.69-10.317 14.07-12.191 8.44-33.762 15.94-49.705 2.82-.938 3.76-2.814 2.82-7.503h2.81c-.94-15.005 1.88-29.073 2.82-43.141Z" fill="url(#b)"/></g><defs><linearGradient id="b" x1="644.608" y1="16.545" x2="644.608" y2="1274.47" gradientUnits="userSpaceOnUse"><stop stop-color="#FADBD9"/><stop offset="1" stop-color="#FADBD9" stop-opacity="0"/></linearGradient><filter id="a" x=".179" y=".545" width="1288.86" height="1289.93" filterUnits="userSpaceOnUse" color-interpolation-filters="sRGB"><feFlood flood-opacity="0" result="BackgroundImageFix"/><feBlend in="SourceGraphic" in2="BackgroundImageFix" result="shape"/><feGaussianBlur stdDeviation="8" result="effect1_foregroundBlur_3_1517"/></filter></defs></svg>