<svg width="733" height="734" fill="none" xmlns="http://www.w3.org/2000/svg"><g filter="url(#a)"><path d="M716.007 373.524c-3.134-7.312-1.045-15.147-.522-22.46h-1.568v-6.79c-2.612-4.179-2.612-9.924-6.791-13.058 0-2.09-1.045-3.657-2.089-5.224 1.044-1.044 3.134-4.178.522-4.701-4.701-1.567-5.746-8.879-9.925-9.401 0-3.134-2.612-5.224-3.657-7.313.522-3.656 1.567-7.313 2.612-10.969-2.09-3.656 0-12.536-4.179-13.58h-1.568c0-6.268 1.045-17.237-7.313-18.282-6.791-6.79-15.15-15.147-12.015-25.071-1.045-3.134-5.224-4.179-2.612-7.835-4.702-8.88-3.657-19.326-7.314-28.728 0-.523.523-1.567.523-2.09l-1.567-.522c-1.045-3.134-1.045-6.268-3.657-8.879-1.045-1.567.522-6.268-2.09-4.701-6.268-1.045-1.567-9.402-7.836-10.447-6.268-2.612-6.791-9.402-8.88-15.147-1.568-2.612-5.224-1.045-5.747-4.179-1.567-4.701-6.268-7.313-8.358-11.491v-1.567c1.045-2.612-2.09-6.268-4.179-6.268-6.269-2.089-10.448-9.402-17.762-7.835-2.089-4.179-3.134-9.402-8.358-11.491 2.612-6.79-3.657-7.313-5.746-10.969-3.657-3.656-4.702-8.88-6.269-13.58-2.09-2.09-5.746-2.612-5.224-5.746-.522-5.223-5.224-8.88-8.358-12.014 0-2.089-2.612-2.089-3.657-3.656-3.134-8.357-11.493-14.103-19.329-17.237-2.089-2.611-3.656-5.745-5.223-8.357-4.18-.522-7.314-3.656-11.493-4.178-3.657-1.568-8.358-1.045-10.97-4.702 2.089-2.611-3.657-1.044-4.702-1.044-5.224 1.567-9.925-3.134-15.149-1.567-4.702-2.09-6.792-7.313-13.06-6.79-4.179 2.089-4.702-3.134-7.314-4.701-3.657 0-7.313 1.567-10.97 1.567-.522-2.09-3.134-1.567-4.702-2.612-8.88 0-19.851 3.656-27.687-1.567-3.134-1.567-6.791-2.09-9.925-.522-4.179-.523-8.881-2.612-12.015.522-2.612 1.045-12.015-1.567-11.493 2.612-4.179-.523-10.448-2.09-12.537 2.089-9.926 0-19.851-5.223-29.777-5.223h-1.044c-4.18-.523-7.836-.523-12.016 0-6.268-1.045-11.492 5.745-17.761 3.134-1.045 1.044-2.09 1.567-2.612 2.611-4.179 1.045-8.358 3.134-12.537 4.179v1.045c-3.135 2.611-9.403.522-10.971 4.178-3.656 0-7.836 2.612-9.925 4.179-2.612-.523-4.702.522-6.269 2.09-2.089.522-4.701.522-3.657 3.655-9.925-1.566-19.328-2.089-29.254-2.611-.522.522-1.567 1.044-2.089 1.044l.522-1.566c-4.701 0-8.881 1.566-13.06 3.656-5.746-.523-11.492 2.611-17.239 2.611-10.97.523-20.896 9.402-26.642 16.715-2.089.522-4.179 1.044-5.746 2.611-6.269 2.09-13.06 4.701-19.329 7.313v1.567c-4.179 2.612-4.701 7.835-7.836 11.491 0 4.179-5.746 4.701-5.746 8.357-4.179 3.657-8.358 9.402-14.105 12.536v2.612c-1.044 3.656-5.746 4.179-5.746 8.357.522 3.134-3.657 2.612-3.134 5.746-6.792 1.044-1.568 10.969-7.314 14.103 1.045 3.134-1.045 6.79-1.567 9.924-3.657.522-2.09 8.357-5.224 11.491.522 4.701-4.179 7.312-2.09 12.013-1.567 3.134-5.224 7.313-3.656 11.492-4.702 5.223-1.045 12.013-2.09 17.759-1.045 1.567.522 3.656 2.09 2.611-1.045 2.09-1.045 4.701-.523 7.313h-1.045c1.568 5.223-2.612 9.402-2.612 14.103-.522 2.089-2.089 3.656-1.567 5.745-.522 1.567-.522 2.612-1.044 4.179-3.657-1.567-3.657 2.612-5.224 4.701-2.09 1.567-4.18 2.612-5.224 4.701-1.045.522-2.09 1.567-2.612 2.611h-2.612c-2.612 4.701-6.269 9.402-8.359 14.626-1.044 1.044-3.656 1.567-2.612 3.134-3.134 2.089-6.268 4.7-7.313 7.834-7.836 3.657-7.836 14.626-10.97 21.938-1.568 5.223-5.747 8.88-7.314 14.103-2.09-.522-1.567 3.134-2.09 4.179 0 2.611-4.179 11.491 1.045 10.968 1.568 6.791-2.09 13.059-8.358 15.67-.522 2.09-.522 4.179 0 6.791-2.612 1.566-2.09 7.834-3.134 10.968l-1.568-1.044c1.568 6.268 1.568 14.103-2.611 19.848-1.045 2.612-1.568 5.223-2.09 7.835-5.746 6.268-2.09 16.192-7.836 22.982-1.567 4.701-5.224 9.925-4.702 15.148-3.656 0-5.224 12.536-1.567 12.013-.522 4.179 0 8.88 3.135 12.014 1.044 2.611 0 8.357 2.612 8.357v1.045c0 5.223 7.313 6.268 6.79 11.491-2.611 5.746.523 12.013 4.18 17.237.522 7.835 8.358 14.103 15.672 15.67 3.657-2.09 5.746 2.089 8.88 2.089-1.567 3.134 3.135 1.567 4.18 2.611 11.492.523 18.806 10.969 29.254 14.103 5.224 7.313 18.283 1.567 20.895 10.969-.522 7.835-6.268 15.67-4.179 24.027 4.179 2.089-2.089 15.148 3.657 14.625.522 5.224 3.134 9.924 4.702 15.148 3.656 3.656 6.791 10.446 12.537 9.924v1.567c5.746 6.79 15.149 7.312 23.508 8.879 4.701-1.567 6.791 4.179 10.97 4.179 0 1.567 1.045 2.089 2.612 3.134-.522 2.612 1.567 3.656 3.657 4.701 4.179 2.612 6.791 9.402 12.537 8.88-.522 2.089 3.135 2.611 4.179 4.178 8.359-1.045 15.15 6.79 21.941 10.447-1.567 6.268 3.657 10.969 5.224 16.714 4.179 3.656 1.567 10.447 7.313 12.014 5.224 2.611 9.404 7.835 15.672 8.357l1.567 1.567-.522 1.567c6.791.522 13.06 0 19.851 0 1.567 5.745 10.97 4.701 14.105 9.924 1.044 3.134 4.701 6.79 8.88 5.223l-.522 1.045c4.701-1.045 4.179 5.746 8.358 4.701.523 0 2.09 0 2.612.522 0 1.567 1.045 4.701 3.135 3.134 3.134-2.089 5.746 1.045 8.358 2.089 6.269 4.179 12.015 12.014 20.896 7.835 4.701 1.567 12.015 5.224 16.194.523 7.313 1.044 14.105 0 21.418 0 3.657 4.178 8.881 1.567 13.582 1.567v1.567c6.269-.523 12.015-2.09 18.284 0 15.672-3.657 32.389-1.045 48.583.522 10.97.522 21.94-4.701 27.164-14.625.523-.522 1.045-1.045 1.045-1.567 3.134 0 5.224-3.134 7.836-3.134.522-2.612 2.09-5.223 3.134-7.835 6.269-1.045 3.135-11.491 5.224-15.67 3.135-4.178 7.836-4.178 12.538-5.745h9.925c6.269 2.611 11.493-2.612 13.582-8.358 3.135-1.044 4.18-5.745 7.836-6.79h2.612c4.702-5.745 11.493-13.058 9.926-20.893 3.657-4.179 7.836-7.835 13.06-10.969 2.089.523 5.224 2.09 5.224-1.567 0-5.745 10.448-3.134 9.925-8.357 2.09 0 4.179 0 5.224-1.567 3.657.522 5.746-5.223 8.358-7.313 5.224-1.044 9.926-4.7 15.672-5.745v-1.045c.523 0 1.045-.522 1.567-1.044 1.568-.523 4.702 1.044 5.747-1.567 1.567-4.179 5.746-5.224 9.403-6.268v-2.612c3.134-3.656 5.746-7.313 9.925-9.924-2.089-6.268 3.135-9.924 5.747-14.103 2.612.522 1.044-4.179 2.089-5.746-3.657-7.312 5.747-5.745 5.224-10.446 1.567-8.357 0-17.237 2.612-25.072 0-2.611 4.179-2.089 3.657-4.178 3.657-2.612 11.493-3.657 12.537-8.88.523-1.567 1.045-2.612 1.568-4.179 2.089 0 4.701.523 5.223-1.567 3.135-5.745 12.016-7.312 8.881-16.192 2.09-1.567 4.179-2.611 4.702-5.223 1.045-5.746 6.791-7.835 8.88-13.058-2.089-4.701 1.568-6.79 2.612-9.924l1.045.522c1.045-5.223 2.09-10.446 2.09-15.147 3.134-1.045 2.089-5.224 5.224-6.268 3.134 1.567.522-4.179 2.612-5.746 7.836-6.79 4.701-18.804 8.88-27.683 1.568-.523 2.09-1.567 1.568-4.179h1.567c-.523-8.357 1.045-16.192 1.567-24.027Z" fill="url(#b)"/></g><defs><linearGradient id="b" x1="366.007" y1="16.653" x2="366.007" y2="717.251" gradientUnits="userSpaceOnUse"><stop stop-color="#fff"/><stop offset="1" stop-color="#fff" stop-opacity="0"/></linearGradient><filter id="a" x=".007" y=".653" width="732" height="732.597" filterUnits="userSpaceOnUse" color-interpolation-filters="sRGB"><feFlood flood-opacity="0" result="BackgroundImageFix"/><feBlend in="SourceGraphic" in2="BackgroundImageFix" result="shape"/><feGaussianBlur stdDeviation="8" result="effect1_foregroundBlur_3_1803"/></filter></defs></svg>