<svg width="300" height="289" fill="none" xmlns="http://www.w3.org/2000/svg"><path d="M288.547 196.933c-2.972-2.312-5.943-4.623-9.245-6.604 6.273-1.651 11.556-5.943 16.179-10.896 12.876-14.527-4.623-28.064-16.839-33.677 2.641-2.972 4.622-5.943 5.943-9.245 4.292-9.905-4.953-17.169-12.877-20.47-5.613-2.312-11.226-2.972-17.169-3.632-2.971-.331-8.584-1.981-12.216-.661 0-.33-.66-.66-.991-.66.991-.66 1.981-1.651 2.312-1.981.99-.991 1.981-2.311 2.971-3.632 1.651-1.981 3.302-3.962 4.623-6.273 3.631-4.953 6.603-10.566 9.244-16.179 3.632-7.594 9.906-19.81 3.632-27.734-3.301-4.292-7.924-4.953-12.546-4.622 2.311-7.594-2.972-10.566-9.905-8.915-10.236 2.311-19.481 8.254-28.065 14.527 3.632-12.216.991-26.413-1.321-39.29-1.32-6.934-3.632-15.518-11.226-16.839-3.631-.66-6.933.99-9.905 2.312-3.962 2.971-8.584 5.612-13.207 8.254-3.301-.99-6.933.33-9.905.99-4.622 1.321-9.244 3.302-13.207 6.274-6.933 5.282-12.216 13.206-16.178 21.13-1.651 3.302-3.302 6.604-4.622 9.906-1.981-6.273-5.943-12.217-8.585-18.16-1.981-4.622-4.622-14.197-10.565-14.857-4.623-.66-8.915 5.612-10.896 9.574-1.651 3.632-1.981 8.255-2.641 12.217-.661 4.292-.991 8.254-1.651 12.546-10.566-9.244-23.772-15.518-37.31-16.838-9.244-.99-6.933 8.914-5.943 15.518.66 4.622 1.651 9.245 2.642 13.867-8.585-5.613-18.49-9.245-28.395-10.566-7.594-.99-17.5-1.32-23.112 5.283-5.943 6.604-2.641 15.848.66 22.782 4.623 8.915 10.566 17.5 17.17 24.763-4.293-1.651-8.915-3.302-13.208-4.623-2.641-.66-4.952-1.32-7.263.331-4.623 3.301-3.632 10.565-1.651 14.857 3.632 7.594 10.235 15.188 16.508 20.471 5.613 4.953 12.547 8.254 17.5 13.537-3.633.33-7.264.991-10.896 1.651-6.273.99-14.528.99-20.14 4.952-9.246 6.934 1.32 20.141 9.574 23.112-3.962 1.651-7.264 3.963-9.905 8.255-3.302 5.613-8.915 10.565-3.962 16.839 3.962 5.282 9.575 8.584 15.848 9.905-4.952 3.632-8.914 7.594-12.216 11.886-2.641 3.632-3.632 7.924-.66 11.556 3.631 4.952 9.905 4.952 15.518 4.622 0 1.981.66 3.962 1.98 5.943 2.642 3.962 7.925 4.623 12.217 5.283 8.254 1.321 16.509 1.321 24.763.33-.33 2.642-.66 5.613-.33 8.255.33 4.622.99 10.895 2.971 14.857 1.981 3.962 4.953 2.972 8.255 1.651 5.282-1.651 10.565-3.962 15.518-6.603-1.321 2.641-1.651 4.952-.33 7.924 1.98 3.302 4.952 3.962 8.584 3.302 10.565-1.982 19.81-9.575 28.064-16.839.661 1.651 1.651 3.301 2.642 4.952-1.321 10.236 15.518 17.83 23.112 17.169 8.915-.66 12.877-7.924 14.858-15.848 9.575 6.934 21.131 14.197 33.017 14.528 3.962 0 9.905.33 13.207-2.642 3.301-3.302 1.65-8.584 1.981-12.876v-.331h.66c4.292-1.651 4.292-9.575 3.632-14.857 1.651 2.641 3.302 4.952 5.613 6.603 5.943 4.292 10.565 5.613 17.829 5.943 3.962 0 11.556.991 14.858-2.311 3.632-3.632.99-8.915-.991-12.877 0 0 0-.33-.33-.33 0-4.292-.66-8.584-.99-10.896 0-.33 0-.66-.331-.99 6.934 4.622 15.518 4.292 23.443 2.971 8.584-1.32 12.546-5.282 12.216-14.857 0-3.962-.66-6.604.99-10.236 1.651-3.631 2.642-2.971 5.283-5.282 2.311-1.981 3.302-4.623 2.972-7.594-.661-4.623-4.293-7.264-7.264-9.905Zm7.264-35.659c5.613 8.915 0 15.518-6.604 21.461-12.216 10.896-28.725 5.613-42.262 0-2.971-3.632-6.603-6.603-9.575-9.905a86.489 86.489 0 0 0-8.254-7.264v-.33c2.641.33 7.594.66 7.924.66 2.311 0 4.623-.33 6.604-.99.33 0 .66 0 .99-.33 7.264 7.264 21.131 11.886 31.366 10.565.661 0 .661-.66 0-.99-4.952-1.981-10.235-2.311-15.518-3.632-4.952-1.321-9.575-3.632-14.197-6.273 4.292-.991 8.915-2.642 12.877-4.623 1.651-.99 3.632-1.651 5.282-2.971.331.33.661.33.991 0 1.651-1.651 5.283 1.65 6.934 2.641 1.65.991 3.631 2.311 5.612 2.972.331 0 .661-.331.331-.991-2.312-2.641-6.274-4.292-9.245-5.943-.661-.33-1.321-.66-1.981-.66 3.302-2.312 6.933-4.953 9.575-7.925 7.264 3.632 14.857 7.925 19.15 14.528Zm-81.553 89.477c-1.32-7.264-4.292-13.868-8.584-19.811a116.385 116.385 0 0 0 13.867 4.953c3.632.99 9.575 4.292 13.207 2.971 5.943-1.981 3.962-12.876 2.311-18.819 2.311.66 4.292 1.32 6.604 1.32 2.641 5.283 4.622 10.566 5.943 16.179 1.32 5.613 2.641 13.867.99 19.48-1.32 7.924-12.216 4.952-17.829 3.301-6.273-2.311-11.556-5.282-16.509-9.574Zm-50.516-53.158c-3.632.99-7.264-.66-11.226 0-4.292.99-8.254 2.641-12.546 1.651-.33-.33-.33-.33-.661 0h-.33c-4.622-.991-8.914-3.632-12.876-6.604-3.632-2.311-7.264-4.952-10.566-7.924-3.302-2.971-8.584-7.594-9.575-12.546-.99-4.953 2.311-9.575 3.962-14.198.991-3.301 1.321-5.943.66-9.575-.66-3.301-.99-4.622-.33-7.924.661-3.962 1.651-3.962 4.293-6.273 2.641-2.311 3.301-4.292 4.292-7.264 3.632-10.895 16.508-7.594 25.093-6.603 8.914.99 21.791.66 26.414 9.905 0 .33.33.33.33.33 6.273 4.292 11.226 9.905 16.178 16.178 2.641 3.302 4.623 6.274 3.632 10.566-.33 1.651-1.651 3.302-1.981 4.953-.33.99-.66 1.981-.66 2.971 0-.33-.331-.99-.661-1.321-.99-.99-1.981-.99-2.971 0-.661.661-.991 1.321-.991 2.312 0 2.641 2.972 2.971 4.292 1.32-.33 2.311-.33 4.953-.66 7.264-.66 6.604-3.962 9.245-9.905 11.556-2.311 1.321-3.962 2.641-5.613 4.622-2.311 2.642-3.962 5.944-7.594 6.604Zm-16.839 75.939c-8.584 4.953-17.499 3.302-22.781-5.613-.661-.99-.991-1.65-1.321-2.641v-.33c-2.642-6.934-2.642-14.858-2.642-22.122 0-8.254.661-16.508 4.623-23.772 3.632-6.603 8.914-12.216 14.858-16.839.66 0 1.65.33 2.311.33 3.632.331 7.264-1.32 10.895-1.981 3.632 4.293 2.972 11.556 3.632 16.839.661 5.943 1.981 12.547-1.32 17.829-.331.331.33.661.66.331 4.622-6.604 2.311-15.518 1.981-23.112-.33-3.632 0-9.575-2.641-12.217h.66c.33 1.321.991 1.651 1.981 2.972 2.641 2.971 4.953 5.943 6.603 9.245 3.302 6.273 4.953 13.867 4.623 21.131-.66 15.187-9.245 32.026-22.122 39.95ZM61.389 230.28c-3.962.66-7.924 1.321-11.886 1.321-2.972 0-9.905-.331-12.217-3.302-2.31-2.972-.66-8.585-.33-11.886.66-4.293 2.311-8.255 4.292-12.217 3.963-7.594 9.575-13.867 16.179-18.489 13.537-9.245 34.338-13.867 49.526-6.934 1.981 2.642 4.292 5.283 6.933 7.264-3.302 16.508-14.527 29.055-28.725 36.319-7.594 3.962-15.848 6.603-23.772 7.924Zm-13.207-57.12c0-.33-.33-.33-.66-.33-1.651-.99-3.302-2.311-4.623-4.292-1.98-2.972-4.622-9.575-1.98-12.877 1.32-1.651 4.952-2.641 6.933-3.962 1.65-.99 3.632-1.981 5.283-2.971 7.924-4.293 15.518-9.245 25.093-9.245 9.575-.33 19.48.99 29.055 1.651 0 1.32.33 2.641.33 3.962-8.585-2.642-20.14-1.321-28.065 3.301-.33.331 0 .661.33.661 4.953-.991 9.906-2.642 14.858-2.972 4.292-.33 8.585 0 12.877.33v.33c.66 3.302.99 5.944.33 8.255-7.264-.991-15.518-.33-22.452 1.32-.33 0-.33.661 0 .661 6.934.99 15.188.99 22.122-.33-.33.99-.66 2.311-1.321 3.632-.66 1.65-1.32 2.971-1.981 4.622-7.594.99-15.188 3.302-22.782 3.962-7.924.66-15.518 0-23.112-.66-.33 0-.33.66 0 .66 13.868 3.632 33.017 3.632 45.894-2.972-.33.661-.33.991-.66 1.651-.66 2.972-.33 5.943.99 8.585-10.235-3.632-22.121-2.642-32.687.66h-.33c-6.273-.33-16.508 0-23.442-3.632Zm16.839-77.59c0 6.603 1.65 12.877 4.292 18.82 7.594 16.178 23.112 20.8 38.63 24.102 0 .33 0 .33-.33.661h-.33c-6.604-.331-13.537-.661-20.14-1.321-5.614-.33-11.227-.991-16.84.33-3.631.991-7.263 2.641-10.565 4.622-7.594 0-13.207-4.952-18.16-10.235-4.952-5.283-10.235-11.226-11.886-18.82-3.962-20.8 21.792-21.46 35.329-18.16Zm13.537-28.065c2.971-.66 7.264-.33 10.235.66 6.934 1.651 12.217 7.264 16.839 12.547.66.66 1.321 1.32 1.981 2.311 0 .33 0 .33.33.66 0 .33.33.661.66.661 8.255 10.566 13.868 23.772 9.906 37.309-.331.661 0 .991.66 1.321-.33.33-.66.991-.991 1.321-.99-7.594-5.282-15.848-8.914-22.122-.33-.66-.991 0-.661.331 2.312 4.292 3.963 8.914 5.613 13.867 1.321 3.632 1.651 7.263 3.302 10.565-.66 1.981-.99 3.962-2.641 5.613-.33-4.292-3.302-8.584-5.613-11.886-2.642-3.962-5.943-6.934-9.575-9.905-.33-.33-.99.33-.66.66 3.301 3.302 6.603 7.264 9.244 11.226 1.981 3.302 3.302 7.594 5.283 10.565l-.33.331c-4.953-2.312-9.575-3.962-13.867-7.594-4.293-3.962-7.594-8.585-9.905-13.868 0-.33-.66 0-.66.331 3.631 9.905 12.546 20.47 23.111 22.451-.99.661-1.651 1.321-2.641 2.312 0-.331-.33-.331-.661-.331-12.546-2.641-25.753-5.613-34.007-17.169-4.953-6.933-7.264-15.518-7.264-23.772.33-.33.33-.99 0-1.32 0-5.944.99-11.887 2.641-17.17 1.321-5.943 2.972-8.914 8.585-9.905Zm39.951-10.565c3.631-1.981 10.895-4.292 14.857-2.972 4.293 1.321 8.585 7.264 11.226 10.896 11.556 15.848 13.867 38.3 1.321 54.148-2.311-.33-4.953-.66-7.264-.66 4.292-9.245 0-21.131-5.613-28.725-.33-.33-.66 0-.66.33 2.641 3.962 4.622 8.915 5.613 13.537.99 4.953 0 9.575-.33 14.528-.661 0-1.321 0-1.981-.331-3.963-.33-7.925-.66-11.887.661-1.32.33-2.311.99-3.301 1.981 3.632-14.528-2.312-28.065-11.226-38.96-3.302-9.245.33-20.14 9.245-24.433Zm64.713-18.49s.33 0 0 0c1.321-.33 2.642-.33 3.632.33 2.641 1.651 4.623 6.604 5.943 9.575 3.302 6.934 4.953 14.528 5.283 22.452-5.283 2.311-10.566 6.273-15.188 9.905-3.962 2.972-7.594 6.273-8.915 11.556-2.641 10.236 4.623 26.414-4.622 34.338-1.651-1.651-3.632-2.972-5.613-3.962 7.264-9.575 6.934-22.782 4.292-34.008-.33-.66-1.32-.33-1.32.33.99 6.934 1.981 13.538 0 20.471-1.321 4.292-3.632 8.254-4.623 12.877-2.971-.991-6.273-1.651-9.245-1.981-1.65-.33-3.301-.33-4.952-.661 8.915-11.886 9.905-26.743 5.613-40.28v-.33c0-6.934 4.292-14.198 7.924-20.141 3.962-6.273 8.584-12.216 14.197-16.509 2.642-1.32 5.283-3.301 7.594-3.962Zm19.48 33.348c0 .66.991.99 1.651.66.33.33.661.99.991 1.98 1.981.661 2.641 1.982 2.311 3.633 0 .33 0 1.32.33 1.98.33.991.33 1.322 1.321 2.312.99.66 1.981.66 2.971.99 3.302 1.321 4.293 3.302 4.623 6.934.33 5.613 0 10.896-2.972 15.848a41.887 41.887 0 0 0-9.245 1.981c-7.263 1.981-11.556 7.264-15.848 13.537-1.321 1.651-2.641 3.632-4.292 5.613.66-2.641 1.651-5.282 2.641-7.594 2.311-4.622 4.953-8.914 7.924-12.546.331-.33-.33-.991-.66-.66-5.943 6.603-11.886 15.518-12.546 24.762-.991 1.981-1.651 4.293-1.651 6.274-1.651-1.651-3.302-3.302-5.283-4.953 5.613-7.594 7.264-18.82 6.603-28.395 0-.33-.33-.33-.33 0 .33 10.566-3.302 18.49-6.933 27.735-.991-.661-1.651-1.321-2.642-1.981-.33-.661-.66-.991-.99-1.651 4.622-3.962 5.613-11.226 5.282-17.169-.33-4.622-.99-8.915-.99-13.537.33-8.254 4.622-12.547 10.896-16.839 3.962-2.641 10.235-8.254 14.857-8.584 1.321-.33 1.651-.33 1.981-.33Zm41.602 50.846c1.651 8.254.66 14.858-4.622 21.131-3.302 4.292-7.594 7.594-12.547 9.905-11.556 5.613-25.093 3.962-35.658-3.632-1.651-3.632-4.623-6.603-7.264-9.245 3.301-3.301 6.603-7.263 10.235-10.565 4.292-3.962 8.915-6.934 13.537-10.235.66-.661 0-1.651-.66-1.321-8.915 4.952-17.83 12.216-24.103 20.801v-.661c-2.641-5.282 5.943-14.197 8.915-18.489 4.622-6.604 9.905-10.566 17.829-11.556 12.877-1.651 30.706-2.972 34.338 13.867Zm-68.015 67.355c.33 0 .33-.33 0 0 .33-.66.99-.66 1.32-.991 4.293-1.65 7.264-1.981 9.575-6.273 6.604 10.566 6.274 29.055 20.801 32.027 3.302.66 6.604 0 9.905 0 5.613-.33 9.245 1.651 13.867 3.962.331.33.661.33.991.66 1.321 3.962 1.981 7.924 1.651 11.886-.33 6.604-5.613 5.283-9.905 4.293-7.264-1.981-14.528-4.293-21.131-7.594-.33 0-.661-.33-.991-.33-6.273-3.302-11.886-7.925-16.839-13.538-5.612-6.603-13.867-14.857-9.244-24.102Zm67.024 29.385c-.33-.33-.66-.33-.99 0-2.972-.33-5.283-1.32-7.924-2.311-.33-.33-.661-.66-.991-.66-2.971-1.321-5.943-2.972-9.244-3.632-5.283-1.321-10.566.66-15.849-.33-13.537-2.642-12.876-21.462-19.81-31.367 0-.33-.33-.33-.66-.33 1.32-3.962.99-7.924 1.65-12.216.661-5.283 4.293-9.575 3.302-14.858 3.632 2.311 7.594 3.962 11.886 4.953v.33c3.302 3.962 6.934 7.264 9.245 11.886 2.311 4.622 3.632 9.575 4.953 14.528 0 .33.66.33.66 0 0-9.575-5.283-20.141-12.546-26.084 3.631.66 6.933.66 10.565 0l8.915 6.934c0 .33.33.33.66.66 6.934 5.613 13.207 11.556 19.15 18.49 4.953 5.943 7.594 12.216 7.924 20.14 0 2.311.66 6.934 0 9.245-1.651 4.622-6.603 4.952-10.896 4.622ZM255.86 115.05c4.953.66 10.235 1.321 14.858 2.972 5.613 1.981 13.207 6.603 13.207 13.867 0 5.613-5.613 10.895-9.245 14.527-6.934 6.934-15.518 11.886-24.763 14.858-4.623 1.321-9.245 2.311-14.197 2.311-2.312 0-5.944-.99-8.255.33-2.311-1.981-4.622-3.631-6.933-5.282 3.632-.661 7.263-2.312 10.895-4.293 2.642-1.65 5.283-3.631 7.594-5.943 6.604 2.642 16.839 2.642 21.461-3.962.331-.33 0-.99-.66-.66-2.972 1.321-5.613 3.302-8.915 3.962-3.631.991-7.263.991-10.895 0 2.641-2.641 4.622-5.943 6.273-9.245.991-2.641 1.651-5.613 1.651-8.584h.33c1.981-2.311 8.254-.33 11.226 0 2.641.33 5.613.99 8.254.33.33 0 .33-.66 0-.66-3.632-1.651-8.254-1.651-11.886-1.651-2.641 0-5.613-.661-7.594 1.32 0-4.292-1.321-8.254-2.641-11.886-.331-.99-.991-1.651-1.321-2.311v-.66c2.972 0 10.565.66 11.556.66Zm9.245-54.478c1.651 5.943-1.651 13.207-3.962 18.16-1.651 3.961-3.632 7.923-5.943 11.555-2.642 4.623-5.943 9.245-9.575 13.537-1.651 1.981-4.293 3.962-5.613 6.604-3.302-2.972-7.594-4.293-12.217-4.953 4.623-1.981 9.245-5.283 13.207-8.584 4.292-3.632 9.245-7.925 10.896-13.868 0-.33-.33-.66-.66-.33-3.632 4.292-6.604 8.585-10.566 12.217-4.622 3.962-9.575 6.603-14.527 10.235a40.264 40.264 0 0 0-8.915 0c1.981-3.962 2.641-8.254 2.311-12.877 0-2.971 0-6.603-1.651-9.245 1.981-3.962 13.537-6.933 16.839-8.254 4.953-1.98 10.235-3.302 15.188-4.953.99-.33.66-1.98-.33-1.65-7.924 1.98-15.849 4.952-23.112 8.254-2.642 1.32-7.924 2.311-9.245 5.613-.33 0-.33-.33-.66-.33-.661-.33-1.321-.33-1.981-.66-1.982-.991-3.302-1.321-4.293-3.963-.66-1.98.33-2.971-1.32-4.952-.331-.66-.991-.99-1.651-1.651 8.914-4.953 18.489-8.915 28.064-12.217 7.594-2.31 26.084-10.895 29.716 2.312Zm-51.837 0c5.613-4.293 11.226-8.255 17.169-11.226 3.962-1.981 24.432-11.226 19.81 2.311-3.962.66-7.924 2.311-11.226 3.302-9.905 3.301-19.81 6.933-29.055 11.556 1.321-1.651 2.311-3.632 3.302-5.943Zm-13.537-57.12c9.905-.33 11.226 13.537 12.216 21.131 2.642 16.178 4.623 33.347-7.924 45.234-1.321-.33-2.641 0-3.962.33-.33-8.585-2.311-16.839-6.273-24.433-1.321-2.641-3.962-8.254-6.934-9.575-.99-.33-1.981-.33-3.302-.33 0-5.943 0-11.556-.66-17.5-.33-2.64-.99-4.952-2.971-6.603 6.273-3.632 13.537-8.254 19.81-8.254Zm-63.063 44.903c.991-2.641 2.311-4.952 3.632-7.594 2.971-5.943 6.603-11.225 10.896-15.848 5.613-6.273 12.546-9.905 20.8-11.886 1.651-.33 3.302-.66 4.953-.33.33.66.99.99 1.321.66.99.66 1.981 1.651 2.641 3.302.66 1.98.66 4.622.66 6.603 0 4.623.331 8.915.331 13.537-.991.33-1.651.99-2.642 1.321-7.264 3.632-12.877 9.905-17.499 16.839-3.632 5.613-8.254 12.546-9.575 19.81-2.971-6.603-6.934-12.877-12.216-18.16-1.651-1.65-3.302-2.97-5.283-3.961 0-.33 0-.66.33-.99.661-1.322.991-2.312 1.651-3.303Zm-32.687-14.527c.66-3.962 1.321-6.934 3.632-10.236.66-.99 1.651-2.31 2.641-2.971.991-1.32 2.312-1.32 3.962-.66 2.642-.99 4.293-.33 4.953 1.98 2.641 4.623 4.622 9.906 6.603 14.858 2.312 4.953 5.613 9.575 6.934 15.188h-3.302c-5.613.66-11.556 2.311-16.178 5.943l-2.972 2.972c-2.641-3.302-5.613-6.604-8.584-9.245.66-5.943 1.321-11.886 2.311-17.83Zm-40.28 1.65c1.98.33 3.631.661 5.612.991 15.848 3.962 29.715 12.877 39.951 26.084-2.642 4.622-3.632 9.905-2.642 15.188l-.33-.33c-4.952-5.613-10.565-10.896-18.16-12.217-4.622-.66-11.225-1.65-15.517 1.651-.33-2.972-1.981-5.613-2.972-7.924-1.32-2.972-1.98-6.273-4.292-8.585-.33-.33-.99 0-.99.33 0 2.972 1.65 5.614 2.971 8.255 1.32 2.971 2.311 6.273 4.292 8.584 0 0 .33 0 .33.33l-.33.33c-2.971 3.302-4.622 8.915-5.282 14.198-1.981-7.594-3.632-15.188-5.283-22.782-.99-4.952-1.981-9.575-2.642-14.527-1.32-4.953-1.32-10.566 5.283-9.575ZM10.541 57.27c6.604-4.953 16.84-3.632 24.103-1.981 8.584 1.65 16.509 4.953 23.772 9.905.33.33.66.33.99 0 1.652 7.924 3.963 15.848 5.614 23.772 0 1.321 0 2.312-.33 3.302v.99c-7.925-1.98-19.15-2.64-27.405.991-.99-1.32-2.641-1.98-3.962-3.301-1.98-1.651-3.631-3.302-5.282-4.953-3.302-3.632-5.944-8.585-9.575-11.556-.33-.33-.66 0-.66.33.99 4.953 5.282 9.575 8.584 12.877 2.31 2.311 5.283 5.943 8.584 7.594-3.302 1.98-5.943 4.952-7.264 9.245-8.584-9.245-32.026-36.65-17.168-47.215Zm3.302 69.666C9.882 122.314.968 112.739 3.61 105.805c0-1.981.99-2.971 2.971-2.971 1.321-1.321 2.972-1.321 4.293-.661 1.65.331 3.301 1.321 4.952 1.651 3.632 1.321 7.264 2.642 10.896 3.632h.33v2.972c.33 8.914 5.943 15.848 11.556 21.791 4.953 5.613 10.566 10.565 17.5 11.886-1.982.991-3.963 1.981-5.944 3.302-3.632.33-6.933.66-10.565.99-7.264-7.924-18.16-12.216-25.754-21.461Zm3.962 50.516c-5.283-.99-13.867-8.254-13.207-14.857.33-6.604 8.585-7.264 13.207-8.255 7.264-1.32 14.198-2.311 21.461-3.301h.66c1.652-.33 3.303-.33 5.284-.661l-4.953 2.972c-5.613 3.962-.99 14.197 2.971 18.159l.991.991c-6.934.33-13.537 1.321-20.14 3.632-1.651.66-3.632.99-4.953 1.651-.66 0-.99-.331-1.32-.331ZM2.618 202.545c-2.641-5.282 5.613-17.168 10.236-19.81 9.575-5.613 23.112-7.264 34.007-7.594 5.613 2.972 12.877 3.632 19.48 3.962-10.565 4.293-19.81 11.886-25.753 22.122 0 0-.33 0-.33-.33-6.273-.661-11.226 2.971-15.848 7.263-1.651 1.321-3.302 2.972-4.953 4.293-5.943-.661-13.867-4.293-16.839-9.906Zm3.302 33.018c-2.971-6.274 5.283-11.887 8.915-15.518 1.65-1.651 3.302-3.632 5.282-5.613.33 0 .33-.331.33-.331 5.283-5.612 11.887-11.556 18.82-11.225-.66 1.32-1.32 2.971-1.98 4.622-1.982 4.953-4.293 12.216-3.633 18.159-5.282 1.982-11.886 8.255-13.206 14.528-4.953.33-12.217.991-14.528-4.622Zm25.423 15.188c-6.603-1.321-10.565-5.944-7.264-13.538 1.982-4.622 5.944-7.593 10.236-9.574 1.32 3.962 7.594 5.282 11.226 5.943 6.933.99 14.527 0 21.791-1.651-2.971 6.273-6.273 12.876-7.594 19.81-9.575.66-19.48.991-28.395-.99Zm31.697 24.102c-1.981-3.632-2.642-10.896-2.642-14.858-.33-10.565 4.953-19.81 9.245-29.055 6.273-1.981 12.547-4.622 17.83-7.594 13.537-7.263 24.432-19.81 27.734-35.658l.66.66c5.943 4.953 12.877 10.566 20.471 12.877-5.613 4.622-10.566 9.905-13.867 16.178-3.632 6.934-4.953 14.528-4.953 22.122-10.565 14.527-24.102 26.744-40.28 33.677-3.303 1.981-11.227 6.934-14.198 1.651Zm41.932 1.651c-2.972 1.651-5.944 2.971-9.245 4.292-.66.33-1.651.66-2.642.66-2.31-1.32-4.292-2.641-6.603-3.962-.66-1.981 1.32-5.282 2.311-6.933v-.33c11.226-6.934 21.131-16.179 29.055-26.744 0 6.273.661 14.197 2.972 20.801-4.953 4.622-10.236 8.914-15.848 12.216Zm45.563 8.915c-5.943 2.641-22.782-2.642-24.432-11.226 2.971 3.301 7.263 4.952 12.876 4.292 9.245-.991 16.839-7.924 22.452-16.509-.33 9.245-1.981 19.811-10.896 23.443Zm58.11-7.594c-.66 5.613-3.301 6.603-7.263 6.933-4.623.33-9.575.33-14.198-.99-8.914-2.972-17.169-7.594-24.432-13.207.66-3.962.99-8.254.99-11.886.991-1.651 1.981-3.632 2.641-5.283 3.632 6.273 11.556 9.905 17.5 12.546 4.622 1.981 9.905 3.632 14.857 4.623 2.642.66 6.604 1.651 9.905 1.321-.33 1.65.331 3.962 0 5.943Zm3.963-14.858c-.331 3.962-1.982 5.613-5.283 5.943-5.943.66-13.867-1.981-19.48-4.292-6.274-2.311-17.83-7.264-20.471-14.528.66-1.981 1.321-4.292 1.981-6.273 1.981-8.254 1.981-16.839-.33-24.763-.991-3.962-2.642-7.594-4.953-11.226-.33-.66-3.962-5.613-6.273-7.594v-.66c3.632.33 6.273 1.321 9.575-1.321 0 .33.33.33.66.33 3.962 0 7.264 10.896 8.585 14.198 1.651 3.962 2.641 8.254 4.622 12.216.33.33.661.33.661-.33-.331-6.273-3.302-12.547-5.944-17.829-1.65-3.302-3.631-9.245-7.924-9.245a38.03 38.03 0 0 0 4.623-5.613c-1.651 6.603 1.981 12.877 6.273 18.159 6.603 7.594 13.537 13.868 21.791 18.49 4.623 5.613 7.924 11.886 9.905 19.15.991 3.302 1.321 6.934 1.321 10.235.991 1.981.991 3.302.661 4.953Zm38.299 1.981c-1.981 1.651-4.622 1.321-6.933 1.321-4.292.33-9.245.33-13.537-.661-5.613-1.32-9.245-4.952-12.547-9.575 4.292 2.972 8.915 5.283 14.198 6.604 4.622 1.32 13.537 3.301 17.499-.991.99-.99 1.651-2.971 1.981-4.952 1.32 3.301 1.981 6.273-.661 8.254Zm39.621-51.837c-4.622 2.972-6.273 4.622-6.273 10.896 0 3.962.99 7.924-.33 11.886-1.981 5.943-7.925 6.273-12.877 6.603-7.264.661-14.528.661-20.471-4.292h-.33c-1.321-5.613-2.971-11.226-5.613-16.509 2.311 0 4.623-.33 6.934-.99 5.613-1.651 4.952-6.273 4.952-11.556 0-6.934-.66-13.867-4.292-19.48-.66-.991-1.321-2.311-2.311-3.302 7.924 3.302 16.508 5.943 25.093 5.283h.99c4.623 1.981 8.255 4.622 11.887 7.924.99.99 2.311 1.981 3.301 2.971 2.642 2.642 2.642 8.585-.66 10.566Z" fill="#fff"/><path d="M129.404 124.295c.33-2.641-3.302-2.642-2.641-.33v.33c0 1.321 2.311 1.321 2.641 0ZM123.461 131.228c2.641 0 2.641-4.622 0-4.622s-2.641 4.622 0 4.622ZM119.499 137.832c1.981.66 3.962-1.321 2.972-3.302-.66-1.32-1.981-1.32-2.972-.66l.331-.33c-.991.33-1.651.99-1.651 1.981-.331.66.33 1.651 1.32 2.311ZM114.547 144.435l.66.661c1.651.99 3.632-.33 3.632-2.311 0-1.982-1.981-3.302-3.632-2.312-.33 0-.33.33-.66.661-.33.66-.33.66-.33.33-.661.66-.661 1.981 0 2.641 0-.33 0-.33.33.33ZM117.518 152.029c.661-1.32 0-3.301-1.32-3.632h-.331c-.33 0-.33 0 0 0-.99-.99-2.311.331-2.311 1.321 0 .991.33 1.981.991 2.642.66.99 2.311.99 2.971-.331ZM116.197 158.633c-.66-1.321-2.311-1.651-3.301-.661l-.33.33c-1.321 1.321-.331 3.302 1.32 3.302h.33c1.651 0 2.642-1.651 1.981-2.971ZM113.226 164.576s-.33 0 0 0c-1.651-.661-3.632 0-3.302 1.981 0 .99.66 1.981 1.651 2.311.66.33 1.651 0 1.981-.66.99-.991.99-2.972-.33-3.632ZM112.896 171.84c-.661-.661-1.651-.331-2.312 0-.99.66-1.32 1.981-.66 3.301v.33c.66 1.321 2.311 1.321 3.302.661.99-.991.99-2.311.33-3.632-.33-.66-.66-.66-.66-.66ZM119.829 178.773c-.33-1.981-3.302-1.981-3.962-.33-.66 1.981 1.321 3.632 2.971 2.641.991-.33.991-1.32.991-2.311ZM123.791 184.386s0 .33 0 0c0 .33 0 0 0 0-.33 0-.33 0 0 0-.33 0-.33 0 0 0-.66-.99-1.981-1.651-2.972-.66-.99 1.32-.99 3.301.661 3.962.99.66 2.311.33 2.641-.661.66-.99.33-1.981-.33-2.641ZM131.385 188.678c-.33 0-.33 0 0 0-1.65-.66-2.971.661-2.971 2.311 0 1.321 1.321 2.642 2.971 2.312h.331c1.65-.991 1.65-3.962-.331-4.623ZM136.008 191.32c-.991.99-.66 2.311.33 2.971.66.661 1.981.661 2.641.33.991-.33 1.651-1.981.991-2.971-.991-1.321-2.972-1.651-3.962-.33ZM145.583 193.631c-.991-.33-1.981-.33-2.642.33-.66.33-1.32 1.321-.66 2.311.66 1.321 1.981 1.981 3.632 1.321 1.651-.33 1.651-3.302-.33-3.962ZM155.158 190.659c-1.321-.33-2.311 0-2.972 1.321-.66 1.321 0 2.641 1.321 2.972.66.33 1.321 0 1.981 0 1.981-.331 1.651-3.632-.33-4.293ZM164.072 188.348c-.66-.33-1.32-.33-1.65 0-.991.33-1.651 1.321-1.651 2.311 0 .991.66 1.981 1.651 2.311.66 0 1.32.331 1.65 0 2.312-.66 1.981-3.631 0-4.622ZM170.015 184.056c-2.641 0-2.641 4.622 0 4.622 2.972 0 2.972-4.622 0-4.622ZM176.289 179.433l-.66.331s-.331.33-.661.33a2.476 2.476 0 0 0 0 3.962c.991.66 1.981.66 2.642 0 .99-.661 1.32-1.321 1.32-2.311.33-1.651-1.32-2.642-2.641-2.312ZM180.25 173.491c-.33.33-.33.66-.33.99 0 0-.33.66 0 .33-.99 1.321.33 2.642 1.651 2.972 1.981.33 3.632-2.311 2.311-3.962-.99-1.651-2.641-1.651-3.632-.33ZM185.863 157.312c0 .991.331 1.981 1.321 1.981.66.33 1.321 0 1.651-.33l.99-.991c.661-1.32.331-2.641-.99-3.301-1.321-.661-2.641 0-2.972 1.32v1.321ZM182.562 149.718c-.991-1.321-2.641-.33-2.972.991 0 1.32.661 1.981 1.651 2.641.661.33 1.321.33 1.651 0 .661.33 1.321.33 2.311 0 1.651-.991 1.321-3.632-.66-4.292h-.33c-.33-.33-1.321 0-1.651.66ZM182.561 147.077c.331-1.321-.33-2.642-1.32-3.302-.661-.33-1.651-.33-2.311 0-.331.33-.661.33-.661.66-.33.991-.33 1.981.33 2.642.991 1.65 3.632 1.981 3.962 0ZM175.298 143.115c.991 0 1.981-.991 1.981-1.982 0-1.981-2.311-3.631-3.962-2.641-.991.66-1.321 1.981-.66 2.972.33.99 1.651 1.32 2.641 1.651ZM169.686 136.841c.99.331 1.981-.33 1.981-1.65 0-1.321-.331-1.982-1.321-2.972-1.321-.991-3.632.66-2.972 2.311.331 1.321.991 1.981 2.312 2.311ZM164.072 131.889c1.981 0 2.642-1.981 1.981-3.302v-.33c-.66-1.321-2.641-1.651-3.632-.33-.33.66-.66.99-.66 1.651-.33 1.32.991 2.311 2.311 2.311ZM156.809 129.247c2.641 0 2.641-4.292 0-4.292-2.642 0-2.642 4.292 0 4.292Z" fill="#fff"/><path d="M151.526 127.597c.66.33 1.32.33 1.981-.331l.33-.33c.99-.33 1.321-1.981.33-2.311 0-.33-.33-.66-.66-.99-.991-1.321-2.972-.661-3.632.33-.66 1.32 0 3.301 1.651 3.632ZM139.309 124.955c.66.33 1.321.33 1.651 0 0 1.651 1.981 2.972 3.302 1.981.33 0 .33-.33.66-.33.33-.66.33-.66.33-.33.33 0 .33-.33.33-.33v.66c.661.991 2.312 0 2.312-.99 0-.991-1.651-1.981-2.312-.991 0-.33-.33-.66-.66-.66.33.33 0 .33-.33-.33-.33-.331-.33-.331-.661-.331-.66-.66-1.65-.33-2.311.331 0-1.321-1.32-1.981-2.641-1.321h-.33c-.661.33-.661 1.981.66 2.641 0 0-.33 0 0 0ZM132.706 125.616c1.32 0 2.311-1.321 2.311-2.642 0-1.32-.991-2.641-2.311-2.641-1.321 0-2.312 1.321-2.312 2.641 0 1.651.991 2.642 2.312 2.642ZM129.074 130.898c0 .33 0 .33 0 0 .991 1.981 3.632.991 3.632-.99 0-.991-.66-2.311-1.651-2.311-1.981-.331-3.632 1.981-1.981 3.301ZM128.744 133.87c0-2.311-2.971-2.972-3.962-.991-.33.661-.33 1.321-.33 1.981.33 1.981 3.632 1.981 3.962 0 .33-.33.33-.66.33-.99Z" fill="#fff"/><path d="M125.773 136.511c-2.642 0-2.642 4.623 0 4.623 2.641 0 2.641-4.623 0-4.623ZM123.461 141.134l-.33-.331c-.33-.33-.66-.33-1.321-.33h-.33c-1.321 0-2.311 1.321-2.311 2.311 0 1.321.99 2.312 2.311 2.312h.33c1.321 0 2.311-1.321 1.981-2.642.33-.33 0-.99-.33-1.32Zm.33 1.981c0 .33 0 .33 0 0ZM121.81 152.029c1.981-.66 2.311-3.632.33-4.292-1.981-.66-3.632 1.321-2.641 3.302.33.66 1.321.99 2.311.99ZM118.508 154.34c-.33.661-.33.991-.33 1.651.33 2.972 3.962 2.972 4.292 0 0-.66 0-.99-.33-1.651-.66-1.32-2.971-1.32-3.632 0ZM116.528 161.604c-.33 1.321 0 2.312.99 3.302.331.33 1.321.33 1.651 0 .991-.66 1.321-1.981.991-3.302-.33-1.651-2.972-1.651-3.632 0ZM116.858 169.859c.66 2.641 4.292 1.32 3.632-.991v-.33c-.331-2.642-4.293-1.651-3.632 1.321 0 0 0-.331 0 0ZM119.169 176.792c.661.33 1.321.66 2.311.66 1.651 0 2.642-2.311 1.321-3.301-.99-.991-2.971-1.321-3.962 0-.66.66-.99 2.311.33 2.641ZM130.395 179.764c-.33-.991-.66-1.651-1.651-2.312-.99-.33-1.981 0-2.311.991-.33.99 0 1.981.33 2.641.991 1.981 4.292.991 3.632-1.32ZM131.055 183.065c-.99-.33-2.311.661-1.981 1.981.33.991.661 1.651 1.651 1.981.991.661 1.981.661 2.972-.33.66-.66.66-1.32.33-1.981-.661-1.32-1.981-1.651-2.972-1.651ZM143.931 188.348c1.651-.66 1.651-2.641 0-3.302-.66-.33-1.32-.33-2.311 0-2.311 0-2.311 3.632 0 3.632.991 0 1.651 0 2.311-.33ZM148.884 186.367c-.33.33-.66.66-.99 1.321v.99c0 .991.99 1.981 1.981 1.651 1.32 0 2.641-1.981 1.651-3.302-.661-.99-1.981-.99-2.642-.66ZM160.44 183.396c0-.661-.33-.991-.99-1.321-.66-.33-1.321-.33-1.981 0-.66.33-.991.66-1.321 1.321-1.32 1.65.33 3.631 1.981 2.971.661 0 .991-.66 1.651-.99.66-.331.991-.991.66-1.981ZM162.421 183.395c1.321 0 1.982-.99 1.982-1.981 0-.66-.331-.99-.661-1.32-.66-.661-1.651-.661-2.641 0l-.33.33c-.661.99.33 2.971 1.65 2.971ZM170.346 180.424c0-.33 0-.33 0 0 2.311-1.321.66-4.622-1.651-3.302h-.33c-1.981.991 0 4.293 1.981 3.302ZM174.307 177.452c.33-.66.991-.99 1.321-1.65 1.651-1.651-.66-4.293-2.311-2.642-.661.661-1.321 1.321-1.651 1.981-.33.661-.33 1.651.33 2.311.66.661 1.981.661 2.311 0ZM178.93 169.198c.33-1.981-1.651-3.302-2.971-1.981-.991.991-.991 2.972-.331 3.962 1.321 1.981 3.962.33 3.302-1.651v-.33Zm-.33.33c0 .33 0 .33 0 0 0 .33 0 0 0 0ZM183.883 156.652c-.661-.331-.991 0-1.321.33-.66.33-.991 1.321-.991 1.981-.66-.33-1.32-.33-1.981.33-.33.33-.66.991-.99 1.651 0 .33-.33.33-.33.66-.33 0-.33 0-.661.33-.99.661-1.32 1.651-1.32 2.972 0 .99.99 1.321 1.981 1.321.99 0 1.32-.991 1.32-1.651 0 .66 0 0 .331-.33.33-.331.33-.661.33-.991h.33c.66-.33.99-.66 1.321-.99.33-.331.33-.331.33-.661.66.33 1.32.33 1.981-.33.33-.33.66-.66.66-1.321.66-1.65.33-2.641-.99-3.301ZM176.949 146.086c0-.33 0-.33 0 0-.66-1.651-2.971-.99-2.971.661 0 1.32.66 2.311 1.981 2.641 1.981.33 2.971-2.972.99-3.302ZM169.355 140.803c-.991 0-1.651.991-1.651 1.981 0 1.321.66 1.981 1.321 2.972.66.66 1.981.66 2.641 0 .66-.66.66-1.981 0-2.641 0-.331 0-.661-.33-.661-.33-.99-.991-1.651-1.981-1.651ZM163.082 143.445c1.981 1.32 3.632-1.981 1.651-3.302-.33-.33-.661-.991-.661-1.321-.66-1.981-3.301-1.651-3.301.33 0 1.651.99 3.302 2.311 4.293Z" fill="#fff"/><path d="M157.139 133.87c0-.33 0-.66-.331-.66-.33-.991-.66-1.981-1.32-2.312-.661-.66-1.321-.66-2.311-.33-.661.33-.991 1.321-.661 1.981.33.991.991 1.651 1.651 2.311.66.661 1.321.991 2.311.661l.33-.33c0 1.32.661 2.311 1.651 3.301 1.321 1.321 3.632-.33 2.642-1.981V134.53c-.991-1.981-2.972-1.981-3.962-.66Zm3.632 1.981c-.331 0 0 .33 0 0-.331.33-.331.33 0 0ZM145.913 130.568c.33 1.321 1.651 2.311 2.641 2.311.991 0 1.651-.66 1.651-1.651 0-.66-.33-1.32-.99-1.65-.661-2.312-3.632-1.321-3.302.99ZM143.932 129.578c-1.321-1.981-3.962-.331-2.972 1.981.33.66.661.99 1.321 1.32 1.981.991 3.302-1.981 1.651-3.301.33 0 .33.33 0 0Z" fill="#fff"/><path d="M137.989 132.549h.33c2.311 0 2.311-3.632 0-3.632h-.33c-.991-.33-2.312.66-2.312 1.981 0 1.321.991 1.981 2.312 1.651ZM134.356 131.559c-.99-.331-2.311.66-2.311 1.651 0 .99.991 1.981 2.311 1.65.331 0 .331 0 .661-.33 1.321-.66 1.321-2.641 0-2.971h-.661ZM132.376 140.473l.33-.33c.99-1.321-.991-3.632-2.311-2.641l-.331.33c-.99.66-1.32 1.981-.33 2.971.661.991 1.981.661 2.642-.33ZM128.083 146.086c1.321.661 2.311-.33 2.311-1.32.661-1.321-.99-2.972-1.981-1.651-.99.33-1.32 2.311-.33 2.971ZM126.763 149.058c0 .33 0 .33 0 0-.99 1.65.991 3.632 2.311 2.641h.33c1.981-1.651-.99-4.953-2.641-2.641ZM131.055 155.661c0-.99-1.321-1.651-1.981-1.32-.99.33-1.321 1.32-1.321 2.311v-.33c-.33 2.311 2.642 3.301 3.302.99.33-.66 0-1.321 0-1.651ZM128.084 164.246c.66.33.99 0 1.651-.331l.33-.33c1.32-1.32-.661-3.962-2.311-2.311l-.331.33c-.33.33-.66.991-.33 1.651 0 .33.33.66.991.991ZM128.744 169.198l.66-.66c1.321-1.651-.66-3.962-2.311-2.642l-.66.661c-1.651 1.651.66 4.292 2.311 2.641ZM125.442 158.963c0-1.981-2.971-1.651-2.641.33.66 1.321 2.641.991 2.641-.33ZM124.452 165.566c.66-.66.66-2.311-.33-2.641h-.331c-1.32-.991-2.971.99-2.311 2.311v.33c.991.661 2.311.661 2.972 0ZM124.782 169.858c-1.32-.99-2.971.661-2.311 1.981v.331c1.321 2.311 4.292-.991 2.311-2.312ZM135.347 174.811c-.33-.33-.66-.66-1.321-.99-.66-.331-1.32 0-1.651.33-.66.66-.66 1.651-.33 2.311.33.66.661.99 1.321 1.321 1.981.99 3.302-1.651 1.981-2.972Z" fill="#fff"/><path d="M129.404 172.5c1.981 0 1.981-3.302 0-3.302s-1.981 3.302 0 3.302ZM138.979 181.745c1.981 1.651 4.293-1.981 1.981-3.632-.66-.33-.99-.33-1.651-.33-1.32 0-1.981 1.65-1.32 2.641 0 .66.33.99.99 1.321ZM148.554 179.764c-1.32 0-1.981.66-2.971 1.32-1.321 1.321.33 3.963 1.981 2.972.33-.33.99-.33 1.321-.33 1.981-.991 1.651-3.962-.331-3.962ZM155.157 181.415c.33 0 .991.33 1.321.33 2.311 0 2.311-3.302 0-3.632-.33 0-.991 0-1.321.33-1.651.33-1.651 2.641 0 2.972ZM163.082 179.103c.33 0 .33 0 .33-.33.991-.66 1.321-1.981.661-2.971-.661-.991-1.981-.991-2.972-.331-.66.331-.66 1.321-.33 1.981 0 0 0 .331 0 0-.33 1.982 1.321 2.642 2.311 1.651ZM168.364 174.151c0-.33.331-.33.331-.661.66.331 1.65.331 2.311-.66l.33-.33c.33-.661.33-1.651-.33-2.311-.661-.331-1.651-.661-1.981 0-.33-.331-.661-.331-.991 0-1.32.66-1.651 1.65-1.651 2.971-.99 1.651 1.321 2.311 1.981.991ZM170.676 161.604c-.331.661-.331.991-.331 1.651 0 1.981 2.312 2.311 2.972.991.33-.331.33-.661.33-.991.661 0 .991-.66 1.321-1.321l.33-.33c.66-.66.66-1.32.66-1.981.661.661 1.651.661 1.981-.33v-.33c.991-1.651-1.65-3.302-2.641-1.651v1.321c-.66-.661-1.651-.991-2.311-.331-.661.661-1.321.991-1.321 1.982v.66c-.33 0-.66.33-.99.66ZM177.609 154.671c.33.33.991.33 1.321 0 1.32-.991.99-3.302-.991-3.302-1.32 0-1.651 2.311-.33 3.302ZM170.345 154.671h.991c2.311.33 2.971-2.642.99-3.632-.33 0-.66-.331-.99-.331-2.311-.66-3.302 3.302-.991 3.963Z" fill="#fff"/><path d="M167.044 154.671c.66 0 1.321-.33 1.651-1.321.33-1.321.33-2.641-.991-3.302-.66-.66-1.981 0-1.981.991-.33.66 0 1.32 0 1.981 0 .99.661 1.651 1.321 1.651ZM165.063 145.096c-1.321.33-1.321 1.981-.661 2.641.661.66 2.311.66 2.642-.66v-.331c0-1.32-.661-1.981-1.981-1.65 0 0 0-.331 0 0ZM169.355 156.652c-.331-.661-.991-.661-1.321-.661-1.321-.33-1.981 1.981-.991 2.972.991 1.981 3.963-.33 2.312-2.311ZM169.355 166.226v-.99c-.33-2.311-3.302-2.311-3.302 0v.99c0 2.312 3.302 2.312 3.302 0ZM163.412 169.528s-.33 0 0 0c-.66.33-.99.991-.99 1.321 0 .33 0 .66.33.66.33.661.99.661 1.651.661h.33c1.651-.331.66-3.632-1.321-2.642ZM158.129 145.426s0 .33 0 0c.33 2.641 3.302 2.641 3.302.33v-.33c.66-2.311-3.632-2.311-3.302 0ZM154.498 138.162c-.661 0-1.321 1.321-.991 1.981.33.99.991 1.321 1.321 1.981.99 1.981 3.302.33 2.641-1.651-.66-1.651-1.651-2.641-2.971-2.311ZM150.865 138.492c0-1.32-1.65-1.981-2.641-1.32-.99.99-.66 2.311.33 2.971l.33.33c.991.991 2.642-.33 1.981-1.981ZM144.262 136.511c-.66-.99-1.981-1.32-2.641 0-.66.991.33 2.642 1.321 2.642h.66c1.321.33 1.651-1.651.66-2.642ZM137.658 137.832c-1.981 0-2.641 2.311-1.65 3.302.99 1.32 3.301.33 3.301-1.321v-.33c0-.991-.66-1.651-1.651-1.651ZM133.366 145.096s0 .33 0 0c0 2.641 3.302 2.641 3.302.33v-.33c0-2.311-3.302-2.311-3.302 0ZM135.347 152.69s0-.331 0 0c.661-.661.661-1.321.661-1.651.33-1.651-1.321-2.642-2.642-1.651-.33.33-.99.66-.99 1.321v.33c-.661 1.651 1.981 2.971 2.971 1.651ZM135.678 156.982v-.661c0-1.981-2.972-1.981-2.972 0v.661c0 1.981 2.972 1.981 2.972 0ZM134.027 163.585c1.321.33 2.641-1.32 1.981-2.641 0-1.321-1.651-1.981-2.311-.66-.991.66-.991 2.971.33 3.301ZM134.357 168.868c1.651 1.651 3.962-.99 2.641-2.641l-.33-.331c-1.651-1.32-3.962.661-2.311 2.642-.33 0-.33.33 0 .33ZM139.64 173.821c.66-.33.99-.33 1.651-.661.99-.66.66-1.981-.331-2.311-.66-.33-.99 0-1.651 0-.99-.33-2.311.66-1.981 1.981 0 .991.991 1.321 2.312.991ZM146.903 175.802c.33 0 .33 0 0 0 1.981 0 1.981-2.972.331-2.972h-.331c-2.311-.66-2.311 3.632 0 2.972ZM152.186 176.462c.661-.33.991-.66 1.321-.991.99-.99 0-2.971-1.321-2.641-.66.33-.99.66-1.651.991-1.65 1.32 0 3.631 1.651 2.641ZM160.44 171.509c.661-.33.991-.66 1.321-1.32.66-1.321-.66-2.972-1.981-2.312-.66.331-.66.661-1.321 1.321-1.32 1.981.33 3.632 1.981 2.311ZM163.412 162.265c-.66-1.651-2.972-.331-2.641.99v.66c.66 1.981 3.301.991 2.971-.66-.33-.66-.33-.99-.33-.99ZM164.072 157.312c0-1.981-2.972-1.981-2.972 0v.991c0 1.981 2.972 1.981 2.972 0v-.991Z" fill="#fff"/><path d="M163.412 151.699c0-.66-.661-.99-.991-1.321h-.99c-.661 0-.991.991-1.321 1.651 0 .661 0 1.321.33 1.981.991 2.312 3.962.991 2.972-1.32.33 0 .33-.331 0-.991ZM157.469 146.086c-.66-1.32-2.641-.66-2.641.661 0 1.32.99 2.641 1.981 3.301-.991-.33-1.981.33-1.981 1.321 0 .66 0 1.321.33 1.651.66 2.641 4.622.99 3.301-1.321-.33-.66-.66-.99-.99-1.321l-.33-.33c1.651.661 2.971-1.651 1.32-2.971-.66 0-.66-.33-.99-.991ZM152.517 144.765c-.331 0-.331-.33-.661-.33-1.32-.99-3.301 1.321-1.981 2.642.33.33.661.66.991.66.66.66 1.651 0 1.981-.66.66-.991.33-1.981-.33-2.312ZM146.573 143.775c-2.311-.66-3.302 2.971-.99 3.632.33 0 .66 0 .99.33 2.311.66 2.972-2.972.991-3.632-.331 0-.661-.33-.991-.33ZM143.932 150.048c0-.33 0-.33 0 0 1.32-1.981-.661-3.962-2.312-2.641-.99.66-1.32 1.981-.33 2.971.661.661 1.981.661 2.642-.33ZM138.649 153.35c-.33.33-.33.33 0 0-.99 1.321-.33 2.641.661 2.971.99.331 1.981-.33 2.641-1.32v-.33c.33-.991-.33-1.981-.99-2.312-.991 0-1.981.331-2.312.991ZM138.319 160.944c0 .33 0 .33.33.66.33.991 1.321 1.651 1.981 1.321.991-.33 1.651-1.321 1.321-2.311 0-.331-.33-.661-.33-.991-.991-1.981-3.632-.66-3.302 1.321ZM145.583 167.217c.99-1.321.33-2.971-1.321-3.302h-.66c-.991-.66-2.312 0-2.642.991-.33 1.321.33 2.311 1.321 2.971.99.331 2.641 0 3.302-.66ZM150.866 168.208c.66-1.321-.33-2.642-1.651-2.311h-.33c-.33 0-.33 0 0 0-1.981-.661-2.972 2.641-.991 3.301 1.321.33 2.642 0 2.972-.99ZM156.478 162.265c-.66.66-.99 1.32-1.32 1.981-.661.66 0 1.981.66 2.311.99.66 1.651 0 2.311-.661.33-.66.991-1.32 1.321-1.981.33-.66 0-1.65-.661-1.981-.99-.33-1.981-.33-2.311.331ZM159.78 157.642s-.33-.66-.33-.33c-.33-1.981-2.972-2.311-2.972 0 0 .99.331 2.311.991 2.971 1.321 1.981 3.962-.66 2.311-2.641ZM152.846 150.709c0-.991-1.321-1.981-2.311-1.651h-.66c-1.651-.33-2.972 1.981-1.321 3.301.66.331 1.651.661 2.311.661 1.321-.33 2.311-.991 1.981-2.311ZM146.243 155.991c.331 0 .33-.33.33-.66 1.651-.991.331-4.292-1.65-3.632-1.651.33-2.642 1.981-1.651 3.632.99 1.321 2.311 1.321 2.971.66ZM145.913 161.274c.99.991 2.311.66 2.641-.66.33-.991 0-1.651-.66-2.311-.33-.661-.991-.991-1.651-.661-.99.33-1.321 1.321-.99 1.981 0 .991.33 1.321.66 1.651ZM155.488 161.604c.99-.66.99-1.651.66-2.641-.33-.661 0-1.321-.66-1.981-.661-.33-1.321-.661-1.981-.33 0-.991-.331-1.981-1.651-1.981h-.661c-1.981 0-1.981 3.301 0 3.301H152.516c0 .661 0 1.651.33 2.311-.33-.33-.66-.33-1.32 0-.331.331-.991.661-1.321.661-1.981.99-1.321 3.962.99 3.632.991 0 1.651-.661 2.312-1.651.33-.33.33-.991 0-1.321.99.33 1.65.33 1.981 0ZM130.725 115.71c.991-5.612-.66-12.216-2.311-17.499 0-.33-.66-.33-.66.33 1.651 5.944 1.32 11.557 2.311 17.5 0 0 .66 0 .66-.331ZM146.243 116.371c4.292-6.604 3.632-16.179 1.32-23.112 0-.33-.99-.33-.66.33 1.981 8.254.33 14.858-1.321 22.782-.33 0 .33.33.661 0ZM160.44 90.617c2.972 8.915-2.971 17.499-3.301 26.084 0 .33.66.66.66.33 2.311-4.292 2.971-9.905 3.962-14.858.66-4.292.66-7.924-.991-11.556 0-.66-.66-.66-.33 0ZM218.551 131.559c-10.236.66-21.131 6.603-29.716 12.546-.33.33 0 .991.33.66 9.245-6.273 19.15-8.584 29.386-12.216.33-.33.33-.99 0-.99ZM221.852 139.813c-9.245 3.962-18.159 6.934-27.734 9.575-.33 0-.33.66 0 .66 9.575 0 20.14-3.301 28.064-8.914.661-.661.33-1.651-.33-1.321ZM206.004 182.735c.33.33.66 0 .66-.33-1.651-3.632-4.292-6.934-5.943-10.896-1.981-4.622-3.302-9.575-3.962-14.857 0-.661-.99-.661-.99 0 .66 8.914 3.301 20.14 10.235 26.083ZM190.816 168.208c0-.661-.991-.331-.991 0 .991 11.886 6.604 25.093 16.839 31.366.33.33.66-.33.33-.66-7.924-9.245-13.867-17.83-16.178-30.706ZM192.467 213.441c.33.33.66-.33.66-.66-1.32-2.642-3.302-4.953-4.622-7.264-1.321-2.972-2.311-5.943-2.972-9.245 0-.66-1.32-.33-.99.33.66 5.613 2.971 13.537 7.924 16.839ZM165.393 201.555c4.953 12.216 8.585 25.753 14.858 37.309.33.661.99 0 .99-.33-2.311-12.877-9.244-25.753-14.527-37.639-.66-.661-1.651 0-1.321.66ZM138.979 205.517c-6.603 8.254-12.876 19.48-11.556 30.706 0 .33.661.33.661 0 2.641-10.896 4.292-21.131 11.225-30.376.331-.33 0-.66-.33-.33ZM147.564 208.158c-.661 4.623-.661 8.915-1.981 13.537-1.321 4.953-4.293 8.915-6.604 13.537-.33.661.33.991.991.661 6.603-5.613 11.226-18.82 8.914-27.735-.33-.66-1.32-.66-1.32 0ZM117.848 193.961c0-.66-.99-.66-.99 0 .66 15.518-9.905 23.772-17.83 35.328-.33.331.33.991.66.661 10.566-8.255 19.811-21.792 18.16-35.989ZM112.566 230.28c4.622-9.245 8.254-17.829 14.527-26.084.33-.66-.33-1.32-.66-.66-6.273 7.594-12.217 16.509-14.528 26.414 0 .33.33.66.661.33ZM81.2 180.094c6.933-.991 13.206-1.981 20.14 0 .66 0 .99-.991.33-.991-6.604-1.65-14.198-2.311-20.47.331-.661 0-.331.66 0 .66ZM108.603 184.716c.991-.33.66-1.981-.33-1.651-9.905.991-20.8 4.953-28.725 10.896-.33.33 0 .66.33.66 4.623-1.981 9.245-4.292 13.867-5.943 4.953-1.651 9.906-2.641 14.858-3.962ZM88.133 207.168c-.33.33 0 .66.33.66 8.585-3.632 17.829-11.556 22.122-20.14.33-.661-.661-1.651-1.321-.991-3.302 3.302-5.943 7.264-9.245 10.566-3.632 3.632-7.924 6.603-11.886 9.905ZM57.757 128.257c8.254 3.632 16.178 6.933 25.423 6.273.66 0 .66-.99 0-.99-8.585.33-15.848-3.302-23.442-6.604-7.594-3.302-15.848-4.622-23.112-8.254-.33-.33-.99.33-.66.66 5.612 5.283 14.527 5.943 21.79 8.915ZM60.398 115.38c3.632 3.302 7.594 6.274 11.226 9.575.66.661 1.32-.33.99-.99-3.631-3.302-7.263-6.934-10.895-10.236-3.302-2.971-6.273-6.603-10.235-8.584-.33-.33-.99.33-.66.66 2.31 3.962 6.603 6.934 9.574 9.575ZM51.153 179.103c.66 0 .99-1.32.33-1.32-13.537-2.311-30.045 2.641-40.61 11.556-.991.66.33 1.981.99 1.651 6.273-3.302 12.216-6.934 18.82-8.915 6.603-1.651 13.537-1.981 20.47-2.972ZM49.172 188.348c-4.953-.99-9.245 0-14.197.991-5.613.99-11.556.33-17.17 1.65-.66 0-.66 1.321 0 1.321 9.906 2.641 21.132-2.311 31.037-2.641.66.33.99-.991.33-1.321ZM27.381 67.835c7.264 1.321 13.207 2.972 20.141 5.944 4.953 2.31 9.575 4.622 14.858 6.273.66.33.99-.66.33-.99-6.273-3.963-13.207-6.934-19.81-9.906-4.953-2.311-10.236-3.962-15.518-2.641-.66 0-.66.99 0 1.32ZM84.5 54.959c5.283 3.301 9.245 8.914 12.547 13.867.33.66 1.32 0 .99-.66-2.971-4.623-5.612-9.245-9.575-12.877-3.631-2.971-7.924-4.953-11.886-7.594-.33-.33-.66 0-.66.33.99 3.962 5.613 5.283 8.585 6.934ZM152.516 67.175c-1.32-8.254 1.321-14.527 4.623-22.121 2.641-6.274 4.622-13.537 9.905-17.83.33-.33 0-.99-.33-.66-6.934 4.622-9.575 14.858-12.547 22.121-2.641 5.944-6.273 12.877-2.311 18.82.33.66.99.33.66-.33ZM196.759 47.695c-.33.33.331.66.661.33 6.273-8.914 3.632-22.121-.661-31.366-.33-.33-.66 0-.66.33.991 5.613 2.972 10.896 3.302 16.509.33 5.282-.991 9.575-2.642 14.197Z" fill="#fff"/></svg>