<svg width="700" height="674" fill="none" xmlns="http://www.w3.org/2000/svg"><path d="M673.276 459.509c-6.933-5.392-13.867-10.785-21.571-15.408 14.638-3.852 26.964-13.867 37.75-25.423 30.045-33.898-10.786-65.484-39.291-78.581 6.163-6.933 10.786-13.867 13.867-21.571 10.016-23.112-11.556-40.061-30.045-47.765-13.097-5.393-26.194-6.933-40.061-8.474-6.934-.771-20.03-4.623-28.505-1.541 0-.77-1.541-1.541-2.311-1.541 2.311-1.541 4.622-3.852 5.393-4.622 2.311-2.311 4.622-5.393 6.933-8.475 3.852-4.622 7.704-9.244 10.786-14.637 8.474-11.556 15.408-24.653 21.571-37.75 8.475-17.719 23.112-46.224 8.475-64.713-7.704-10.016-18.49-11.556-29.276-10.786 5.393-17.719-6.933-24.653-23.112-20.8-23.882 5.392-45.453 19.259-65.484 33.897 8.475-28.505 2.312-61.632-3.081-91.678-3.082-16.178-8.475-36.209-26.194-39.29-8.474-1.541-16.178 2.311-23.112 5.393-9.245 6.933-20.03 13.096-30.816 19.26-7.704-2.312-16.178.77-23.112 2.31-10.786 3.082-21.571 7.705-30.816 14.638-16.178 12.327-28.505 30.816-37.75 49.306-3.852 7.704-7.704 15.408-10.785 23.112-4.623-14.638-13.867-28.505-20.031-42.372-4.622-10.786-10.785-33.127-24.652-34.668-10.786-1.54-20.801 13.097-25.424 22.342-3.852 8.474-4.622 19.26-6.163 28.504-1.541 10.016-2.311 19.26-3.852 29.276-24.653-21.572-55.469-36.21-87.055-39.29-21.571-2.312-16.178 20.8-13.867 36.208 1.541 10.786 3.852 21.571 6.163 32.357-20.03-13.097-43.142-21.571-66.254-24.653-17.72-2.311-40.832-3.082-53.928 12.326-13.868 15.408-6.164 36.98 1.54 53.158 10.786 20.801 24.653 40.831 40.061 57.78-10.015-3.852-20.8-7.704-30.816-10.786-6.163-1.54-11.556-3.081-16.949.771-10.785 7.704-8.474 24.653-3.852 34.668 8.475 17.719 23.883 35.438 38.52 47.765 13.097 11.556 29.276 19.26 40.832 31.586-8.475.77-16.95 2.311-25.424 3.852-14.637 2.311-33.897 2.311-46.994 11.556-21.571 16.178 3.082 46.995 22.342 53.928-9.245 3.852-16.95 9.245-23.112 19.26-7.704 13.097-20.801 24.653-9.245 39.291 9.245 12.326 22.341 20.03 36.979 23.112-11.556 8.474-20.8 17.719-28.505 27.734-6.163 8.474-8.474 18.49-1.54 26.964 8.474 11.556 23.111 11.556 36.208 10.786 0 4.622 1.541 9.244 4.623 13.867 6.163 9.245 18.49 10.785 28.504 12.326 19.26 3.082 38.52 3.082 57.78.771-.77 6.163-1.54 13.096-.77 19.26.77 10.785 2.311 25.423 6.934 34.668 4.622 9.244 11.556 6.933 19.26 3.852 12.326-3.852 24.652-9.245 36.208-15.408-3.081 6.163-3.852 11.556-.77 18.489 4.622 7.704 11.556 9.245 20.03 7.704 24.653-4.622 46.224-22.341 65.484-39.29 1.541 3.852 3.852 7.704 6.164 11.556-3.082 23.882 36.208 41.601 53.928 40.061 20.801-1.541 30.045-18.49 34.668-36.98 22.341 16.179 49.305 33.128 77.04 33.898 9.245 0 23.112.77 30.816-6.163 7.704-7.704 3.852-20.031 4.622-30.046v-.77h1.541c10.015-3.852 10.015-22.342 8.474-34.668 3.852 6.163 7.704 11.556 13.097 15.408 13.867 10.015 24.653 13.097 41.602 13.867 9.245 0 26.964 2.311 34.668-5.393 8.474-8.474 2.311-20.801-2.311-30.045 0 0 0-.771-.771-.771 0-10.015-1.541-20.03-2.311-25.423 0-.77 0-1.541-.77-2.311 16.178 10.785 36.208 10.015 54.698 6.933 20.03-3.081 29.275-12.326 28.505-34.668 0-9.244-1.541-15.408 2.311-23.882 3.852-8.474 6.163-6.934 12.326-12.326 5.393-4.623 7.704-10.786 6.934-17.72-1.541-10.785-10.015-16.948-16.949-23.112Zm16.949-83.203c13.097 20.801 0 36.209-15.408 50.076-28.505 25.423-67.025 13.097-98.611 0-6.934-8.474-15.408-15.408-22.342-23.112-6.163-6.163-12.326-11.556-19.26-16.949v-.77c6.163.77 17.719 1.541 18.49 1.541 5.393 0 10.785-.771 15.408-2.311.77 0 1.541-.001 2.311-.771 16.949 16.949 49.306 27.735 73.188 24.653 1.541 0 1.541-1.541 0-2.311-11.556-4.623-23.882-5.393-36.209-8.475-11.556-3.081-22.341-8.474-33.127-14.637 10.015-2.311 20.801-6.164 30.046-10.786 3.852-2.311 8.474-3.852 12.326-6.933.77.77 1.541.77 2.311 0 3.852-3.852 12.327 3.852 16.179 6.163 3.852 2.311 8.474 5.393 13.096 6.933.771 0 1.541-.77.771-2.311-5.393-6.163-14.638-10.015-21.571-13.867-1.541-.771-3.082-1.541-4.623-1.541 7.704-5.393 16.179-11.556 22.342-18.49 16.949 8.475 34.668 18.49 44.683 33.898ZM499.936 585.085c-3.081-16.949-10.015-32.357-20.03-46.224 10.785 4.622 21.571 8.474 32.357 11.556 8.474 2.311 22.341 10.015 30.816 6.933 13.867-4.622 9.244-30.045 5.392-43.913 5.393 1.541 10.016 3.082 15.408 3.082 6.164 12.326 10.786 24.653 13.868 37.75 3.081 13.096 6.163 32.356 2.311 45.453-3.082 18.49-28.505 11.556-41.602 7.704-14.637-5.393-26.964-12.326-38.52-22.341ZM382.065 461.05c-8.475 2.311-16.949-1.541-26.194 0-10.015 2.311-19.26 6.163-29.275 3.852-.77-.77-.77-.77-1.541 0h-.77c-10.786-2.311-20.801-8.474-30.046-15.408-8.474-5.393-16.949-11.556-24.653-18.489-7.704-6.934-20.03-17.72-22.341-29.276-2.311-11.556 5.393-22.341 9.245-33.127 2.311-7.704 3.081-13.867 1.54-22.342-1.54-7.704-2.311-10.785-.77-18.489 1.541-9.245 3.852-9.245 10.015-14.638 6.163-5.393 7.704-10.015 10.015-16.949 8.475-25.423 38.52-17.719 58.551-15.408 20.801 2.312 50.846 1.541 61.632 23.112 0 .771.77.771.77.771 14.638 10.015 26.194 23.112 37.75 37.749 6.163 7.705 10.786 14.638 8.474 24.653-.77 3.852-3.852 7.704-4.622 11.556-.77 2.312-1.541 4.623-1.541 6.934 0-.771-.77-2.311-1.541-3.082-2.311-2.311-4.622-2.311-6.933 0-1.541 1.541-2.312 3.082-2.312 5.393 0 6.163 6.934 6.934 10.016 3.082-.771 5.393-.771 11.556-1.541 16.949-1.541 15.408-9.245 21.571-23.112 26.964-5.393 3.081-9.245 6.163-13.097 10.785-5.393 6.163-9.245 13.867-17.719 15.408Zm-39.291 177.192c-20.03 11.556-40.831 7.704-53.157-13.097-1.541-2.311-2.311-3.852-3.082-6.163v-.77c-6.163-16.179-6.163-34.668-6.163-51.617 0-19.26 1.541-38.52 10.786-55.469 8.474-15.408 20.8-28.505 34.668-39.29 1.54 0 3.852.77 5.392.77 8.475.771 16.949-3.081 25.424-4.622 8.474 10.015 6.933 26.964 8.474 39.29 1.541 13.867 4.622 29.275-3.082 41.602-.77.77.771 1.541 1.541.77 10.786-15.408 5.393-36.209 4.623-53.928-.771-8.474 0-22.341-6.164-28.505h1.541c.771 3.082 2.312 3.852 4.623 6.934 6.163 6.934 11.556 13.867 15.408 21.571 7.704 14.638 11.556 32.357 10.785 49.306-1.541 35.438-21.571 74.729-51.617 93.218ZM143.241 537.32c-9.245 1.541-18.49 3.081-27.735 3.081-6.933 0-23.112-.77-28.504-7.704-5.393-6.933-1.541-20.03-.77-27.734 1.54-10.015 5.392-19.26 10.014-28.505 9.245-17.719 22.342-32.357 37.75-43.142 31.586-21.571 80.122-32.357 115.56-16.179 4.622 6.164 10.015 12.327 16.178 16.949-7.704 38.52-33.897 67.795-67.024 84.744-17.72 9.245-36.98 15.408-55.469 18.49Zm-30.816-133.279c0-.771-.771-.771-1.541-.771-3.852-2.311-7.704-5.393-10.786-10.015-4.622-6.934-10.785-22.342-4.622-30.046 3.082-3.852 11.556-6.163 16.178-9.244 3.852-2.312 8.475-4.623 12.327-6.934 18.489-10.015 36.209-21.571 58.55-21.571 22.342-.771 45.454 2.311 67.795 3.852 0 3.081.771 6.163.771 9.244-20.031-6.163-46.995-3.081-65.484 7.704-.771.771 0 1.541.77 1.541 11.556-2.311 23.112-6.163 34.668-6.933 10.015-.771 20.031 0 30.046.77v.77c1.541 7.705 2.311 13.868.77 19.261-16.949-2.312-36.209-.771-52.387 3.081-.77 0-.77 1.541 0 1.541 16.178 2.311 35.438 2.311 51.617-.77-.771 2.311-1.541 5.392-3.082 8.474-1.541 3.852-3.081 6.934-4.622 10.786-17.719 2.311-35.439 7.704-53.158 9.244-18.489 1.541-36.209 0-53.928-1.54-.77 0-.77 1.54 0 1.54 32.357 8.475 77.04 8.475 107.086-6.933-.771 1.541-.771 2.311-1.541 3.852-1.541 6.933-.77 13.867 2.311 20.03-23.882-8.474-51.617-6.163-76.269 1.541h-.771c-14.637-.77-38.52 0-54.698-8.474Zm39.29-181.045c0 15.408 3.852 30.046 10.015 43.913 17.72 37.75 53.928 48.535 90.137 56.239 0 .771 0 .771-.77 1.541h-.771c-15.408-.77-31.586-1.541-46.994-3.081-13.097-.771-26.194-2.312-39.29.77-8.475 2.311-16.949 6.163-24.653 10.786-17.719 0-30.816-11.556-42.372-23.883-11.556-12.326-23.883-26.193-27.735-43.913-9.244-48.535 50.847-50.076 82.433-42.372Zm31.587-65.484c6.933-1.54 16.948-.77 23.882 1.541 16.178 3.852 28.505 16.949 39.29 29.275 1.541 1.541 3.082 3.082 4.623 5.393 0 .771 0 .771.77 1.541 0 .77.771 1.541 1.541 1.541 19.26 24.653 32.357 55.469 23.112 87.055-.77 1.541 0 2.311 1.541 3.082-.771.77-1.541 2.311-2.311 3.081-2.312-17.719-12.327-36.979-20.801-51.617-.771-1.54-2.311 0-1.541.771 5.393 10.015 9.245 20.801 13.097 32.357 3.081 8.474 3.852 16.948 7.704 24.652-1.541 4.623-2.311 9.245-6.163 13.097-.771-10.015-7.704-20.03-13.097-27.734-6.163-9.245-13.867-16.179-22.342-23.112-.77-.771-2.311.77-1.541 1.541 7.704 7.704 15.408 16.948 21.572 26.193 4.622 7.704 7.704 17.719 12.326 24.653l-.77.77c-11.556-5.392-22.342-9.244-32.357-17.719-10.015-9.245-17.719-20.03-23.112-32.357 0-.77-1.541 0-1.541.771 8.474 23.112 29.275 47.765 53.928 52.387-2.311 1.541-3.852 3.082-6.163 5.393 0-.771-.771-.771-1.541-.771-29.275-6.163-60.091-13.096-79.351-40.06-11.556-16.179-16.949-36.209-16.949-55.469.77-.771.77-2.311 0-3.082 0-13.867 2.311-27.734 6.163-40.061 3.082-13.867 6.934-20.8 20.031-23.112Zm93.218-24.652c8.474-4.623 25.423-10.016 34.668-6.934 10.015 3.082 20.03 16.949 26.194 25.423 26.964 36.979 32.356 89.367 3.081 126.346-5.393-.771-11.556-1.541-16.949-1.541 10.016-21.571 0-49.306-13.096-67.025-.771-.77-1.541 0-1.541.771 6.163 9.244 10.785 20.8 13.097 31.586 2.311 11.556 0 22.342-.771 33.898-1.541 0-3.081 0-4.622-.771-9.245-.77-18.49-1.541-27.735 1.541-3.081.77-5.392 2.311-7.704 4.622 8.475-33.897-5.392-65.484-26.193-90.907-7.704-21.571.77-46.994 21.571-57.009Zm150.998-43.143s.771 0 0 0c3.082-.77 6.164-.77 8.475.77 6.163 3.853 10.786 15.409 13.867 22.342 7.704 16.179 11.556 33.898 12.327 52.387-12.327 5.393-24.653 14.638-35.439 23.112-9.245 6.934-17.719 14.638-20.801 26.964-6.163 23.883 10.786 61.632-10.785 80.122-3.852-3.852-8.475-6.934-13.097-9.245 16.949-22.341 16.178-53.157 10.015-79.351-.77-1.541-3.082-.77-3.082.77 2.312 16.179 4.623 31.587 0 47.765-3.081 10.015-8.474 19.26-10.785 30.046-6.934-2.311-14.638-3.852-21.571-4.623-3.852-.77-7.704-.77-11.556-1.54 20.801-27.735 23.112-62.403 13.096-93.989v-.771c0-16.178 10.016-33.127 18.49-46.994 9.245-14.638 20.03-28.505 33.127-38.52 6.164-3.082 12.327-7.704 17.719-9.245Zm45.454 77.811c0 1.54 2.311 2.311 3.852 1.54.771.771 1.541 2.312 2.311 4.623 4.623 1.541 6.164 4.622 5.393 8.474 0 .771 0 3.082.771 4.623.77 2.311.77 3.081 3.081 5.392 2.311 1.541 4.623 1.541 6.934 2.312 7.704 3.081 10.015 7.704 10.785 16.178.771 13.097 0 25.423-6.933 36.979-7.704.771-14.638 2.311-21.571 4.623-16.949 4.622-26.964 16.948-36.98 31.586-3.081 3.852-6.163 8.474-10.015 13.097 1.541-6.163 3.852-12.327 6.163-17.719 5.393-10.786 11.556-20.801 18.49-29.276.77-.77-.77-2.311-1.541-1.54-13.867 15.408-27.734 36.208-29.275 57.78-2.311 4.622-3.852 10.015-3.852 14.637-3.852-3.852-7.704-7.704-12.327-11.556 13.097-17.719 16.949-43.913 15.408-66.254 0-.771-.77-.771-.77 0 .771 24.653-7.704 43.142-16.178 64.713-2.311-1.54-3.852-3.081-6.164-4.622-.77-1.541-1.54-2.311-2.311-3.852 10.786-9.245 13.097-26.194 12.327-40.061-.771-10.785-2.312-20.801-2.312-31.586.771-19.26 10.786-29.275 25.424-39.291 9.245-6.163 23.882-19.26 34.668-20.03 3.081-.77 3.852-.77 4.622-.77Zm97.071 118.641c3.852 19.26 1.54 34.668-10.786 49.306-7.704 10.015-17.719 17.719-29.275 23.112-26.964 13.097-58.551 9.245-83.203-8.474-3.852-8.475-10.786-15.408-16.949-21.572 7.704-7.704 15.408-16.949 23.882-24.653 10.015-9.244 20.801-16.178 31.587-23.882 1.54-1.541 0-3.852-1.541-3.082-20.801 11.556-41.602 28.505-56.24 48.536v-1.541c-6.163-12.327 13.868-33.127 20.801-43.143 10.786-15.408 23.112-24.652 41.602-26.964 30.046-3.852 71.647-6.933 80.122 32.357ZM411.34 443.331c.771 0 .771-.77 0 0 .771-1.541 2.311-1.541 3.082-2.311 10.015-3.852 16.949-4.623 22.341-14.638 15.408 24.653 14.638 67.795 48.536 74.729 7.704 1.541 15.408 0 23.112 0 13.096-.77 21.571 3.852 32.356 9.245.771.77 1.541.77 2.312 1.541 3.081 9.244 4.622 18.489 3.852 27.734-.771 15.408-13.097 12.326-23.112 10.015-16.949-4.622-33.898-10.015-49.306-17.719-.77 0-1.541-.77-2.311-.77-14.638-7.704-27.735-18.49-39.291-31.587-13.096-15.408-32.356-34.668-21.571-56.239Zm156.391 68.566c-.77-.771-1.54-.771-2.311 0-6.933-.771-12.326-3.082-18.489-5.393-.771-.771-1.541-1.541-2.312-1.541-6.933-3.082-13.867-6.934-21.571-8.474-12.326-3.082-24.653 1.54-36.979-.771-31.586-6.163-30.046-50.076-46.224-73.188 0-.77-.77-.77-1.541-.77 3.082-9.245 2.311-18.49 3.852-28.505 1.541-12.327 10.015-22.342 7.704-34.668 8.475 5.393 17.719 9.245 27.735 11.556v.77c7.704 9.245 16.178 16.949 21.571 27.735 5.393 10.785 8.474 22.341 11.556 33.897 0 .771 1.541.771 1.541 0 0-22.341-12.327-46.994-29.276-60.861 8.475 1.541 16.179 1.541 24.653 0l20.801 16.178c0 .77.77.771 1.541 1.541 16.178 13.097 30.816 26.964 44.683 43.142 11.556 13.868 17.719 28.505 18.49 46.995 0 5.393 1.54 16.178 0 21.571-3.852 10.786-15.408 11.556-25.424 10.786Zm29.276-243.447c11.556 1.541 23.882 3.082 34.668 6.934 13.096 4.622 30.816 15.408 30.816 32.356 0 13.097-13.097 25.424-21.572 33.898-16.178 16.178-36.208 27.734-57.78 34.668-10.785 3.082-21.571 5.393-33.127 5.393-5.393 0-13.867-2.311-19.26.77-5.393-4.622-10.785-8.474-16.178-12.326 8.474-1.541 16.949-5.393 25.423-10.015 6.163-3.852 12.326-8.475 17.719-13.868 15.408 6.164 39.291 6.164 50.076-9.244.771-.771 0-2.312-1.541-1.541-6.933 3.081-13.096 7.704-20.8 9.245-8.475 2.311-16.949 2.311-25.424 0 6.164-6.164 10.786-13.868 14.638-21.572 2.311-6.163 3.852-13.096 3.852-20.03h.77c4.623-5.393 19.26-.77 26.194 0 6.163.77 13.097 2.311 19.26.77.77 0 .77-1.54 0-1.54-8.474-3.852-19.26-3.852-27.734-3.852-6.164 0-13.097-1.541-17.72 3.081 0-10.015-3.081-19.26-6.163-27.734-.77-2.311-2.311-3.852-3.081-5.393v-1.541c6.933 0 24.652 1.541 26.964 1.541Zm21.571-127.116c3.852 13.867-3.852 30.816-9.245 42.372-3.852 9.245-8.474 18.49-13.867 26.964-6.163 10.786-13.867 21.571-22.342 31.586-3.852 4.623-10.015 9.245-13.097 15.408-7.704-6.933-17.719-10.015-28.504-11.556 10.785-4.622 21.571-12.326 30.816-20.03 10.015-8.474 21.571-18.49 25.423-32.357 0-.77-.771-1.541-1.541-.77-8.474 10.015-15.408 20.03-24.653 28.505-10.785 9.244-22.341 15.408-33.897 23.882a93.943 93.943 0 0 0-20.801 0c4.622-9.245 6.163-19.26 5.393-30.046 0-6.933 0-15.408-3.852-21.571 4.622-9.245 31.586-16.178 39.29-19.26 11.556-4.622 23.882-7.704 35.438-11.556 2.312-.77 1.541-4.622-.77-3.852-18.49 4.623-36.979 11.556-53.928 19.26-6.163 3.082-18.49 5.393-21.571 13.097-.771 0-.771-.77-1.541-.77-1.541-.771-3.082-.771-4.622-1.541-4.623-2.311-7.704-3.082-10.016-9.245-1.54-4.622.771-6.934-3.081-11.556-.771-1.541-2.311-2.311-3.852-3.852 20.801-11.556 43.142-20.801 65.484-28.505 17.719-5.393 60.861-25.423 69.336 5.393Zm-120.953 0c13.097-10.015 26.194-19.26 40.061-26.194 9.245-4.622 57.009-26.193 46.224 5.393-9.245 1.541-18.49 5.393-26.194 7.704-23.112 7.704-46.224 16.179-67.795 26.964 3.082-3.852 5.393-8.474 7.704-13.867ZM466.039 8.054c23.112-.77 26.193 31.587 28.504 49.306 6.164 37.75 10.786 77.811-18.489 105.545-3.082-.77-6.163 0-9.245.771-.77-20.031-5.393-39.291-14.638-57.01-3.081-6.163-9.244-19.26-16.178-22.342-2.311-.77-4.622-.77-7.704-.77 0-13.867 0-26.964-1.541-40.831-.77-6.163-2.311-11.556-6.934-15.408 14.638-8.475 31.587-19.26 46.225-19.26ZM318.892 112.83c2.311-6.163 5.393-11.556 8.474-17.719 6.934-13.867 15.408-26.194 25.424-36.98 13.097-14.637 29.275-23.111 48.535-27.734 3.852-.77 7.704-1.54 11.556-.77.77 1.54 2.311 2.311 3.081 1.54 2.312 1.542 4.623 3.853 6.164 7.705 1.541 4.622 1.54 10.785 1.54 15.408 0 10.785.771 20.8.771 31.586-2.311.77-3.852 2.311-6.163 3.082-16.949 8.474-30.046 23.112-40.832 39.29-8.474 13.097-19.26 29.275-22.341 46.224-6.934-15.408-16.179-30.045-28.505-42.372-3.852-3.852-7.704-6.933-12.326-9.245 0-.77 0-1.54.77-2.311 1.541-3.081 2.311-5.393 3.852-7.704Zm-76.27-33.897c1.541-9.245 3.082-16.179 8.475-23.883 1.541-2.311 3.852-5.393 6.163-6.933 2.311-3.082 5.393-3.082 9.245-1.541 6.163-2.311 10.015-.77 11.556 4.622 6.163 10.786 10.785 23.112 15.408 34.668 5.393 11.556 13.097 22.342 16.178 35.439h-7.704c-13.097 1.54-26.964 5.392-37.749 13.867l-6.934 6.933c-6.163-7.704-13.097-15.408-20.03-21.571 1.54-13.867 3.081-27.734 5.392-41.601Zm-93.988 3.852c4.622.77 8.474 1.54 13.096 2.31 36.98 9.246 69.336 30.046 93.219 60.862-6.163 10.786-8.475 23.112-6.163 35.439l-.771-.771c-11.556-13.096-24.653-25.423-42.372-28.504-10.785-1.541-26.193-3.852-36.209 3.852-.77-6.934-4.622-13.097-6.933-18.49-3.082-6.934-4.623-14.638-10.015-20.03-.771-.771-2.312 0-2.312.77 0 6.934 3.852 13.097 6.934 19.26 3.082 6.934 5.393 14.638 10.015 20.03 0 0 .771 0 .771.771l-.771.77c-6.933 7.704-10.785 20.801-12.326 33.127-4.623-17.719-8.475-35.438-12.327-53.157-2.311-11.556-4.622-22.342-6.163-33.898-3.081-11.556-3.081-24.653 12.327-22.341ZM24.599 133.63c15.408-11.556 39.29-8.474 56.24-4.622 20.03 3.852 38.519 11.556 55.468 23.112.771.77 1.541.77 2.311 0 3.852 18.489 9.245 36.979 13.097 55.468 0 3.082 0 5.393-.77 7.704v2.312c-18.49-4.623-44.683-6.164-63.943 2.311-2.312-3.082-6.164-4.623-9.245-7.704-4.623-3.852-8.475-7.704-12.327-11.556-7.704-8.475-13.867-20.031-22.341-26.964-.77-.771-1.541 0-1.541.77 2.311 11.556 12.326 22.342 20.03 30.046 5.393 5.393 12.327 13.867 20.03 17.719-7.703 4.622-13.866 11.556-16.948 21.571-20.03-21.571-74.729-85.514-40.06-110.167Zm7.704 162.554c-9.245-10.785-30.045-33.127-23.882-49.305 0-4.623 2.311-6.934 6.933-6.934 3.082-3.081 6.934-3.081 10.016-1.541 3.852.771 7.704 3.082 11.556 3.852 8.474 3.082 16.948 6.164 25.423 8.475h.77v6.933c.77 20.801 13.867 36.98 26.964 50.847 11.556 13.097 24.653 24.653 40.831 27.734-4.622 2.312-9.244 4.623-13.867 7.704-8.474.771-16.178 1.541-24.653 2.311-16.948-18.489-42.372-28.504-60.09-50.076Zm9.245 117.872c-12.326-2.311-32.357-19.26-30.816-34.668.77-15.408 20.03-16.949 30.816-19.26 16.949-3.082 33.127-5.393 50.076-7.704h1.54c3.853-.771 7.705-.771 12.327-1.541a70601.35 70601.35 0 0 0-11.556 6.934c-13.097 9.244-2.311 33.127 6.934 42.372l2.311 2.311c-16.178.77-31.586 3.081-46.994 8.474-3.852 1.541-8.475 2.311-11.556 3.852-1.541 0-2.312-.77-3.082-.77ZM6.11 472.606c-6.164-12.326 13.096-40.061 23.882-46.224 22.342-13.097 53.928-16.949 79.351-17.719 13.097 6.934 30.046 8.474 45.454 9.245-24.653 10.015-46.224 27.734-60.091 51.617 0 0-.77 0-.77-.771-14.638-1.541-26.194 6.934-36.98 16.949-3.852 3.082-7.704 6.934-11.556 10.015-13.867-1.541-32.357-10.015-39.29-23.112Zm7.704 77.04c-6.934-14.637 12.326-27.734 20.8-36.209 3.852-3.852 7.704-8.474 12.327-13.096.77 0 .77-.771.77-.771 12.327-13.097 27.735-26.964 43.913-26.193-1.54 3.081-3.082 6.933-4.622 10.785-4.623 11.556-10.016 28.505-8.475 42.372-12.326 4.623-27.734 19.26-30.816 33.898-11.556.77-28.505 2.311-33.897-10.786Zm59.32 35.439c-15.408-3.082-24.652-13.868-16.948-31.587 4.622-10.785 13.867-17.719 23.882-22.341 3.082 9.244 17.72 12.326 26.194 13.867 16.178 2.311 33.897 0 50.846-3.852-6.934 14.637-14.638 30.045-17.719 46.224-22.342 1.541-45.454 2.311-66.255-2.311Zm73.959 56.239c-4.623-8.475-6.163-25.423-6.163-34.668-.771-24.653 11.556-46.224 21.571-67.795 14.637-4.623 29.275-10.786 41.601-17.72 31.587-16.948 57.01-46.224 64.714-83.203l1.541 1.541c13.867 11.556 30.045 24.653 47.765 30.046-13.097 10.785-24.653 23.112-32.357 37.749-8.475 16.179-11.556 33.898-11.556 51.617-24.653 33.898-56.239 62.402-93.989 78.581-7.704 4.622-26.194 16.178-33.127 3.852Zm97.841 3.852c-6.934 3.852-13.868 6.933-21.572 10.015-1.54.77-3.852 1.541-6.163 1.541-5.393-3.082-10.015-6.163-15.408-9.245-1.541-4.622 3.082-12.326 5.393-16.178v-.771c26.194-16.178 49.306-37.749 67.795-62.402 0 14.637 1.541 33.127 6.934 48.535-11.556 10.786-23.883 20.801-36.979 28.505Zm106.315 20.801c-13.867 6.163-53.158-6.164-57.01-26.194 6.934 7.704 16.949 11.556 30.046 10.015 21.571-2.311 39.29-18.489 52.387-38.52-.77 21.571-4.622 46.224-25.423 54.699Zm135.59-17.72c-1.54 13.097-7.704 15.408-16.948 16.179-10.786.77-22.342.77-33.128-2.311-20.8-6.934-40.06-17.72-57.009-30.816 1.541-9.245 2.311-19.26 2.311-27.735 2.311-3.852 4.622-8.474 6.163-12.326 8.475 14.637 26.964 23.112 40.831 29.275 10.786 4.622 23.112 8.474 34.668 10.786 6.164 1.54 15.408 3.852 23.112 3.081-.77 3.852.771 9.245 0 13.867Zm9.245-34.668c-.77 9.245-4.622 13.097-12.326 13.868-13.867 1.54-32.357-4.623-45.454-10.016-14.637-5.392-41.602-16.948-47.765-33.897 1.541-4.623 3.082-10.015 4.623-14.638 4.622-19.26 4.622-39.29-.771-57.78-2.311-9.245-6.163-17.719-11.556-26.193-.77-1.541-9.244-13.097-14.637-17.72v-1.54c8.474.77 14.637 3.081 22.341-3.082 0 .77.771.77 1.541.77 9.245 0 16.949 25.424 20.03 33.128 3.852 9.244 6.164 19.26 10.786 28.504.771.771 1.541.771 1.541-.77-.77-14.638-7.704-29.275-13.867-41.602-3.852-7.704-8.475-21.571-18.49-21.571 3.852-3.852 7.704-8.474 10.786-13.097-3.852 15.408 4.622 30.046 14.637 42.372 15.408 17.72 31.587 32.357 50.847 43.143 10.785 13.097 18.489 27.734 23.112 44.683 2.311 7.704 3.081 16.178 3.081 23.882 2.312 4.623 2.312 7.704 1.541 11.556Zm89.367 4.623c-4.623 3.852-10.786 3.081-16.179 3.081-10.015.771-21.571.771-31.586-1.54-13.097-3.082-21.571-11.556-29.275-22.342 10.015 6.934 20.8 12.326 33.127 15.408 10.785 3.082 31.586 7.704 40.831-2.311 2.311-2.311 3.852-6.934 4.622-11.556 3.082 7.704 4.623 14.637-1.54 19.26Zm92.448-120.953c-10.786 6.934-14.638 10.786-14.638 25.423 0 9.245 2.311 18.49-.77 27.735-4.623 13.867-18.49 14.637-30.046 15.408-16.949 1.54-33.898 1.54-47.765-10.016h-.77c-3.082-13.096-6.934-26.193-13.097-38.52 5.393 0 10.786-.77 16.178-2.311 13.097-3.852 11.556-14.637 11.556-26.964 0-16.178-1.54-32.357-10.015-45.453-1.541-2.312-3.081-5.393-5.393-7.704 18.49 7.704 38.52 13.867 58.551 12.326h2.311c10.786 4.622 19.26 10.786 27.734 18.49 2.312 2.311 5.393 4.622 7.704 6.933 6.164 6.163 6.164 20.031-1.54 24.653Z" fill="#DAC6E1"/><path d="M301.943 290.021c.771-6.163-7.704-6.163-6.163-.77v.77c0 3.082 5.393 3.082 6.163 0ZM288.075 306.2c6.164 0 6.164-10.786 0-10.786-6.163 0-6.163 10.786 0 10.786ZM278.832 321.608c4.622 1.541 9.245-3.082 6.933-7.704-1.54-3.082-4.622-3.082-6.933-1.541l.77-.77c-2.311.77-3.852 2.311-3.852 4.622-.77 1.541.771 3.852 3.082 5.393ZM267.276 337.016l1.541 1.541c3.852 2.311 8.474-.771 8.474-5.393 0-4.623-4.622-7.704-8.474-5.393-.771 0-.771.77-1.541 1.541-.771 1.541-.771 1.541-.771.77-1.54 1.541-1.54 4.623 0 6.163 0-.77 0-.77.771.771ZM274.209 354.735c1.541-3.082 0-7.704-3.081-8.474h-.771c-.77 0-.77 0 0 0-2.311-2.312-5.393.77-5.393 3.081s.771 4.623 2.312 6.163c1.54 2.312 5.392 2.312 6.933-.77ZM271.127 370.143c-1.54-3.082-5.392-3.852-7.704-1.541l-.77.77c-3.081 3.082-.77 7.704 3.082 7.704h.77c3.852 0 6.163-3.852 4.622-6.933ZM264.193 384.01s-.77 0 0 0c-3.852-1.541-8.474 0-7.704 4.622 0 2.312 1.541 4.623 3.852 5.393 1.541.771 3.852 0 4.623-1.541 2.311-2.311 2.311-6.933-.771-8.474ZM263.423 400.959c-1.541-1.541-3.852-.771-5.393 0-2.311 1.541-3.081 4.622-1.54 7.704v.77c1.54 3.082 5.392 3.082 7.704 1.541 2.311-2.311 2.311-5.393.77-8.474-.77-1.541-1.541-1.541-1.541-1.541ZM279.601 417.137c-.77-4.622-7.704-4.622-9.245-.77-1.541 4.622 3.082 8.474 6.934 6.163 2.311-.77 2.311-3.081 2.311-5.393ZM288.846 430.234s0 .771 0 0c0 .771 0 0 0 0-.771 0-.771 0 0 0-.771 0-.771 0 0 0-1.541-2.311-4.623-3.852-6.934-1.541-2.311 3.082-2.311 7.704 1.541 9.245 2.311 1.541 5.393.771 6.163-1.541 1.541-2.311.77-4.622-.77-6.163ZM306.566 440.25c-.77 0-.77 0 0 0-3.852-1.541-6.934 1.54-6.934 5.392 0 3.082 3.082 6.163 6.934 5.393h.77c3.852-2.311 3.852-9.245-.77-10.785ZM317.352 446.413c-2.312 2.311-1.541 5.392.77 6.933 1.541 1.541 4.622 1.541 6.163.771 2.311-.771 3.852-4.623 2.311-6.934-2.311-3.082-6.933-3.852-9.244-.77ZM339.693 451.805c-2.311-.77-4.622-.77-6.163.771-1.541.77-3.082 3.081-1.541 5.392 1.541 3.082 4.623 4.623 8.475 3.082 3.852-.77 3.852-7.704-.771-9.245ZM362.035 444.872c-3.082-.771-5.393 0-6.934 3.081-1.541 3.082 0 6.164 3.082 6.934 1.541.77 3.081 0 4.622 0 4.623-.77 3.852-8.474-.77-10.015ZM382.836 439.479c-1.541-.771-3.082-.771-3.852 0-2.311.77-3.852 3.081-3.852 5.393 0 2.311 1.541 4.622 3.852 5.392 1.541 0 3.081.771 3.852 0 5.393-1.54 4.622-8.474 0-10.785ZM396.703 429.464c-6.163 0-6.163 10.785 0 10.785 6.933 0 6.933-10.785 0-10.785ZM411.341 418.678l-1.541.77s-.771.771-1.541.771c-3.082 2.311-3.082 6.933 0 9.245 2.311 1.54 4.623 1.54 6.163 0 2.312-1.541 3.082-3.082 3.082-5.393.77-3.852-3.082-6.163-6.163-5.393ZM420.584 404.811c-.77.771-.77 1.541-.77 2.311 0 0-.771 1.541 0 .771-2.311 3.081.77 6.163 3.852 6.933 4.622.771 8.474-5.392 5.393-9.244-2.312-3.852-6.164-3.852-8.475-.771ZM433.681 367.061c0 2.312.771 4.623 3.082 4.623 1.541.77 3.081 0 3.852-.771l2.311-2.311c1.541-3.081.77-6.163-2.311-7.704-3.082-1.541-6.163 0-6.934 3.082v3.081ZM425.978 349.342c-2.311-3.081-6.163-.77-6.934 2.311 0 3.082 1.541 4.623 3.852 6.164 1.541.77 3.082.77 3.852 0 1.541.77 3.082.77 5.393 0 3.852-2.312 3.082-8.475-1.541-10.016h-.77c-.77-.77-3.082 0-3.852 1.541ZM425.977 343.179c.77-3.082-.771-6.163-3.082-7.704-1.541-.771-3.852-.771-5.393 0-.77.77-1.54.77-1.54 1.541-.771 2.311-.771 4.622.77 6.163 2.311 3.852 8.474 4.622 9.245 0ZM409.029 333.934c2.311 0 4.622-2.311 4.622-4.623 0-4.622-5.393-8.474-9.245-6.163-2.311 1.541-3.081 4.623-1.54 6.934.77 2.311 3.852 3.081 6.163 3.852ZM395.933 319.296c2.311.771 4.622-.77 4.622-3.852 0-3.081-.77-4.622-3.081-6.933-3.082-2.311-8.475 1.541-6.934 5.393.771 3.081 2.311 4.622 5.393 5.392ZM382.836 307.741c4.622 0 6.163-4.623 4.622-7.704v-.771c-1.541-3.081-6.163-3.852-8.474-.77-.771 1.541-1.541 2.311-1.541 3.852-.771 3.081 2.311 5.393 5.393 5.393ZM365.887 301.577c6.163 0 6.163-10.015 0-10.015-6.164 0-6.164 10.015 0 10.015Z" fill="#DAC6E1"/><path d="M353.56 297.725c1.541.771 3.082.771 4.623-.77l.77-.77c2.311-.771 3.082-4.623.77-5.393 0-.771-.77-1.541-1.54-2.311-2.312-3.082-6.934-1.541-8.475.77-1.541 3.082 0 7.704 3.852 8.474ZM325.054 291.562c1.541.771 3.082.771 3.852 0 0 3.852 4.623 6.934 7.704 4.623.771 0 .771-.771 1.541-.771.771-1.54.771-1.54.771-.77.77 0 .77-.77.77-.77v1.54c1.541 2.312 5.393 0 5.393-2.311s-3.852-4.622-5.393-2.311c0-.77-.77-1.541-1.541-1.541.771.771 0 .771-.77-.77-.771-.771-.771-.771-1.541-.771-1.541-1.54-3.852-.77-5.393.771 0-3.082-3.081-4.623-6.163-3.082h-.77c-1.541.771-1.541 4.623 1.54 6.163 0 0-.77 0 0 0ZM309.646 293.103c3.082 0 5.393-3.082 5.393-6.163 0-3.082-2.311-6.163-5.393-6.163-3.081 0-5.392 3.081-5.392 6.163 0 3.852 2.311 6.163 5.392 6.163ZM301.173 305.429c0 .771 0 .771 0 0 2.312 4.623 8.475 2.311 8.475-2.311 0-2.311-1.541-5.393-3.852-5.393-4.623-.77-8.475 4.623-4.623 7.704ZM300.403 312.363c0-5.393-6.934-6.934-9.245-2.311-.77 1.541-.77 3.081-.77 4.622.77 4.622 8.474 4.622 9.245 0 .77-.77.77-1.541.77-2.311Z" fill="#DAC6E1"/><path d="M293.47 318.526c-6.163 0-6.163 10.786 0 10.786s6.163-10.786 0-10.786ZM288.076 329.312l-.771-.771c-.77-.77-1.54-.77-3.081-.77h-.771c-3.081 0-5.392 3.082-5.392 5.393 0 3.081 2.311 5.393 5.392 5.393h.771c3.081 0 5.393-3.082 4.622-6.164.771-.77 0-2.311-.77-3.081Zm.77 4.622c0 .771 0 .771 0 0ZM284.223 354.735c4.623-1.541 5.393-8.475.771-10.015-4.623-1.541-8.475 3.081-6.163 7.704.77 1.54 3.081 2.311 5.392 2.311ZM276.52 360.128c-.771 1.541-.771 2.311-.771 3.852.771 6.933 9.245 6.933 10.015 0 0-1.541 0-2.311-.77-3.852-1.541-3.082-6.934-3.082-8.474 0ZM271.898 377.077c-.77 3.081 0 5.392 2.311 7.704.771.77 3.082.77 3.852 0 2.312-1.541 3.082-4.623 2.312-7.704-.771-3.852-6.934-3.852-8.475 0ZM272.668 396.337c1.541 6.163 10.015 3.081 8.475-2.312v-.77c-.771-6.163-10.016-3.852-8.475 3.082 0 0 0-.771 0 0ZM278.061 412.515c1.541.77 3.082 1.541 5.393 1.541 3.852 0 6.163-5.393 3.082-7.704-2.311-2.312-6.934-3.082-9.245 0-1.541 1.54-2.311 5.392.77 6.163ZM304.255 419.448c-.77-2.311-1.541-3.852-3.852-5.393-2.311-.77-4.622 0-5.393 2.312-.77 2.311 0 4.622.771 6.163 2.311 4.622 10.015 2.311 8.474-3.082ZM305.796 427.153c-2.312-.771-5.393 1.54-4.623 4.622.771 2.311 1.541 3.852 3.852 4.622 2.311 1.541 4.623 1.541 6.934-.77 1.541-1.541 1.541-3.082.77-4.622-1.541-3.082-4.622-3.852-6.933-3.852ZM335.84 439.479c3.852-1.541 3.852-6.163 0-7.704-1.541-.771-3.082-.771-5.393 0-5.393 0-5.393 8.474 0 8.474 2.311 0 3.852 0 5.393-.77ZM347.396 434.857c-.77.77-1.54 1.54-2.311 3.081v2.311c0 2.312 2.311 4.623 4.623 3.852 3.081 0 6.163-4.622 3.852-7.704-1.541-2.311-4.623-2.311-6.164-1.54ZM374.361 427.923c0-1.541-.77-2.311-2.311-3.081-1.541-.771-3.082-.771-4.623 0-1.54.77-2.311 1.54-3.081 3.081-3.082 3.852.77 8.475 4.622 6.934 1.541 0 2.311-1.541 3.852-2.311 1.541-.771 2.311-2.312 1.541-4.623ZM378.983 427.923c3.082 0 4.623-2.311 4.623-4.623 0-1.54-.771-2.311-1.541-3.081-1.541-1.541-3.852-1.541-6.163 0l-.771.77c-1.54 2.311.771 6.934 3.852 6.934ZM397.474 420.989c0-.77 0-.77 0 0 5.393-3.081 1.541-10.785-3.852-7.704h-.771c-4.622 2.312 0 10.016 4.623 7.704ZM406.717 414.056c.77-1.541 2.311-2.312 3.081-3.852 3.852-3.852-1.54-10.016-5.392-6.164-1.541 1.541-3.082 3.082-3.852 4.623-.771 1.541-.771 3.852.77 5.393 1.541 1.54 4.622 1.54 5.393 0ZM417.504 394.796c.77-4.623-3.852-7.704-6.934-4.623-2.311 2.311-2.311 6.934-.77 9.245 3.081 4.622 9.244.77 7.704-3.852v-.77Zm-.771.77c0 .77 0 .77 0 0 0 .77 0 0 0 0ZM429.06 365.521c-1.541-.771-2.312 0-3.082.77-1.541.77-2.311 3.082-2.311 4.622-1.541-.77-3.082-.77-4.623.771-.77.77-1.54 2.311-2.311 3.852 0 .77-.77.77-.77 1.541-.771 0-.771 0-1.541.77-2.311 1.541-3.082 3.852-3.082 6.934 0 2.311 2.312 3.081 4.623 3.081 2.311 0 3.081-2.311 3.081-3.852 0 1.541 0 0 .771-.77.77-.771.77-1.541.77-2.311h.771c1.54-.771 2.311-1.541 3.081-2.312.771-.77.771-.77.771-1.54 1.54.77 3.081.77 4.622-.771.77-.77 1.541-1.541 1.541-3.081 1.541-3.852.77-6.164-2.311-7.704ZM412.881 340.868c0-.77 0-.77 0 0-1.54-3.852-6.933-2.311-6.933 1.541 0 3.081 1.541 5.393 4.622 6.163 4.623.77 6.934-6.934 2.311-7.704ZM395.161 328.541c-2.311 0-3.852 2.311-3.852 4.623 0 3.081 1.541 4.622 3.082 6.933 1.54 1.541 4.622 1.541 6.163 0 1.541-1.541 1.541-4.622 0-6.163 0-.77 0-1.541-.771-1.541-.77-2.311-2.311-3.852-4.622-3.852ZM380.525 334.704c4.622 3.082 8.474-4.622 3.852-7.704-.771-.77-1.541-2.311-1.541-3.081-1.541-4.623-7.704-3.852-7.704.77 0 3.852 2.311 7.704 5.393 10.015Z" fill="#DAC6E1"/><path d="M366.657 312.363c0-.77 0-1.541-.77-1.541-.771-2.311-1.541-4.622-3.082-5.393-1.541-1.54-3.082-1.54-5.393-.77-1.541.77-2.311 3.082-1.541 4.622.771 2.312 2.312 3.852 3.852 5.393 1.541 1.541 3.082 2.311 5.393 1.541l.771-.77c0 3.081 1.54 5.392 3.852 7.704 3.081 3.081 8.474-.771 6.163-4.623v-4.622c-2.311-4.623-6.934-4.623-9.245-1.541Zm8.474 4.622c-.77 0 0 .771 0 0-.77.771-.77.771 0 0ZM340.463 304.659c.771 3.081 3.852 5.393 6.164 5.393 2.311 0 3.852-1.541 3.852-3.852 0-1.541-.771-3.082-2.312-3.852-1.54-5.393-8.474-3.082-7.704 2.311ZM335.841 302.348c-3.082-4.623-9.245-.771-6.934 4.622.771 1.541 1.541 2.311 3.082 3.082 4.622 2.311 7.704-4.623 3.852-7.704.77 0 .77.77 0 0Z" fill="#DAC6E1"/><path d="M321.974 309.281h.77c5.393 0 5.393-8.474 0-8.474h-.77c-2.312-.771-5.393 1.54-5.393 4.622s2.311 4.622 5.393 3.852ZM313.499 306.97c-2.312-.77-5.393 1.541-5.393 3.852s2.311 4.623 5.393 3.852c.77 0 .77 0 1.54-.77 3.082-1.541 3.082-6.163 0-6.934h-1.54ZM308.876 327.771l.771-.771c2.311-3.081-2.311-8.474-5.393-6.163l-.77.77c-2.312 1.541-3.082 4.623-.771 6.934 1.541 2.311 4.623 1.541 6.163-.77ZM298.861 340.868c3.082 1.541 5.393-.771 5.393-3.082 1.541-3.081-2.311-6.933-4.623-3.852-2.311.771-3.081 5.393-.77 6.934ZM295.78 347.801c0 .771 0 .771 0 0-2.311 3.852 2.312 8.475 5.393 6.163h.771c4.622-3.852-2.312-11.556-6.164-6.163ZM305.795 363.21c0-2.312-3.081-3.853-4.622-3.082-2.311.77-3.082 3.081-3.082 5.393v-.771c-.77 5.393 6.163 7.704 7.704 2.312.771-1.541 0-3.082 0-3.852ZM298.862 383.24c1.541.77 2.311 0 3.852-.771l.77-.77c3.082-3.082-1.54-9.245-5.392-5.393l-.771.77c-.77.771-1.541 2.312-.77 3.852 0 .771.77 1.541 2.311 2.312ZM300.403 394.796l1.541-1.541c3.081-3.852-1.541-9.245-5.393-6.163l-1.541 1.541c-3.852 3.852 1.541 10.015 5.393 6.163ZM292.699 370.913c0-4.622-6.934-3.852-6.164.771 1.541 3.081 6.164 2.311 6.164-.771ZM290.388 386.321c1.54-1.54 1.54-5.392-.771-6.163h-.77c-3.082-2.311-6.934 2.311-5.393 5.393v.77c2.311 1.541 5.393 1.541 6.934 0ZM291.159 396.336c-3.082-2.311-6.934 1.541-5.393 4.623v.77c3.081 5.393 10.015-2.311 5.393-5.393ZM315.81 407.893c-.771-.771-1.541-1.541-3.082-2.312-1.541-.77-3.082 0-3.852.771-1.541 1.541-1.541 3.852-.77 5.393.77 1.54 1.54 2.311 3.081 3.081 4.623 2.311 7.704-3.852 4.623-6.933Z" fill="#DAC6E1"/><path d="M301.942 402.5c4.623 0 4.623-7.704 0-7.704-4.622 0-4.622 7.704 0 7.704ZM324.285 424.071c4.622 3.852 10.015-4.623 4.622-8.475-1.54-.77-2.311-.77-3.852-.77-3.081 0-4.622 3.852-3.081 6.163 0 1.541.77 2.311 2.311 3.082ZM346.627 419.449c-3.081 0-4.622 1.541-6.933 3.081-3.082 3.082.77 9.245 4.622 6.934.77-.77 2.311-.77 3.082-.77 4.622-2.312 3.852-9.245-.771-9.245ZM362.034 423.301c.77 0 2.311.77 3.081.77 5.393 0 5.393-7.704 0-8.474-.77 0-2.311 0-3.081.77-3.852.77-3.852 6.163 0 6.934ZM380.525 417.908c.77 0 .77 0 .77-.771 2.311-1.54 3.082-4.622 1.541-6.933s-4.622-2.311-6.934-.771c-1.54.771-1.54 3.082-.77 4.623 0 0 0 .77 0 0-.77 4.622 3.082 6.163 5.393 3.852ZM392.85 406.352c0-.771.771-.771.771-1.541 1.541.77 3.852.77 5.393-1.541l.77-.77c.77-1.541.77-3.852-.77-5.393-1.541-.771-3.852-1.541-4.623 0-.77-.771-1.541-.771-2.311 0-3.082 1.541-3.852 3.852-3.852 6.933-2.311 3.852 3.082 5.393 4.622 2.312ZM398.243 377.076c-.77 1.541-.77 2.312-.77 3.852 0 4.623 5.392 5.393 6.933 2.312.771-.771.771-1.541.771-2.312 1.54 0 2.311-1.54 3.081-3.081l.771-.771c1.54-1.54 1.54-3.081 1.54-4.622 1.541 1.541 3.852 1.541 4.623-.77v-.771c2.311-3.852-3.852-7.704-6.163-3.852v3.082c-1.541-1.541-3.852-2.311-5.393-.771-1.541 1.541-3.082 2.312-3.082 4.623v1.541c-.77 0-1.541.77-2.311 1.54ZM414.421 360.898c.771.77 2.311.77 3.082 0 3.081-2.311 2.311-7.704-2.311-7.704-3.082 0-3.852 5.393-.771 7.704ZM397.472 360.898h2.312c5.392.77 6.933-6.163 2.311-8.475-.771 0-1.541-.77-2.311-.77-5.393-1.541-7.704 7.704-2.312 9.245Z" fill="#DAC6E1"/><path d="M389.769 360.898c1.541 0 3.082-.77 3.852-3.081.771-3.082.771-6.164-2.311-7.704-1.541-1.541-4.622 0-4.622 2.311-.771 1.541 0 3.081 0 4.622 0 2.311 1.541 3.852 3.081 3.852ZM385.146 338.556c-3.081.771-3.081 4.623-1.541 6.163 1.541 1.541 5.393 1.541 6.164-1.54v-.771c0-3.081-1.541-4.622-4.623-3.852 0 0 0-.77 0 0ZM395.161 365.521c-.771-1.541-2.311-1.541-3.082-1.541-3.081-.771-4.622 4.622-2.311 6.933 2.311 4.623 9.245-.77 5.393-5.392ZM395.161 387.862v-2.311c-.77-5.393-7.704-5.393-7.704 0v2.311c0 5.393 7.704 5.393 7.704 0ZM381.295 395.566s-.77 0 0 0c-1.541.77-2.311 2.311-2.311 3.082 0 .77 0 1.54.77 1.54.771 1.541 2.312 1.541 3.852 1.541h.771c3.852-.77 1.54-8.474-3.082-6.163ZM368.967 339.327s0 .77 0 0c.771 6.163 7.704 6.163 7.704.77v-.77c1.541-5.393-8.474-5.393-7.704 0ZM360.495 322.378c-1.541 0-3.082 3.082-2.312 4.622.771 2.312 2.312 3.082 3.082 4.623 2.311 4.622 7.704.77 6.163-3.852-1.541-3.852-3.852-6.164-6.933-5.393ZM352.019 323.149c0-3.082-3.852-4.623-6.163-3.082-2.311 2.311-1.541 5.393.771 6.934l.77.77c2.311 2.311 6.163-.77 4.622-4.622ZM336.612 318.526c-1.541-2.311-4.622-3.081-6.163 0-1.541 2.311.77 6.164 3.081 6.164h1.541c3.082.77 3.852-3.853 1.541-6.164ZM321.203 321.608c-4.623 0-6.163 5.393-3.852 7.704 2.311 3.081 7.704.77 7.704-3.082v-.77c0-2.311-1.541-3.852-3.852-3.852ZM311.188 338.557s0 .77 0 0c0 6.163 7.704 6.163 7.704.77v-.77c0-5.393-7.704-5.393-7.704 0ZM315.81 356.276s0-.771 0 0c1.541-1.541 1.541-3.082 1.541-3.852.77-3.852-3.082-6.163-6.163-3.852-.771.77-2.311 1.541-2.311 3.081v.771c-1.541 3.852 4.622 6.933 6.933 3.852ZM316.581 366.291v-1.541c0-4.622-6.933-4.622-6.933 0v1.541c0 4.622 6.933 4.622 6.933 0ZM312.73 381.699c3.081.77 6.163-3.082 4.622-6.163 0-3.082-3.852-4.623-5.393-1.541-2.311 1.541-2.311 6.934.771 7.704ZM313.499 394.025c3.852 3.852 9.245-2.311 6.163-6.163l-.77-.77c-3.852-3.082-9.245 1.541-5.393 6.163-.77 0-.77.77 0 .77ZM325.826 405.582c1.541-.771 2.311-.771 3.852-1.541 2.311-1.541 1.541-4.623-.771-5.393-1.54-.77-2.311 0-3.852 0-2.311-.77-5.392 1.541-4.622 4.622 0 2.312 2.311 3.082 5.393 2.312ZM342.774 410.204c.771 0 .771 0 0 0 4.623 0 4.623-6.934.771-6.934h-.771c-5.392-1.541-5.392 8.474 0 6.934ZM355.101 411.744c1.541-.77 2.311-1.54 3.082-2.311 2.311-2.311 0-6.933-3.082-6.163-1.541.77-2.311 1.541-3.852 2.311-3.852 3.082 0 8.475 3.852 6.163ZM374.361 400.188c1.541-.77 2.311-1.54 3.081-3.081 1.541-3.082-1.54-6.934-4.622-5.393-1.541.77-1.541 1.541-3.082 3.082-3.081 4.622.771 8.474 4.623 5.392ZM381.295 378.617c-1.541-3.852-6.934-.77-6.163 2.311v1.541c1.54 4.623 7.704 2.311 6.933-1.541-.77-1.54-.77-2.311-.77-2.311ZM382.835 367.061c0-4.622-6.934-4.622-6.934 0v2.312c0 4.622 6.934 4.622 6.934 0v-2.312Z" fill="#DAC6E1"/><path d="M381.294 353.965c0-1.541-1.541-2.312-2.312-3.082h-2.311c-1.541 0-2.311 2.311-3.081 3.852 0 1.541 0 3.082.77 4.622 2.311 5.393 9.245 2.312 6.934-3.081.77 0 .77-.771 0-2.311ZM367.427 340.868c-1.54-3.082-6.163-1.541-6.163 1.541 0 3.081 2.311 6.163 4.623 7.704-2.312-.771-4.623.77-4.623 3.081 0 1.541 0 3.082.771 3.852 1.54 6.164 10.785 2.312 7.704-3.081-.771-1.541-1.541-2.311-2.312-3.082l-.77-.77c3.852 1.541 6.934-3.852 3.082-6.934-1.541 0-1.541-.77-2.312-2.311ZM355.872 337.786c-.77 0-.77-.77-1.541-.77-3.081-2.311-7.704 3.081-4.622 6.163.77.77 1.541 1.541 2.311 1.541 1.541 1.541 3.852 0 4.623-1.541 1.54-2.311.77-4.622-.771-5.393ZM342.004 335.475c-5.393-1.541-7.704 6.934-2.311 8.474.77 0 1.54 0 2.311.771 5.393 1.541 6.933-6.934 2.311-8.475-.77 0-1.541-.77-2.311-.77ZM335.84 350.112c0-.77 0-.77 0 0 3.082-4.622-1.54-9.245-5.392-6.163-2.312 1.541-3.082 4.622-.771 6.934 1.541 1.54 4.623 1.54 6.163-.771ZM323.515 357.816c-.77.771-.77.771 0 0-2.311 3.082-.77 6.163 1.541 6.934 2.311.77 4.623-.771 6.163-3.082v-.77c.771-2.311-.77-4.623-2.311-5.393-2.311 0-4.622.77-5.393 2.311ZM322.745 375.535c0 .771 0 .771.77 1.541.77 2.311 3.082 3.852 4.622 3.082 2.312-.771 3.852-3.082 3.082-5.393 0-.77-.77-1.541-.77-2.311-2.312-4.623-8.475-1.541-7.704 3.081ZM339.693 390.173c2.311-3.082.77-6.934-3.082-7.704h-1.541c-2.311-1.541-5.393 0-6.163 2.311-.77 3.082.77 5.393 3.082 6.934 2.311.77 6.163 0 7.704-1.541ZM352.02 392.485c1.541-3.082-.77-6.164-3.852-5.393h-.77c-.771 0-.771 0 0 0-4.623-1.541-6.934 6.163-2.312 7.704 3.082.77 6.164 0 6.934-2.311ZM365.116 378.617c-1.541 1.541-2.311 3.082-3.082 4.623-1.541 1.541 0 4.622 1.541 5.393 2.311 1.54 3.852 0 5.393-1.541.77-1.541 2.311-3.082 3.081-4.623.771-1.54 0-3.852-1.54-4.622-2.312-.77-4.623-.77-5.393.77ZM372.82 367.831s-.77-1.54-.77-.77c-.771-4.622-6.934-5.393-6.934 0 0 2.311.771 5.393 2.311 6.934 3.082 4.622 9.245-1.541 5.393-6.164ZM356.641 351.653c0-2.311-3.081-4.622-5.393-3.852h-1.54c-3.852-.77-6.934 4.623-3.082 7.704 1.541.771 3.852 1.541 5.393 1.541 3.081-.77 5.393-2.311 4.622-5.393ZM341.234 363.98c.771 0 .771-.771.771-1.541 3.852-2.311.77-10.015-3.852-8.475-3.852.771-6.163 4.623-3.852 8.475 2.311 3.081 5.393 3.081 6.933 1.541ZM340.463 376.306c2.312 2.311 5.393 1.541 6.164-1.541.77-2.311 0-3.852-1.541-5.392-.77-1.541-2.311-2.312-3.852-1.541-2.311.77-3.082 3.081-2.311 4.622 0 2.311.77 3.082 1.54 3.852ZM362.804 377.076c2.312-1.54 2.312-3.852 1.541-6.163-.77-1.541 0-3.081-1.541-4.622-1.54-.771-3.081-1.541-4.622-.771 0-2.311-.77-4.622-3.852-4.622h-1.541c-4.622 0-4.622 7.704 0 7.704h3.082c0 1.541 0 3.852.77 5.393-.77-.771-1.541-.771-3.081 0-.771.77-2.312 1.541-3.082 1.541-4.622 2.311-3.082 9.244 2.311 8.474 2.311 0 3.852-1.541 5.393-3.852.77-.77.77-2.311 0-3.082 2.311.771 3.852.771 4.622 0ZM305.025 269.991c2.312-13.097-1.54-28.505-5.392-40.831 0-.771-1.541-.771-1.541.77 3.852 13.867 3.081 26.964 5.393 40.831 0 0 1.54 0 1.54-.77ZM341.233 271.532c10.015-15.408 8.474-37.75 3.081-53.928 0-.771-2.311-.771-1.54.77 4.622 19.26.77 34.668-3.082 53.158-.77 0 .77.77 1.541 0ZM374.361 211.44c6.933 20.801-6.934 40.832-7.704 60.862 0 .77 1.54 1.541 1.54.77 5.393-10.015 6.934-23.112 9.245-34.668 1.541-10.015 1.541-18.489-2.311-26.964 0-1.54-1.541-1.54-.77 0ZM509.951 306.97c-23.882 1.541-49.305 15.408-69.336 29.275-.77.771 0 2.311.771 1.541 21.571-14.638 44.683-20.03 68.565-28.505.771-.77.771-2.311 0-2.311ZM517.655 326.23c-21.571 9.245-42.372 16.179-64.714 22.342-.77 0-.77 1.541 0 1.541 22.342 0 46.995-7.704 65.484-20.801 1.541-1.541.771-3.852-.77-3.082ZM480.676 426.382c.77.77 1.541 0 1.541-.77-3.852-8.475-10.016-16.179-13.868-25.424-4.622-10.785-7.704-22.341-9.244-34.668 0-1.54-2.312-1.54-2.312 0 1.541 20.801 7.704 46.995 23.883 60.862ZM445.237 392.485c0-1.541-2.311-.771-2.311 0 2.311 27.734 15.408 58.55 39.29 73.188.77.77 1.541-.771.77-1.541-18.489-21.571-32.356-41.602-37.749-71.647ZM449.089 498.029c.771.771 1.541-.77 1.541-1.541-3.081-6.163-7.704-11.556-10.785-16.948-3.082-6.934-5.393-13.868-6.934-21.572 0-1.54-3.082-.77-2.311.771 1.541 13.097 6.933 31.586 18.489 39.29ZM385.917 470.295c11.556 28.505 20.031 60.091 34.668 87.055.771 1.541 2.312 0 2.312-.77-5.393-30.046-21.572-60.091-33.898-87.826-1.541-1.541-3.852 0-3.082 1.541ZM324.285 479.54c-15.408 19.26-30.046 45.453-26.964 71.647 0 .77 1.541.77 1.541 0 6.163-25.423 10.015-49.306 26.193-70.877.771-.77 0-1.541-.77-.77ZM344.315 485.703c-1.541 10.785-1.541 20.801-4.622 31.586-3.082 11.556-10.015 20.801-15.408 31.587-.771 1.54.77 2.311 2.311 1.54 15.408-13.097 26.194-43.913 20.801-64.713-.771-1.541-3.082-1.541-3.082 0ZM274.98 452.576c0-1.541-2.312-1.541-2.312 0 1.541 36.208-23.112 55.468-41.601 82.432-.771.771.77 2.312 1.541 1.541 24.652-19.26 46.224-50.846 42.372-83.973ZM262.653 537.32c10.786-21.572 19.26-41.602 33.898-60.862.77-1.541-.771-3.082-1.541-1.541-14.638 17.719-28.505 38.52-33.898 61.632 0 .771.771 1.541 1.541.771ZM189.465 420.219c16.178-2.311 30.816-4.623 46.994 0 1.541 0 2.311-2.311.77-2.311-15.408-3.852-33.127-5.393-47.764.77-1.541 0-.771 1.541 0 1.541ZM253.407 431.004c2.311-.77 1.541-4.622-.77-3.852-23.112 2.312-48.535 11.556-67.025 25.424-.77.77 0 1.54.77 1.54 10.786-4.622 21.572-10.015 32.357-13.867 11.556-3.852 23.112-6.163 34.668-9.245ZM205.643 483.392c-.77.77 0 1.54.771 1.54 20.03-8.474 41.601-26.964 51.617-46.994.77-1.541-1.541-3.852-3.082-2.311-7.704 7.704-13.867 16.949-21.571 24.653-8.475 8.474-18.49 15.408-27.735 23.112ZM134.766 299.266c19.26 8.474 37.749 16.178 59.321 14.638 1.54 0 1.54-2.312 0-2.312-20.031.771-36.98-7.704-54.699-15.408s-36.979-10.785-53.928-19.26c-.77-.77-2.311.771-1.54 1.541 13.096 12.327 33.897 13.867 50.846 20.801ZM140.929 269.221c8.475 7.704 17.719 14.637 26.194 22.341 1.541 1.541 3.081-.77 2.311-2.311-8.474-7.704-16.949-16.178-25.423-23.882-7.704-6.934-14.638-15.408-23.883-20.031-.77-.77-2.311.771-1.54 1.541 5.392 9.245 15.408 16.178 22.341 22.342ZM119.357 417.908c1.541 0 2.312-3.082.771-3.082-31.587-5.392-70.106 6.164-94.76 26.964-2.31 1.541.771 4.623 2.312 3.852 14.638-7.704 28.505-16.178 43.913-20.8 15.408-3.852 31.586-4.623 47.764-6.934ZM114.735 439.479c-11.556-2.311-21.571 0-33.127 2.311-13.097 2.311-26.964.77-40.06 3.852-1.542 0-1.542 3.082 0 3.082 23.111 6.163 49.305-5.393 72.417-6.164 1.541.771 2.311-2.311.77-3.081ZM63.89 158.283c16.949 3.081 30.816 6.933 46.994 13.867 11.556 5.393 22.342 10.786 34.668 14.638 1.541.77 2.312-1.541.771-2.312-14.638-9.244-30.816-16.178-46.224-23.112-11.556-5.392-23.883-9.244-36.209-6.163-1.54 0-1.54 2.311 0 3.082ZM197.168 128.237c12.326 7.704 21.571 20.801 29.275 32.357.77 1.541 3.082 0 2.311-1.541-6.933-10.785-13.097-21.571-22.341-30.045-8.475-6.934-18.49-11.556-27.735-17.72-.77-.77-1.541 0-1.541.771 2.312 9.245 13.097 12.326 20.031 16.178ZM355.871 156.742c-3.081-19.26 3.082-33.898 10.786-51.617 6.163-14.638 10.786-31.586 23.112-41.602.77-.77 0-2.31-.77-1.54-16.179 10.785-22.342 34.668-29.276 51.616-6.163 13.868-14.637 30.046-5.392 43.913.77 1.541 2.311.771 1.54-.77ZM459.105 111.288c-.77.771.771 1.541 1.541.771 14.638-20.801 8.474-51.617-1.541-73.188-.77-.77-1.541 0-1.541.77 2.312 13.097 6.934 25.423 7.704 38.52.771 12.326-2.311 22.342-6.163 33.127Z" fill="#DAC6E1"/></svg>