<svg width="400" height="386" fill="none" xmlns="http://www.w3.org/2000/svg"><path d="M384.729 262.577c-3.962-3.082-7.924-6.163-12.326-8.805 8.364-2.201 15.408-7.924 21.571-14.527 17.169-19.37-6.163-37.42-22.452-44.904 3.522-3.962 6.164-7.924 7.925-12.326 5.722-13.207-6.604-22.892-17.169-27.294-7.484-3.082-14.968-3.962-22.892-4.843-3.962-.44-11.446-2.641-16.289-.88 0-.44-.88-.881-1.32-.881 1.32-.88 2.641-2.201 3.081-2.641 1.321-1.321 2.642-3.082 3.962-4.843 2.201-2.641 4.403-5.282 6.163-8.364 4.843-6.603 8.805-14.087 12.327-21.571 4.842-10.125 13.207-26.414 4.842-36.98-4.402-5.722-10.565-6.603-16.728-6.163 3.081-10.125-3.962-14.087-13.207-11.886-13.647 3.082-25.974 11.006-37.42 19.37 4.843-16.288 1.321-35.218-1.761-52.387-1.76-9.245-4.842-20.69-14.967-22.452-4.843-.88-9.245 1.321-13.207 3.082-5.283 3.962-11.446 7.484-17.609 11.006-4.403-1.32-9.245.44-13.207 1.32-6.163 1.761-12.327 4.403-17.609 8.365-9.245 7.044-16.289 17.609-21.572 28.174-2.201 4.403-4.402 8.805-6.163 13.207-2.641-8.364-7.924-16.288-11.446-24.212-2.641-6.164-6.163-18.93-14.087-19.81-6.163-.881-11.886 7.483-14.528 12.766-2.201 4.843-2.641 11.006-3.521 16.288-.881 5.723-1.321 11.006-2.202 16.73-14.087-12.327-31.696-20.691-49.745-22.453-12.327-1.32-9.245 11.887-7.924 20.691.88 6.163 2.2 12.327 3.521 18.49-11.446-7.484-24.652-12.326-37.86-14.087-10.125-1.321-23.331-1.761-30.815 7.043-7.924 8.805-3.522 21.131.88 30.376 6.163 11.886 14.087 23.332 22.892 33.017-5.723-2.201-11.886-4.402-17.61-6.163-3.521-.88-6.603-1.761-9.684.44-6.163 4.402-4.843 14.088-2.201 19.81 4.842 10.126 13.647 20.251 22.011 27.295 7.484 6.603 16.729 11.005 23.332 18.049-4.842.44-9.685 1.321-14.527 2.201-8.365 1.321-19.37 1.321-26.854 6.604-12.327 9.244 1.76 26.854 12.766 30.816-5.282 2.201-9.685 5.282-13.207 11.005-4.402 7.484-11.886 14.088-5.282 22.452 5.282 7.044 12.766 11.446 21.13 13.207-6.603 4.842-11.886 10.125-16.288 15.848-3.522 4.843-4.842 10.566-.88 15.408 4.842 6.604 13.207 6.604 20.69 6.163 0 2.642.881 5.283 2.642 7.924 3.522 5.283 10.565 6.164 16.288 7.044 11.006 1.761 22.012 1.761 33.017.44-.44 3.522-.88 7.484-.44 11.006.44 6.163 1.321 14.528 3.962 19.81 2.642 5.283 6.604 3.962 11.006 2.201 7.044-2.201 14.087-5.282 20.691-8.804-1.761 3.522-2.201 6.603-.44 10.565 2.641 4.403 6.603 5.283 11.446 4.403 14.087-2.642 26.413-12.767 37.419-22.452.88 2.201 2.201 4.402 3.522 6.603-1.761 13.648 20.691 23.773 30.816 22.892 11.886-.88 17.169-10.565 19.81-21.131 12.767 9.245 28.175 18.93 44.023 19.37 5.283 0 13.207.441 17.609-3.521 4.402-4.403 2.201-11.446 2.642-17.169v-.441h.88c5.723-2.201 5.723-12.766 4.843-19.81 2.201 3.522 4.402 6.604 7.483 8.805 7.924 5.723 14.088 7.484 23.773 7.924 5.282 0 15.408 1.321 19.81-3.082 4.843-4.842 1.321-11.886-1.321-17.169 0 0 0-.44-.44-.44 0-5.723-.88-11.446-1.321-14.527 0-.441 0-.881-.44-1.321 9.245 6.163 20.691 5.723 31.256 3.962 11.446-1.761 16.729-7.044 16.289-19.81 0-5.283-.881-8.805 1.321-13.647 2.201-4.843 3.521-3.963 7.043-7.044 3.082-2.641 4.402-6.163 3.962-10.125-.88-6.164-5.723-9.685-9.685-13.207Zm9.685-47.545c7.484 11.886 0 20.691-8.804 28.615-16.289 14.527-38.3 7.484-56.35 0-3.962-4.843-8.804-8.805-12.766-13.207-3.522-3.522-7.044-6.603-11.006-9.685v-.44c3.522.44 10.125.88 10.566.88 3.081 0 6.163-.44 8.804-1.32.44 0 .881 0 1.321-.441 9.685 9.685 28.174 15.849 41.822 14.088.88 0 .88-.881 0-1.321-6.604-2.641-13.648-3.082-20.691-4.843-6.604-1.76-12.767-4.842-18.93-8.364 5.723-1.321 11.886-3.522 17.169-6.163 2.201-1.321 4.842-2.201 7.044-3.962.44.44.88.44 1.32 0 2.201-2.201 7.044 2.201 9.245 3.522 2.201 1.32 4.843 3.081 7.484 3.962.44 0 .88-.44.44-1.321-3.081-3.522-8.364-5.723-12.326-7.924-.881-.44-1.761-.881-2.642-.881 4.403-3.081 9.245-6.603 12.767-10.565 9.685 4.843 19.81 10.565 25.533 19.37ZM285.678 334.334c-1.761-9.685-5.723-18.49-11.446-26.414 6.163 2.642 12.326 4.843 18.489 6.604 4.843 1.32 12.767 5.723 17.61 3.962 7.924-2.642 5.282-17.169 3.081-25.093 3.082.88 5.723 1.761 8.805 1.761 3.522 7.043 6.163 14.087 7.924 21.571 1.761 7.484 3.522 18.49 1.321 25.973-1.761 10.566-16.289 6.604-23.773 4.403-8.364-3.082-15.408-7.044-22.011-12.767Zm-67.355-70.877c-4.843 1.321-9.685-.88-14.968 0-5.723 1.321-11.006 3.522-16.729 2.201-.44-.44-.44-.44-.88 0h-.44c-6.164-1.32-11.887-4.842-17.169-8.804-4.843-3.082-9.685-6.604-14.088-10.566-4.402-3.962-11.446-10.125-12.766-16.728-1.321-6.604 3.081-12.767 5.283-18.93 1.32-4.403 1.76-7.924.88-12.767-.88-4.402-1.321-6.163-.44-10.565.88-5.283 2.201-5.283 5.723-8.365 3.522-3.081 4.402-5.723 5.723-9.685 4.842-14.527 22.011-10.125 33.457-8.804 11.886 1.32 29.055.88 35.218 13.207 0 .44.441.44.441.44 8.364 5.723 14.967 13.207 21.571 21.571 3.522 4.402 6.163 8.364 4.842 14.087-.44 2.201-2.201 4.403-2.641 6.604-.44 1.32-.881 2.641-.881 3.962 0-.44-.44-1.321-.88-1.761-1.321-1.321-2.641-1.321-3.962 0-.88.88-1.321 1.761-1.321 3.081 0 3.522 3.962 3.963 5.723 1.761-.44 3.082-.44 6.604-.88 9.685-.881 8.805-5.283 12.327-13.207 15.408-3.082 1.761-5.283 3.522-7.484 6.164-3.082 3.521-5.283 7.924-10.125 8.804ZM195.871 364.71c-11.446 6.603-23.332 4.402-30.376-7.484-.88-1.321-1.32-2.201-1.761-3.522v-.44c-3.521-9.245-3.521-19.81-3.521-29.495 0-11.006.88-22.012 6.163-31.697 4.842-8.804 11.886-16.288 19.81-22.452.881 0 2.201.441 3.082.441 4.842.44 9.685-1.761 14.527-2.642 4.843 5.723 3.962 15.408 4.843 22.452.88 7.924 2.641 16.729-1.761 23.772-.44.441.44.881.88.441 6.164-8.805 3.082-20.691 2.642-30.816-.441-4.843 0-12.767-3.522-16.289h.88c.441 1.761 1.321 2.201 2.642 3.962 3.522 3.962 6.603 7.924 8.804 12.327 4.403 8.364 6.604 18.489 6.163 28.174-.88 20.251-12.326 42.702-29.495 53.268Zm-114.02-57.67c-5.282.88-10.565 1.761-15.847 1.761-3.962 0-13.207-.44-16.289-4.403-3.081-3.962-.88-11.445-.44-15.848.88-5.723 3.082-11.005 5.723-16.288 5.283-10.125 12.767-18.49 21.571-24.653 18.05-12.326 45.784-18.49 66.034-9.245 2.642 3.522 5.723 7.044 9.245 9.685-4.402 22.012-19.37 38.74-38.3 48.425-10.125 5.283-21.13 8.805-31.696 10.566Zm-17.608-76.16c0-.44-.44-.44-.88-.44-2.202-1.321-4.403-3.082-6.164-5.723-2.641-3.962-6.163-12.767-2.641-17.169 1.76-2.201 6.603-3.522 9.245-5.283 2.2-1.32 4.842-2.641 7.043-3.962 10.566-5.723 20.69-12.326 33.458-12.326 12.766-.44 25.973 1.321 38.74 2.201 0 1.761.44 3.522.44 5.283-11.446-3.522-26.854-1.761-37.42 4.402-.44.44 0 .881.441.881 6.603-1.321 13.207-3.522 19.81-3.962 5.723-.441 11.446 0 17.169.44v.44c.88 4.402 1.321 7.924.44 11.006-9.685-1.321-20.691-.441-29.935 1.761-.441 0-.441.88 0 .88 9.244 1.321 20.25 1.321 29.495-.44-.44 1.321-.881 3.081-1.761 4.842-.88 2.202-1.761 3.962-2.641 6.164-10.126 1.32-20.251 4.402-30.376 5.282-10.566.881-20.69 0-30.816-.88-.44 0-.44.88 0 .88 18.49 4.843 44.023 4.843 61.192-3.962-.441.881-.441 1.321-.881 2.201-.88 3.962-.44 7.925 1.321 11.446-13.647-4.842-29.495-3.521-43.583.881h-.44c-8.364-.44-22.011 0-31.256-4.843Zm22.451-103.453c0 8.804 2.202 17.168 5.723 25.093 10.126 21.571 30.816 27.734 51.507 32.136 0 .441 0 .441-.44.881h-.44c-8.805-.44-18.05-.881-26.854-1.761-7.484-.44-14.968-1.321-22.452.44-4.842 1.321-9.685 3.522-14.087 6.163-10.126 0-17.61-6.603-24.213-13.647-6.603-7.043-13.647-14.968-15.848-25.093-5.283-27.734 29.055-28.615 47.104-24.212Zm18.05-37.42c3.962-.88 9.685-.44 13.647.88 9.245 2.202 16.288 9.686 22.452 16.729.88.881 1.76 1.761 2.641 3.082 0 .44 0 .44.44.88 0 .441.44.881.881.881 11.005 14.087 18.489 31.696 13.206 49.746-.44.88 0 1.32.881 1.761-.44.44-.881 1.32-1.321 1.76-1.32-10.125-7.043-21.131-11.886-29.495-.44-.88-1.321 0-.88.44 3.081 5.723 5.282 11.887 7.483 18.49 1.761 4.842 2.202 9.685 4.403 14.087-.881 2.642-1.321 5.283-3.522 7.484-.44-5.723-4.402-11.446-7.484-15.848-3.522-5.283-7.924-9.245-12.767-13.207-.44-.44-1.32.44-.88.881 4.402 4.402 8.805 9.685 12.326 14.967 2.642 4.403 4.403 10.126 7.044 14.088l-.44.44c-6.604-3.082-12.767-5.283-18.49-10.125-5.723-5.283-10.125-11.446-13.207-18.49 0-.44-.88 0-.88.44 4.842 13.207 16.729 27.294 30.816 29.936-1.321.88-2.201 1.761-3.522 3.081 0-.44-.44-.44-.88-.44-16.729-3.522-34.338-7.484-45.344-22.892-6.603-9.245-9.685-20.691-9.685-31.696.44-.44.44-1.321 0-1.761 0-7.924 1.32-15.848 3.522-22.892 1.76-7.924 3.962-11.886 11.446-13.207Zm53.267-14.087c4.843-2.642 14.528-5.723 19.811-3.962 5.723 1.76 11.446 9.685 14.968 14.527 15.408 21.131 18.489 51.067 1.76 72.198-3.081-.44-6.603-.881-9.685-.881 5.723-12.326 0-28.174-7.483-38.3-.441-.44-.881 0-.881.441 3.522 5.282 6.163 11.886 7.484 18.049 1.321 6.603 0 12.767-.44 19.37-.881 0-1.761 0-2.642-.44-5.282-.44-10.565-.881-15.848.88-1.761.441-3.081 1.321-4.402 2.642 4.842-19.37-3.082-37.42-14.968-51.947-4.402-12.327.44-26.854 12.326-32.577Zm86.285-24.653s.441 0 0 0c1.761-.44 3.522-.44 4.843.44 3.522 2.201 6.163 8.805 7.924 12.767 4.402 9.245 6.603 19.37 7.044 29.935-7.044 3.082-14.088 8.365-20.251 13.207-5.283 3.962-10.125 8.365-11.886 15.408-3.522 13.647 6.163 35.219-6.163 45.784-2.201-2.201-4.843-3.962-7.484-5.283 9.685-12.766 9.245-30.375 5.723-45.343-.44-.881-1.761-.44-1.761.44 1.321 9.245 2.641 18.049 0 27.294-1.761 5.723-4.843 11.006-6.163 17.169-3.962-1.321-8.365-2.201-12.327-2.641-2.201-.441-4.402-.441-6.603-.881 11.886-15.848 13.207-35.658 7.484-53.708v-.44c0-9.245 5.723-18.93 10.565-26.854 5.283-8.364 11.446-16.288 18.93-22.011 3.522-1.761 7.044-4.403 10.125-5.283ZM270.27 95.73c0 .88 1.32 1.32 2.201.88.44.44.88 1.321 1.321 2.642 2.641.88 3.521 2.641 3.081 4.842 0 .441 0 1.761.44 2.642.441 1.32.441 1.761 1.761 3.081 1.321.881 2.642.881 3.962 1.321 4.403 1.761 5.723 4.402 6.164 9.245.44 7.484 0 14.527-3.962 21.131a55.764 55.764 0 0 0-12.327 2.641c-9.685 2.642-15.408 9.685-21.131 18.05-1.761 2.201-3.522 4.842-5.723 7.483.881-3.521 2.201-7.043 3.522-10.125 3.082-6.163 6.603-11.886 10.566-16.728.44-.441-.441-1.321-.881-.881-7.924 8.805-15.848 20.691-16.729 33.017-1.32 2.642-2.201 5.723-2.201 8.365-2.201-2.202-4.402-4.403-7.043-6.604 7.483-10.125 9.685-25.093 8.804-37.86 0-.44-.44-.44-.44 0 .44 14.088-4.402 24.653-9.245 36.98-1.321-.881-2.201-1.761-3.522-2.642-.44-.88-.88-1.32-1.32-2.201 6.163-5.283 7.483-14.968 7.043-22.892-.44-6.163-1.32-11.886-1.32-18.049.44-11.006 6.163-16.729 14.527-22.452 5.283-3.522 13.647-11.005 19.81-11.446 1.761-.44 2.202-.44 2.642-.44Zm55.469 67.795c2.201 11.006.88 19.811-6.164 28.175-4.402 5.723-10.125 10.125-16.728 13.207-15.408 7.484-33.458 5.283-47.545-4.843-2.201-4.842-6.163-8.804-9.685-12.326 4.402-4.402 8.805-9.685 13.647-14.087 5.723-5.283 11.886-9.245 18.049-13.648.881-.88 0-2.201-.88-1.76-11.886 6.603-23.772 16.288-32.137 27.734v-.881c-3.522-7.043 7.924-18.929 11.886-24.652 6.164-8.805 13.207-14.088 23.773-15.408 17.169-2.201 40.941-3.962 45.784 18.489Zm-90.688 89.807c.441 0 .441-.44 0 0 .441-.881 1.321-.881 1.761-1.321 5.723-2.201 9.685-2.641 12.767-8.364 8.805 14.087 8.364 38.74 27.734 42.702 4.403.881 8.805 0 13.207 0 7.484-.44 12.327 2.201 18.49 5.283.44.44.88.44 1.321.88 1.761 5.283 2.641 10.566 2.201 15.849-.44 8.804-7.484 7.043-13.207 5.723-9.685-2.642-19.37-5.723-28.175-10.126-.44 0-.88-.44-1.32-.44-8.365-4.402-15.849-10.565-22.452-18.049-7.484-8.805-18.49-19.811-12.327-32.137Zm89.367 39.18c-.44-.44-.881-.44-1.321 0-3.962-.44-7.043-1.761-10.565-3.081-.44-.441-.881-.881-1.321-.881-3.962-1.761-7.924-3.962-12.326-4.842-7.044-1.761-14.088.88-21.131-.44-18.05-3.522-17.169-28.615-26.414-41.822 0-.44-.44-.44-.881-.44 1.761-5.283 1.321-10.566 2.202-16.289.88-7.044 5.723-12.767 4.402-19.81 4.842 3.081 10.125 5.283 15.848 6.603v.44c4.402 5.283 9.245 9.685 12.327 15.849 3.081 6.163 4.842 12.766 6.603 19.37 0 .44.88.44.88 0 0-12.767-7.043-26.854-16.728-34.778 4.842.88 9.245.88 14.087 0l11.886 9.244c0 .441.44.441.881.881 9.245 7.484 17.609 15.408 25.533 24.653 6.603 7.924 10.125 16.288 10.565 26.854 0 3.081.881 9.245 0 12.326-2.201 6.163-8.804 6.604-14.527 6.163ZM341.147 153.4c6.603.88 13.647 1.761 19.81 3.962 7.484 2.641 17.609 8.805 17.609 18.49 0 7.484-7.484 14.527-12.326 19.37-9.245 9.245-20.691 15.848-33.017 19.81-6.164 1.761-12.327 3.082-18.93 3.082-3.082 0-7.924-1.321-11.006.44-3.082-2.641-6.163-4.843-9.245-7.044 4.843-.88 9.685-3.081 14.528-5.723 3.522-2.201 7.043-4.842 10.125-7.924 8.805 3.522 22.452 3.522 28.615-5.283.44-.44 0-1.32-.881-.88-3.962 1.761-7.484 4.402-11.886 5.283-4.842 1.32-9.685 1.32-14.527 0 3.521-3.522 6.163-7.924 8.364-12.327 1.321-3.522 2.201-7.484 2.201-11.446h.44c2.642-3.081 11.006-.44 14.968 0 3.522.441 7.484 1.321 11.006.441.44 0 .44-.881 0-.881-4.843-2.201-11.006-2.201-15.848-2.201-3.522 0-7.484-.88-10.126 1.761 0-5.723-1.761-11.006-3.521-15.848-.441-1.321-1.321-2.202-1.761-3.082v-.88c3.962 0 14.087.88 15.408.88Zm12.326-72.638c2.201 7.924-2.201 17.61-5.283 24.213-2.201 5.283-4.842 10.565-7.924 15.408-3.522 6.163-7.924 12.326-12.766 18.049-2.202 2.642-5.723 5.283-7.484 8.805-4.403-3.962-10.126-5.723-16.289-6.604 6.163-2.641 12.327-7.043 17.609-11.446 5.723-4.842 12.327-10.565 14.528-18.489 0-.44-.44-.881-.881-.44-4.842 5.723-8.804 11.446-14.087 16.288-6.163 5.283-12.767 8.805-19.37 13.647a53.679 53.679 0 0 0-11.886 0c2.641-5.283 3.522-11.006 3.081-17.169 0-3.962 0-8.804-2.201-12.326 2.642-5.283 18.05-9.245 22.452-11.006 6.603-2.641 13.647-4.402 20.251-6.603 1.32-.44.88-2.642-.441-2.201-10.565 2.64-21.131 6.603-30.816 11.005-3.522 1.761-10.565 3.082-12.326 7.484-.44 0-.44-.44-.881-.44-.88-.44-1.761-.44-2.641-.881-2.641-1.32-4.402-1.76-5.723-5.282-.88-2.642.44-3.962-1.761-6.604-.44-.88-1.321-1.32-2.201-2.2 11.886-6.604 24.653-11.887 37.419-16.29 10.126-3.08 34.779-14.527 39.621 3.082Zm-69.116 0c7.484-5.723 14.968-11.005 22.892-14.968 5.283-2.64 32.577-14.967 26.414 3.082-5.283.88-10.566 3.082-14.968 4.402-13.207 4.403-26.414 9.245-38.74 15.408 1.761-2.2 3.081-4.842 4.402-7.924Zm-18.049-76.16c13.207-.44 14.968 18.05 16.288 28.175 3.522 21.572 6.163 44.463-10.565 60.312-1.761-.44-3.522 0-5.283.44-.44-11.446-3.082-22.452-8.364-32.577-1.761-3.522-5.283-11.006-9.245-12.767-1.321-.44-2.642-.44-4.402-.44 0-7.924 0-15.408-.881-23.332-.44-3.522-1.321-6.603-3.962-8.805 8.364-4.842 18.049-11.005 26.414-11.005Zm-84.084 59.872c1.321-3.522 3.082-6.604 4.843-10.125 3.962-7.924 8.804-14.968 14.527-21.131 7.484-8.365 16.729-13.207 27.735-15.849 2.201-.44 4.402-.88 6.603-.44.44.88 1.321 1.32 1.761.88 1.321.881 2.641 2.202 3.522 4.403.88 2.641.88 6.163.88 8.805 0 6.163.44 11.886.44 18.049-1.32.44-2.201 1.32-3.521 1.76-9.685 4.843-17.169 13.208-23.333 22.452-4.842 7.484-11.005 16.73-12.766 26.414-3.962-8.804-9.245-17.169-16.289-24.212-2.201-2.202-4.402-3.963-7.043-5.283 0-.44 0-.88.44-1.32.88-1.762 1.321-3.082 2.201-4.403Zm-43.583-19.37c.881-5.283 1.761-9.245 4.843-13.647.88-1.321 2.201-3.082 3.522-3.962 1.32-1.761 3.081-1.761 5.282-.88 3.522-1.321 5.723-.441 6.604 2.64 3.522 6.164 6.163 13.207 8.805 19.81 3.081 6.604 7.483 12.768 9.244 20.251h-4.402c-7.484.88-15.408 3.082-21.571 7.924l-3.962 3.963c-3.522-4.403-7.484-8.805-11.446-12.327.88-7.924 1.761-15.848 3.081-23.772Zm-53.707 2.2c2.64.441 4.842.881 7.483 1.322 21.131 5.282 39.621 17.169 53.268 34.778-3.522 6.163-4.842 13.207-3.522 20.25l-.44-.44c-6.603-7.484-14.087-14.528-24.213-16.288-6.163-.881-14.967-2.202-20.69 2.2-.44-3.961-2.642-7.483-3.962-10.565-1.761-3.962-2.642-8.364-5.723-11.446-.44-.44-1.321 0-1.321.44 0 3.962 2.201 7.484 3.962 11.006 1.76 3.962 3.082 8.364 5.723 11.446 0 0 .44 0 .44.44l-.44.44c-3.962 4.403-6.163 11.887-7.044 18.93-2.641-10.125-4.842-20.25-7.043-30.375-1.321-6.604-2.642-12.767-3.522-19.37-1.761-6.604-1.761-14.088 7.043-12.767ZM14.056 76.36c8.804-6.603 22.451-4.843 32.136-2.641 11.446 2.2 22.012 6.603 31.697 13.207.44.44.88.44 1.32 0 2.202 10.565 5.283 21.13 7.484 31.696 0 1.761 0 3.082-.44 4.402v1.321c-10.565-2.641-25.533-3.522-36.539 1.321-1.32-1.761-3.522-2.642-5.283-4.403-2.64-2.201-4.842-4.402-7.043-6.603-4.403-4.843-7.924-11.446-12.767-15.408-.44-.44-.88 0-.88.44 1.32 6.604 7.043 12.767 11.446 17.169 3.081 3.082 7.043 7.924 11.446 10.125-4.403 2.642-7.925 6.604-9.685 12.327C25.503 126.986-5.754 90.447 14.057 76.36Zm4.402 92.888c-5.283-6.163-17.169-18.93-13.647-28.174 0-2.642 1.32-3.962 3.962-3.962 1.76-1.761 3.962-1.761 5.723-.881 2.201.44 4.402 1.761 6.603 2.201 4.843 1.761 9.685 3.522 14.528 4.843h.44v3.962c.44 11.886 7.924 21.131 15.408 29.055 6.604 7.484 14.087 14.087 23.332 15.848-2.641 1.321-5.283 2.642-7.924 4.402-4.842.441-9.245.881-14.087 1.321-9.685-10.565-24.213-16.288-34.338-28.615Zm5.283 67.355c-7.044-1.32-18.49-11.005-17.61-19.81.44-8.805 11.446-9.685 17.61-11.006 9.685-1.761 18.93-3.081 28.615-4.402h.88c2.201-.44 4.402-.44 7.044-.88l-6.604 3.962c-7.484 5.282-1.32 18.929 3.962 24.212L58.96 230c-9.245.44-18.05 1.761-26.854 4.842-2.201.881-4.843 1.321-6.603 2.201-.88 0-1.321-.44-1.761-.44Zm-20.25 33.458c-3.523-7.044 7.483-22.892 13.646-26.414 12.767-7.484 30.816-9.685 45.344-10.125 7.484 3.962 17.169 4.842 25.973 5.282-14.087 5.723-26.413 15.849-34.337 29.496 0 0-.44 0-.44-.441-8.365-.88-14.968 3.963-21.132 9.686-2.2 1.76-4.402 3.962-6.603 5.723-7.924-.881-18.49-5.723-22.452-13.207Zm4.401 44.023c-3.962-8.365 7.044-15.849 11.887-20.691 2.2-2.201 4.402-4.843 7.043-7.484.44 0 .44-.44.44-.44 7.044-7.484 15.849-15.408 25.094-14.968-.88 1.761-1.761 3.962-2.642 6.163-2.641 6.603-5.723 16.289-4.842 24.213-7.044 2.641-15.848 11.005-17.61 19.37-6.603.44-16.288 1.32-19.37-6.163Zm33.898 20.25c-8.804-1.761-14.087-7.924-9.685-18.049 2.641-6.164 7.924-10.126 13.647-12.767 1.761 5.283 10.125 7.044 14.968 7.924 9.245 1.321 19.37 0 29.055-2.201-3.962 8.364-8.364 17.169-10.125 26.414-12.767.88-25.974 1.32-37.86-1.321Zm42.262 32.137c-2.641-4.843-3.522-14.528-3.522-19.811-.44-14.087 6.604-26.413 12.327-38.74 8.364-2.641 16.728-6.163 23.772-10.125 18.049-9.685 32.577-26.414 36.979-47.545l.881.881c7.924 6.603 17.169 14.087 27.294 17.169-7.484 6.163-14.087 13.207-18.49 21.571-4.842 9.245-6.603 19.37-6.603 29.495-14.088 19.37-32.137 35.659-53.708 44.904-4.402 2.641-14.968 9.244-18.93 2.201Zm55.909 2.201c-3.962 2.201-7.924 3.962-12.326 5.723-.881.44-2.201.88-3.522.88-3.082-1.761-5.723-3.521-8.805-5.282-.88-2.642 1.761-7.044 3.082-9.245v-.44c14.968-9.245 28.175-21.572 38.74-35.659 0 8.364.88 18.93 3.962 27.734-6.603 6.164-13.647 11.887-21.131 16.289Zm60.752 11.886c-7.924 3.522-30.376-3.522-32.577-14.968 3.962 4.403 9.685 6.604 17.169 5.723 12.326-1.32 22.451-10.565 29.935-22.011-.44 12.326-2.641 26.414-14.527 31.256Zm77.48-10.125c-.881 7.484-4.402 8.804-9.685 9.245-6.163.44-12.767.44-18.93-1.321-11.886-3.962-22.892-10.125-32.577-17.609.881-5.283 1.321-11.006 1.321-15.848 1.32-2.202 2.641-4.843 3.522-7.044 4.842 8.364 15.408 13.207 23.332 16.729 6.163 2.641 13.207 4.842 19.81 6.163 3.522.88 8.805 2.201 13.207 1.761-.44 2.201.44 5.282 0 7.924Zm5.283-19.81c-.441 5.282-2.642 7.483-7.044 7.924-7.924.88-18.49-2.642-25.974-5.723-8.364-3.082-23.772-9.685-27.294-19.37.881-2.642 1.761-5.723 2.642-8.365 2.641-11.005 2.641-22.451-.441-33.017-1.32-5.283-3.521-10.125-6.603-14.968-.44-.88-5.283-7.484-8.364-10.125v-.88c4.842.44 8.364 1.76 12.766-1.761 0 .44.441.44.881.44 5.283 0 9.685 14.527 11.446 18.93 2.201 5.282 3.522 11.005 6.163 16.288.44.44.88.44.88-.44-.44-8.364-4.402-16.729-7.924-23.772-2.201-4.403-4.842-12.327-10.565-12.327 2.201-2.201 4.402-4.842 6.163-7.484-2.201 8.805 2.641 17.169 8.364 24.213 8.805 10.125 18.05 18.49 29.055 24.653 6.164 7.484 10.566 15.848 13.207 25.533 1.321 4.402 1.761 9.245 1.761 13.647 1.321 2.641 1.321 4.402.881 6.604Zm51.066 2.641c-2.641 2.201-6.163 1.761-9.245 1.761-5.723.44-12.326.44-18.049-.881-7.484-1.761-12.326-6.603-16.729-12.766 5.723 3.962 11.886 7.043 18.93 8.804 6.163 1.761 18.05 4.403 23.332-1.32 1.321-1.321 2.201-3.962 2.642-6.604 1.761 4.402 2.641 8.364-.881 11.006Zm52.828-69.116c-6.164 3.962-8.365 6.163-8.365 14.528 0 5.282 1.321 10.565-.44 15.848-2.641 7.924-10.565 8.364-17.169 8.804-9.685.881-19.37.881-27.294-5.723h-.44c-1.761-7.484-3.962-14.967-7.484-22.011 3.081 0 6.163-.44 9.245-1.321 7.484-2.201 6.603-8.364 6.603-15.408 0-9.245-.88-18.489-5.723-25.973-.88-1.321-1.761-3.082-3.081-4.403 10.565 4.403 22.011 7.925 33.457 7.044h1.321c6.163 2.641 11.005 6.163 15.848 10.566 1.32 1.32 3.081 2.641 4.402 3.962 3.522 3.521 3.522 11.446-.88 14.087Z" fill="#D8A574"/><path d="M172.539 165.726c.44-3.521-4.402-3.521-3.522-.44v.44c0 1.761 3.082 1.761 3.522 0ZM164.615 174.971c3.521 0 3.521-6.163 0-6.163-3.522 0-3.522 6.163 0 6.163ZM159.332 183.776c2.642.88 5.283-1.761 3.963-4.402-.881-1.761-2.642-1.761-3.963-.881l.441-.44c-1.321.44-2.201 1.321-2.201 2.641-.441.881.44 2.201 1.76 3.082ZM152.729 192.58l.88.881c2.202 1.321 4.843-.44 4.843-3.082 0-2.641-2.641-4.402-4.843-3.081-.44 0-.44.44-.88.88-.44.881-.44.881-.44.44-.881.881-.881 2.642 0 3.522 0-.44 0-.44.44.44ZM156.691 202.706c.88-1.761 0-4.403-1.761-4.843h-.44c-.44 0-.44 0 0 0-1.321-1.32-3.082.44-3.082 1.761s.44 2.641 1.321 3.522c.88 1.321 3.081 1.321 3.962-.44ZM154.93 211.51c-.88-1.761-3.082-2.201-4.402-.88l-.441.44c-1.76 1.761-.44 4.402 1.761 4.402h.441c2.201 0 3.521-2.201 2.641-3.962ZM150.968 219.434s-.441 0 0 0c-2.202-.88-4.843 0-4.403 2.642 0 1.32.881 2.641 2.201 3.081.881.44 2.202 0 2.642-.88 1.32-1.321 1.32-3.962-.44-4.843ZM150.528 229.119c-.881-.88-2.202-.44-3.082 0-1.321.881-1.761 2.642-.881 4.403v.44c.881 1.761 3.082 1.761 4.403.88 1.32-1.32 1.32-3.081.44-4.842-.44-.881-.88-.881-.88-.881ZM159.772 238.364c-.44-2.641-4.402-2.641-5.283-.44-.88 2.641 1.761 4.842 3.962 3.522 1.321-.44 1.321-1.761 1.321-3.082ZM165.055 245.848s0 .44 0 0c0 .44 0 0 0 0-.441 0-.441 0 0 0-.441 0-.441 0 0 0-.881-1.321-2.642-2.201-3.962-.88-1.321 1.761-1.321 4.402.88 5.282 1.321.881 3.082.441 3.522-.88.88-1.321.44-2.641-.44-3.522ZM175.18 251.571c-.44 0-.44 0 0 0-2.201-.88-3.962.881-3.962 3.082 0 1.761 1.761 3.522 3.962 3.081h.441c2.201-1.32 2.201-5.282-.441-6.163ZM181.344 255.093c-1.321 1.321-.881 3.082.44 3.962.881.88 2.641.881 3.522.44 1.321-.44 2.201-2.641 1.321-3.962-1.321-1.761-3.963-2.201-5.283-.44ZM194.11 258.174c-1.32-.44-2.641-.44-3.521.441-.881.44-1.761 1.761-.881 3.081.881 1.761 2.641 2.642 4.843 1.761 2.201-.44 2.201-4.402-.441-5.283ZM206.877 254.212c-1.761-.44-3.081 0-3.962 1.761-.88 1.761 0 3.522 1.761 3.962.88.441 1.761 0 2.641 0 2.642-.44 2.202-4.842-.44-5.723ZM218.763 251.131c-.88-.44-1.761-.44-2.201 0-1.321.44-2.201 1.761-2.201 3.081 0 1.321.88 2.642 2.201 3.082.881 0 1.761.44 2.201 0 3.082-.88 2.642-4.843 0-6.163ZM226.687 245.408c-3.522 0-3.522 6.163 0 6.163 3.962 0 3.962-6.163 0-6.163ZM235.052 239.245l-.881.44s-.44.44-.88.44a3.302 3.302 0 0 0 0 5.283c1.321.88 2.641.88 3.522 0 1.32-.881 1.761-1.761 1.761-3.082.44-2.201-1.761-3.522-3.522-3.081ZM240.334 231.321c-.44.44-.44.88-.44 1.32 0 0-.441.881 0 .441-1.321 1.76.44 3.521 2.201 3.962 2.641.44 4.842-3.082 3.081-5.283-1.32-2.201-3.521-2.201-4.842-.44ZM247.818 209.749c0 1.321.44 2.642 1.761 2.642.88.44 1.761 0 2.201-.44l1.321-1.321c.88-1.761.44-3.522-1.321-4.402-1.761-.881-3.522 0-3.962 1.76v1.761ZM243.416 199.624c-1.321-1.761-3.522-.44-3.962 1.321 0 1.761.88 2.641 2.201 3.522.881.44 1.761.44 2.201 0 .881.44 1.761.44 3.082 0 2.201-1.321 1.761-4.843-.881-5.723h-.44c-.44-.441-1.761 0-2.201.88Z" fill="#D8A574"/><path d="M243.415 196.102c.441-1.761-.44-3.522-1.761-4.402-.88-.44-2.201-.44-3.081 0-.44.44-.881.44-.881.88-.44 1.321-.44 2.642.441 3.522 1.32 2.201 4.842 2.642 5.282 0ZM233.731 190.819c1.32 0 2.641-1.32 2.641-2.641 0-2.641-3.081-4.843-5.283-3.522-1.32.881-1.761 2.642-.88 3.962.44 1.321 2.201 1.761 3.522 2.201ZM226.247 182.455c1.321.44 2.642-.44 2.642-2.201 0-1.761-.44-2.641-1.761-3.962-1.761-1.321-4.843.88-3.962 3.082.44 1.76 1.32 2.641 3.081 3.081ZM218.763 175.852c2.642 0 3.522-2.642 2.642-4.403v-.44c-.881-1.761-3.522-2.201-4.843-.44-.44.88-.88 1.321-.88 2.201-.441 1.761 1.32 3.082 3.081 3.082ZM209.078 172.33c3.522 0 3.522-5.723 0-5.723s-3.522 5.723 0 5.723Z" fill="#D8A574"/><path d="M202.034 170.129c.881.44 1.761.44 2.642-.44l.44-.441c1.321-.44 1.761-2.641.44-3.081 0-.44-.44-.881-.88-1.321-1.321-1.761-3.962-.88-4.843.44-.88 1.761 0 4.403 2.201 4.843ZM185.745 166.607c.881.44 1.761.44 2.202 0 0 2.201 2.641 3.962 4.402 2.641.44 0 .44-.44.88-.44.441-.88.441-.88.441-.44.44 0 .44-.44.44-.44v.88c.88 1.321 3.081 0 3.081-1.32 0-1.321-2.201-2.642-3.081-1.321 0-.44-.44-.881-.881-.881.441.441 0 .441-.44-.44-.44-.44-.44-.44-.88-.44-.881-.881-2.202-.44-3.082.44 0-1.761-1.761-2.641-3.522-1.761h-.44c-.881.44-.881 2.642.88 3.522-.44 0 0 0 0 0ZM176.941 167.487c1.761 0 3.081-1.76 3.081-3.521s-1.32-3.522-3.081-3.522-3.082 1.761-3.082 3.522c0 2.201 1.321 3.521 3.082 3.521ZM172.099 174.531c0 .44 0 .44 0 0 1.321 2.641 4.843 1.321 4.843-1.321 0-1.32-.881-3.081-2.202-3.081-2.641-.441-4.842 2.641-2.641 4.402ZM171.659 178.493c0-3.082-3.962-3.962-5.283-1.321-.44.881-.44 1.761-.44 2.642.44 2.641 4.842 2.641 5.283 0 .44-.44.44-.881.44-1.321Z" fill="#D8A574"/><path d="M167.697 182.015c-3.522 0-3.522 6.163 0 6.163s3.522-6.163 0-6.163ZM164.615 188.178l-.441-.44c-.44-.44-.88-.44-1.76-.44h-.441c-1.761 0-3.081 1.761-3.081 3.081 0 1.761 1.32 3.082 3.081 3.082h.441c1.76 0 3.081-1.761 2.641-3.522.44-.44 0-1.321-.44-1.761Zm.44 2.641c0 .441 0 .441 0 0ZM162.413 202.706c2.642-.881 3.082-4.843.441-5.723-2.642-.881-4.843 1.761-3.522 4.402.44.88 1.761 1.321 3.081 1.321ZM158.011 205.787c-.44.881-.44 1.321-.44 2.202.44 3.962 5.283 3.962 5.723 0 0-.881 0-1.321-.44-2.202-.881-1.761-3.962-1.761-4.843 0ZM155.371 215.472c-.441 1.761 0 3.082 1.32 4.403.44.44 1.761.44 2.201 0 1.321-.881 1.761-2.642 1.321-4.403-.44-2.201-3.962-2.201-4.842 0ZM155.81 226.478c.881 3.522 5.723 1.761 4.843-1.321v-.44c-.44-3.522-5.723-2.201-4.843 1.761 0-.44 0 0 0 0ZM158.892 235.723c.881.44 1.761.88 3.082.88 2.201 0 3.522-3.081 1.761-4.402-1.321-1.321-3.962-1.761-5.283 0-.88.88-1.321 3.082.44 3.522ZM173.86 239.685c-.44-1.321-.88-2.201-2.201-3.082-1.321-.44-2.641 0-3.082 1.321-.44 1.321 0 2.641.441 3.522 1.32 2.641 5.723 1.32 4.842-1.761ZM174.74 244.087c-1.32-.44-3.081.881-2.641 2.642.44 1.32.88 2.201 2.201 2.641 1.321.88 2.641.88 3.962-.44.881-.881.881-1.761.44-2.642-.88-1.761-2.641-2.201-3.962-2.201ZM191.909 251.131c2.201-.881 2.201-3.522 0-4.403-.881-.44-1.761-.44-3.082 0-3.082 0-3.082 4.843 0 4.843 1.321 0 2.201 0 3.082-.44ZM198.512 248.489c-.44.441-.88.881-1.32 1.761v1.321c0 1.321 1.32 2.641 2.641 2.201 1.761 0 3.522-2.641 2.201-4.402-.88-1.321-2.641-1.321-3.522-.881ZM213.921 244.527c0-.88-.441-1.32-1.321-1.76-.881-.441-1.761-.441-2.641 0-.881.44-1.321.88-1.761 1.76-1.761 2.202.44 4.843 2.641 3.963.88 0 1.321-.881 2.201-1.321.881-.44 1.321-1.321.881-2.642ZM216.562 244.527c1.761 0 2.641-1.32 2.641-2.641 0-.881-.44-1.321-.88-1.761-.881-.88-2.201-.88-3.522 0l-.44.44c-.881 1.321.44 3.962 2.201 3.962ZM227.128 240.565c0-.44 0-.44 0 0 3.082-1.761.88-6.163-2.201-4.402h-.44c-2.642 1.321 0 5.723 2.641 4.402ZM232.41 236.603c.44-.88 1.32-1.32 1.761-2.201 2.201-2.201-.881-5.723-3.082-3.522-.881.881-1.761 1.761-2.201 2.642-.44.88-.44 2.201.44 3.081.88.881 2.641.881 3.082 0ZM238.574 225.597c.44-2.641-2.202-4.402-3.963-2.641-1.32 1.321-1.32 3.962-.44 5.283 1.761 2.641 5.283.44 4.403-2.201v-.441Zm-.441.441c0 .44 0 .44 0 0 0 .44 0 0 0 0ZM245.177 208.869c-.881-.44-1.321 0-1.761.44-.88.44-1.321 1.761-1.321 2.641-.88-.44-1.761-.44-2.641.441-.44.44-.881 1.32-1.321 2.201 0 .44-.44.44-.44.88-.44 0-.44 0-.88.441-1.321.88-1.761 2.201-1.761 3.962 0 1.32 1.32 1.76 2.641 1.76s1.761-1.32 1.761-2.201c0 .881 0 0 .44-.44s.44-.88.44-1.321h.441c.88-.44 1.32-.88 1.761-1.32.44-.44.44-.44.44-.881.88.441 1.761.441 2.641-.44.44-.44.881-.88.881-1.761.88-2.201.44-3.522-1.321-4.402ZM235.932 194.782c0-.441 0-.441 0 0-.88-2.201-3.962-1.321-3.962.88 0 1.761.881 3.082 2.642 3.522 2.641.44 3.962-3.962 1.32-4.402ZM225.806 187.738c-1.32 0-2.201 1.32-2.201 2.641 0 1.761.881 2.642 1.761 3.962.88.881 2.641.881 3.522 0 .88-.88.88-2.641 0-3.522 0-.44 0-.88-.44-.88-.441-1.321-1.321-2.201-2.642-2.201ZM217.443 191.26c2.641 1.761 4.842-2.642 2.201-4.403-.441-.44-.881-1.32-.881-1.761-.88-2.641-4.402-2.201-4.402.441 0 2.201 1.321 4.402 3.082 5.723Z" fill="#D8A574"/><path d="M209.518 178.493c0-.44 0-.88-.44-.88-.44-1.321-.881-2.642-1.761-3.082-.88-.88-1.761-.88-3.082-.44-.88.44-1.32 1.761-.88 2.641.44 1.321 1.321 2.201 2.201 3.082.881.88 1.761 1.321 3.082.88l.44-.44c0 1.761.88 3.082 2.201 4.402 1.761 1.761 4.843-.44 3.522-2.641v-2.641c-1.321-2.642-3.962-2.642-5.283-.881Zm4.843 2.642c-.441 0 0 .44 0 0-.441.44-.441.44 0 0ZM194.55 174.091c.441 1.761 2.202 3.081 3.522 3.081 1.321 0 2.201-.88 2.201-2.201 0-.88-.44-1.761-1.32-2.201-.881-3.082-4.843-1.761-4.403 1.321ZM191.909 172.77c-1.761-2.641-5.283-.44-3.962 2.642.44.88.88 1.32 1.761 1.76 2.641 1.321 4.402-2.641 2.201-4.402.44.44.44 0 0 0Z" fill="#D8A574"/><path d="M183.985 176.732h.44c3.082 0 3.082-4.842 0-4.842h-.44c-1.321-.441-3.082.88-3.082 2.641 0 1.761 1.321 2.641 3.082 2.201ZM179.142 175.412c-1.321-.441-3.082.88-3.082 2.201 0 1.32 1.321 2.641 3.082 2.201.44 0 .44 0 .88-.44 1.761-.881 1.761-3.522 0-3.962h-.88ZM176.501 187.298l.44-.441c1.321-1.761-1.321-4.842-3.082-3.522l-.44.441c-1.321.88-1.761 2.641-.44 3.962.88 1.32 2.641.88 3.522-.44ZM170.778 194.782c1.761.88 3.081-.441 3.081-1.761.881-1.761-1.32-3.962-2.641-2.201-1.321.44-1.761 3.081-.44 3.962ZM169.017 198.744c0 .44 0 .44 0 0-1.32 2.201 1.321 4.842 3.082 3.521h.44c2.642-2.201-1.32-6.603-3.522-3.521ZM174.74 207.548c0-1.32-1.761-2.201-2.641-1.761-1.321.441-1.761 1.761-1.761 3.082v-.44c-.44 3.081 3.522 4.402 4.402 1.32.44-.88 0-1.76 0-2.201ZM170.778 218.994c.881.44 1.321 0 2.201-.44l.441-.44c1.761-1.761-.881-5.283-3.082-3.082l-.44.44c-.44.441-.881 1.321-.44 2.201 0 .441.44.881 1.32 1.321ZM171.659 225.598l.88-.881c1.761-2.201-.88-5.283-3.081-3.522l-.881.881c-2.201 2.201.881 5.723 3.082 3.522ZM167.256 211.951c0-2.642-3.962-2.202-3.522.44.881 1.761 3.522 1.32 3.522-.44ZM165.936 220.755c.88-.88.88-3.081-.44-3.522h-.441c-1.761-1.32-3.962 1.321-3.081 3.082v.44c1.32.881 3.081.881 3.962 0ZM166.376 226.478c-1.761-1.321-3.962.88-3.081 2.641v.441c1.761 3.081 5.723-1.321 3.081-3.082ZM180.463 233.082c-.441-.441-.881-.881-1.761-1.321-.881-.44-1.761 0-2.201.44-.881.881-.881 2.201-.441 3.082.441.88.881 1.32 1.761 1.761 2.642 1.32 4.402-2.202 2.642-3.962Z" fill="#D8A574"/><path d="M172.539 230c2.641 0 2.641-4.402 0-4.402-2.642 0-2.642 4.402 0 4.402ZM185.306 242.326c2.641 2.201 5.723-2.641 2.641-4.842-.88-.441-1.321-.441-2.201-.441-1.761 0-2.641 2.202-1.761 3.522 0 .881.44 1.321 1.321 1.761ZM198.073 239.685c-1.761 0-2.642.88-3.962 1.761-1.761 1.761.44 5.283 2.641 3.962.44-.44 1.321-.44 1.761-.44 2.641-1.321 2.201-5.283-.44-5.283ZM206.876 241.886c.441 0 1.321.44 1.761.44 3.082 0 3.082-4.402 0-4.842-.44 0-1.32 0-1.761.44-2.201.44-2.201 3.522 0 3.962ZM217.443 238.804c.44 0 .44 0 .44-.44 1.321-.88 1.761-2.641.88-3.962-.88-1.321-2.641-1.321-3.962-.44-.88.44-.88 1.761-.44 2.641 0 0 0 .441 0 0-.44 2.642 1.761 3.522 3.082 2.201ZM224.486 232.201c0-.44.44-.44.44-.881.881.441 2.201.441 3.082-.88l.44-.44c.44-.881.44-2.201-.44-3.082-.881-.44-2.201-.88-2.642 0-.44-.44-.88-.44-1.32 0-1.761.881-2.201 2.201-2.201 3.962-1.321 2.201 1.76 3.082 2.641 1.321ZM227.568 215.472c-.441.881-.441 1.321-.441 2.201 0 2.642 3.082 3.082 3.962 1.321.441-.44.441-.88.441-1.321.88 0 1.32-.88 1.761-1.761l.44-.44c.88-.88.88-1.761.88-2.641.881.88 2.201.88 2.642-.44v-.441c1.32-2.201-2.202-4.402-3.522-2.201v1.761c-.881-.88-2.201-1.321-3.082-.44-.88.88-1.761 1.321-1.761 2.641v.881c-.44 0-.88.44-1.32.88ZM236.812 206.227c.44.441 1.321.441 1.761 0 1.761-1.32 1.321-4.402-1.321-4.402-1.761 0-2.201 3.082-.44 4.402ZM227.127 206.227h1.321c3.081.441 3.962-3.521 1.32-4.842-.44 0-.88-.44-1.32-.44-3.082-.881-4.402 4.402-1.321 5.282Z" fill="#D8A574"/><path d="M222.725 206.228c.881 0 1.761-.441 2.202-1.761.44-1.761.44-3.522-1.321-4.403-.88-.88-2.641 0-2.641 1.321-.441.881 0 1.761 0 2.641 0 1.321.88 2.202 1.76 2.202ZM220.083 193.461c-1.76.44-1.76 2.641-.88 3.522.88.88 3.082.88 3.522-.881v-.44c0-1.761-.881-2.641-2.642-2.201 0-.44 0 0 0 0ZM225.806 208.869c-.44-.881-1.32-.881-1.761-.881-1.761-.44-2.641 2.642-1.32 3.962 1.32 2.642 5.282-.44 3.081-3.081ZM225.806 221.635v-1.32c-.44-3.082-4.402-3.082-4.402 0v1.32c0 3.082 4.402 3.082 4.402 0ZM217.883 226.038s-.44 0 0 0c-.881.44-1.321 1.32-1.321 1.761 0 .44 0 .88.44.88.441.881 1.321.881 2.202.881h.44c2.201-.441.88-4.843-1.761-3.522ZM210.839 193.901s0 .44 0 0c.44 3.522 4.402 3.522 4.402.44v-.44c.88-3.082-4.843-3.082-4.402 0ZM205.997 184.216c-.881 0-1.761 1.761-1.321 2.641.44 1.321 1.321 1.761 1.761 2.642 1.321 2.641 4.402.44 3.522-2.201-.881-2.202-2.201-3.522-3.962-3.082ZM201.154 184.656c0-1.76-2.201-2.641-3.522-1.76-1.321 1.32-.88 3.081.44 3.962l.44.44c1.321 1.32 3.522-.44 2.642-2.642ZM192.35 182.015c-.881-1.321-2.642-1.761-3.522 0-.881 1.321.44 3.522 1.761 3.522h.88c1.761.44 2.201-2.201.881-3.522ZM183.545 183.776c-2.642 0-3.522 3.081-2.202 4.402 1.321 1.761 4.403.44 4.403-1.761v-.44c0-1.321-.881-2.201-2.201-2.201ZM177.822 193.461s0 .44 0 0c0 3.522 4.402 3.522 4.402.44v-.44c0-3.082-4.402-3.082-4.402 0ZM180.463 203.586s0-.44 0 0c.88-.88.88-1.761.88-2.201.441-2.201-1.761-3.522-3.521-2.201-.441.44-1.321.88-1.321 1.761v.44c-.881 2.201 2.641 3.962 3.962 2.201ZM180.904 209.309v-.88c0-2.642-3.962-2.642-3.962 0v.88c0 2.641 3.962 2.641 3.962 0ZM178.703 218.114c1.76.44 3.521-1.761 2.641-3.522 0-1.761-2.201-2.641-3.082-.881-1.32.881-1.32 3.962.441 4.403ZM179.142 225.157c2.202 2.201 5.283-1.32 3.522-3.521l-.44-.441c-2.201-1.761-5.283.881-3.082 3.522-.44 0-.44.44 0 .44ZM186.186 231.761c.881-.44 1.321-.44 2.201-.881 1.321-.88.881-2.641-.44-3.081-.88-.44-1.321 0-2.201 0-1.321-.44-3.082.88-2.641 2.641 0 1.321 1.32 1.761 3.081 1.321ZM195.871 234.402c.44 0 .44 0 0 0 2.642 0 2.642-3.962.44-3.962h-.44c-3.081-.88-3.081 4.843 0 3.962ZM202.915 235.283c.88-.441 1.321-.881 1.761-1.321 1.321-1.321 0-3.962-1.761-3.522-.88.44-1.321.88-2.201 1.321-2.201 1.761 0 4.842 2.201 3.522ZM213.92 228.679c.881-.44 1.321-.88 1.761-1.761.881-1.761-.88-3.962-2.641-3.081-.88.44-.88.88-1.761 1.76-1.761 2.642.44 4.843 2.641 3.082ZM217.883 216.353c-.881-2.202-3.962-.441-3.522 1.32v.881c.88 2.641 4.402 1.32 3.962-.881-.44-.88-.44-1.32-.44-1.32ZM218.763 209.749c0-2.641-3.962-2.641-3.962 0v1.321c0 2.641 3.962 2.641 3.962 0v-1.321Z" fill="#D8A574"/><path d="M217.882 202.265c0-.88-.88-1.32-1.321-1.76h-1.32c-.881 0-1.321 1.32-1.761 2.201 0 .88 0 1.761.44 2.641 1.321 3.082 5.283 1.321 3.962-1.761.44 0 .44-.44 0-1.321ZM209.958 194.782c-.88-1.761-3.521-.881-3.521.88 0 1.761 1.32 3.522 2.641 4.402-1.321-.44-2.641.441-2.641 1.761 0 .881 0 1.761.44 2.201.88 3.522 6.163 1.321 4.402-1.76-.44-.881-.88-1.321-1.321-1.761l-.44-.441c2.201.881 3.962-2.201 1.761-3.962-.88 0-.88-.44-1.321-1.32ZM203.355 193.021c-.44 0-.44-.441-.88-.441-1.761-1.32-4.402 1.761-2.641 3.522.44.441.88.881 1.32.881.881.88 2.201 0 2.642-.881.88-1.32.44-2.641-.441-3.081ZM195.431 191.7c-3.082-.88-4.403 3.962-1.321 4.843.44 0 .88 0 1.321.44 3.081.88 3.962-3.962 1.32-4.843-.44 0-.88-.44-1.32-.44ZM191.909 200.064c0-.44 0-.44 0 0 1.761-2.641-.881-5.283-3.082-3.522-1.321.881-1.761 2.642-.44 3.962.88.881 2.641.881 3.522-.44ZM184.866 204.466c-.44.441-.44.441 0 0-1.321 1.761-.44 3.522.88 3.962 1.321.441 2.642-.44 3.522-1.76v-.441c.44-1.32-.44-2.641-1.321-3.081-1.32 0-2.641.44-3.081 1.32ZM184.426 214.592c0 .44 0 .44.44.88.44 1.321 1.761 2.201 2.641 1.761 1.321-.44 2.201-1.761 1.761-3.082 0-.44-.44-.88-.44-1.32-1.321-2.642-4.843-.881-4.402 1.761ZM194.11 222.956c1.321-1.761.44-3.962-1.761-4.402h-.88c-1.321-.881-3.082 0-3.522 1.32-.44 1.761.44 3.082 1.761 3.962 1.321.441 3.522 0 4.402-.88ZM201.154 224.277c.881-1.761-.44-3.522-2.201-3.082h-.44c-.44 0-.44 0 0 0-2.641-.88-3.962 3.522-1.321 4.403 1.761.44 3.522 0 3.962-1.321ZM208.638 216.353c-.881.88-1.321 1.761-1.761 2.641-.881.881 0 2.642.88 3.082 1.321.88 2.201 0 3.082-.881.44-.88 1.321-1.761 1.761-2.641.44-.88 0-2.201-.881-2.641-1.32-.441-2.641-.441-3.081.44ZM213.04 210.189s-.44-.88-.44-.44c-.44-2.641-3.962-3.081-3.962 0 0 1.321.44 3.082 1.321 3.962 1.76 2.642 5.282-.88 3.081-3.522ZM203.795 200.945c0-1.321-1.761-2.642-3.082-2.201h-.88c-2.201-.441-3.962 2.641-1.761 4.402.88.44 2.201.88 3.082.88 1.76-.44 3.081-1.32 2.641-3.081ZM194.991 207.988c.44 0 .44-.44.44-.88 2.201-1.321.441-5.723-2.201-4.843-2.201.441-3.522 2.642-2.201 4.843 1.321 1.761 3.082 1.761 3.962.88ZM194.551 215.032c1.32 1.321 3.081.881 3.521-.88.441-1.321 0-2.202-.88-3.082-.44-.88-1.321-1.321-2.201-.88-1.321.44-1.761 1.76-1.321 2.641 0 1.321.44 1.761.881 2.201ZM207.317 215.472c1.32-.88 1.32-2.201.88-3.522-.44-.88 0-1.761-.88-2.641-.881-.44-1.761-.88-2.642-.44 0-1.321-.44-2.642-2.201-2.642h-.88c-2.642 0-2.642 4.403 0 4.403H203.355c0 .88 0 2.201.44 3.081-.44-.44-.881-.44-1.761 0-.44.441-1.321.881-1.761.881-2.641 1.32-1.761 5.283 1.321 4.842 1.32 0 2.201-.88 3.081-2.201.441-.44.441-1.321 0-1.761 1.321.44 2.202.44 2.642 0ZM174.3 154.281c1.321-7.484-.88-16.289-3.081-23.333 0-.44-.881-.44-.881.441 2.201 7.924 1.761 15.408 3.082 23.332 0 0 .88 0 .88-.44ZM194.99 155.161c5.723-8.804 4.843-21.571 1.761-30.816 0-.44-1.321-.44-.88.44 2.641 11.006.44 19.811-1.761 30.376-.441 0 .44.44.88 0ZM213.92 120.823c3.962 11.886-3.962 23.332-4.402 34.778 0 .44.881.881.881.44 3.081-5.723 3.962-13.206 5.282-19.81.881-5.723.881-10.565-1.32-15.408 0-.88-.881-.88-.441 0ZM291.401 175.411c-13.647.881-28.175 8.805-39.621 16.729-.44.44 0 1.321.44.881 12.327-8.365 25.534-11.446 39.181-16.289.44-.44.44-1.321 0-1.321ZM295.803 186.417c-12.327 5.283-24.213 9.245-36.979 12.767-.441 0-.441.88 0 .88 12.766 0 26.854-4.402 37.419-11.886.88-.88.44-2.201-.44-1.761ZM274.672 243.647c.44.44.88 0 .88-.44-2.201-4.843-5.723-9.245-7.924-14.528-2.641-6.163-4.402-12.767-5.283-19.81 0-.881-1.32-.881-1.32 0 .88 11.886 4.402 26.854 13.647 34.778ZM254.421 224.277c0-.881-1.321-.44-1.321 0 1.321 15.848 8.805 33.457 22.452 41.822.44.44.88-.441.44-.881-10.565-12.326-18.489-23.772-21.571-40.941ZM256.622 284.588c.441.44.881-.44.881-.88-1.761-3.522-4.402-6.604-6.163-9.685-1.761-3.962-3.082-7.925-3.962-12.327 0-.88-1.761-.44-1.321.44.88 7.484 3.962 18.05 10.565 22.452ZM220.524 268.74c6.604 16.288 11.446 34.338 19.811 49.746.44.88 1.32 0 1.32-.44-3.081-17.169-12.326-34.338-19.37-50.186-.88-.881-2.201 0-1.761.88ZM185.306 274.023c-8.805 11.005-17.169 25.973-15.408 40.941 0 .44.88.44.88 0 3.522-14.528 5.723-28.175 14.968-40.501.44-.44 0-.881-.44-.44ZM196.752 277.544c-.881 6.164-.881 11.887-2.642 18.05-1.761 6.603-5.723 11.886-8.804 18.049-.441.881.44 1.321 1.32.881 8.805-7.484 14.968-25.093 11.886-36.98-.44-.88-1.76-.88-1.76 0ZM157.131 258.615c0-.881-1.321-.881-1.321 0 .881 20.69-13.206 31.696-23.772 47.104-.44.44.44 1.321.881.881 14.087-11.006 26.413-29.055 24.212-47.985ZM150.087 307.04c6.164-12.327 11.006-23.773 19.371-34.778.44-.881-.441-1.761-.881-.881-8.364 10.126-16.288 22.012-19.37 35.219 0 .44.44.88.88.44ZM108.266 240.125c9.244-1.321 17.609-2.641 26.853 0 .881 0 1.321-1.321.441-1.321-8.805-2.201-18.93-3.081-27.294.441-.881 0-.441.88 0 .88ZM144.804 246.288c1.321-.44.881-2.641-.44-2.201-13.207 1.321-27.734 6.604-38.3 14.528-.44.44 0 .88.44.88 6.163-2.641 12.327-5.723 18.49-7.924 6.603-2.201 13.207-3.522 19.81-5.283ZM117.51 276.224c-.44.44 0 .88.441.88 11.446-4.842 23.772-15.408 29.495-26.854.44-.88-.88-2.201-1.761-1.32-4.402 4.402-7.924 9.685-12.326 14.087-4.843 4.842-10.566 8.804-15.849 13.207ZM77.01 171.009c11.005 4.843 21.57 9.245 33.897 8.365.88 0 .88-1.321 0-1.321-11.446.44-21.131-4.402-31.257-8.805-10.125-4.402-21.13-6.163-30.816-11.005-.44-.441-1.32.44-.88.88 7.484 7.044 19.37 7.924 29.055 11.886ZM80.531 153.84c4.843 4.403 10.125 8.365 14.968 12.767.88.88 1.76-.44 1.32-1.321-4.842-4.402-9.684-9.244-14.527-13.647-4.402-3.962-8.364-8.804-13.647-11.446-.44-.44-1.32.441-.88.881 3.081 5.282 8.804 9.245 12.766 12.766ZM68.204 238.805c.88 0 1.321-1.761.44-1.761-18.049-3.082-40.06 3.521-54.148 15.408-1.32.88.44 2.641 1.321 2.201 8.364-4.403 16.288-9.245 25.093-11.886 8.805-2.202 18.05-2.642 27.294-3.962ZM65.563 251.131c-6.603-1.321-12.326 0-18.93 1.32-7.484 1.321-15.408.441-22.892 2.202-.88 0-.88 1.761 0 1.761 13.207 3.521 28.175-3.082 41.382-3.522.88.44 1.32-1.321.44-1.761ZM36.508 90.447c9.685 1.761 17.61 3.962 26.854 7.924 6.604 3.082 12.767 6.164 19.81 8.365.881.44 1.321-.881.441-1.321-8.364-5.283-17.61-9.245-26.414-13.207-6.603-3.081-13.647-5.282-20.69-3.522-.881 0-.881 1.321 0 1.761ZM112.667 73.278c7.044 4.403 12.327 11.887 16.729 18.49.44.88 1.761 0 1.321-.88-3.962-6.164-7.484-12.327-12.767-17.17-4.843-3.961-10.565-6.603-15.848-10.125-.44-.44-.881 0-.881.44 1.321 5.283 7.484 7.044 11.446 9.245ZM203.355 89.567c-1.761-11.006 1.761-19.37 6.163-29.496 3.522-8.364 6.164-18.049 13.207-23.772.44-.44 0-1.32-.44-.88-9.245 6.163-12.767 19.81-16.729 29.495-3.522 7.924-8.364 17.169-3.081 25.093.44.88 1.32.44.88-.44ZM262.346 63.593c-.44.44.44.88.88.44 8.365-11.886 4.843-29.495-.88-41.821-.44-.44-.881 0-.881.44 1.321 7.484 3.962 14.527 4.403 22.011.44 7.044-1.321 12.767-3.522 18.93Z" fill="#D8A574"/></svg>