<svg width="111" height="30" fill="none" xmlns="http://www.w3.org/2000/svg"><path d="M36.269 4c1.46-.534 2.922-.8 4.583-.8 4.185 0 7.905 1.933 10.362 4.933.333.4.532.933.532 1.467 0 .733-.332 1.4-.864 1.8v.066c-.398.267-.863.467-1.395.467-.73 0-1.395-.333-1.793-.867-.465-.6-1.063-1.133-1.727-1.6-1.462-1-3.189-1.666-5.115-1.666-1.063 0-2.06.2-2.99.533-1.793.667-3.387 2-4.383 3.6-.797 1.334-1.329 2.934-1.329 4.6 0 1.267.266 2.4.73 3.467a9.26 9.26 0 0 0 2.79 3.6c1.462 1.067 3.256 1.733 5.248 1.733 2.724 0 5.182-1.333 6.776-3.266.398-.534 1.063-.867 1.793-.867 1.262 0 2.325 1 2.325 2.333 0 .534-.199 1.067-.531 1.467-2.458 3.067-6.178 5-10.363 5-7.373 0-13.351-6-13.351-13.4 0-2.6.73-5.067 2.059-7.134C31.087 6.933 33.479 5 36.269 4ZM63.835 4c1.462-.534 2.923-.8 4.584-.8 4.185 0 7.904 1.933 10.362 4.933.332.4.532.933.532 1.467 0 .733-.332 1.4-.864 1.8v.066c-.398.267-.864.467-1.395.467-.73 0-1.395-.333-1.793-.867-.465-.6-1.063-1.133-1.727-1.6A8.544 8.544 0 0 0 68.419 7.8c-1.063 0-2.06.2-2.99.533-1.793.667-3.387 2-4.384 3.6-.797 1.334-1.328 2.934-1.328 4.6 0 1.2.266 2.4.73 3.467a9.26 9.26 0 0 0 2.79 3.6c1.462 1.067 3.255 1.733 5.182 1.733 2.723 0 5.181-1.333 6.775-3.266.399-.534 1.063-.867 1.794-.867 1.262 0 2.325 1 2.325 2.333 0 .534-.2 1.067-.532 1.467-2.458 3.067-6.177 5-10.362 5-7.373 0-13.352-6-13.352-13.334 0-2.6.73-5.066 2.06-7.133C58.653 7 61.044 5 63.834 4ZM85.623 24.867c2.458 3.067 6.178 5 10.362 5 7.374 0 13.286-6 13.286-13.4 0-2.6-.731-5.067-2.059-7.134a2.23 2.23 0 0 0-1.927-1.066c-1.262 0-2.258 1-2.258 2.333 0 .467.133.934.398 1.267.797 1.333 1.329 2.933 1.329 4.6a8.52 8.52 0 0 1-.731 3.467 9.258 9.258 0 0 1-2.79 3.6c-1.461 1.066-3.255 1.733-5.248 1.733-2.723 0-5.18-1.333-6.775-3.267-1.262-1.533-1.926-3.4-1.926-5.533 0-2.933 1.461-5.533 3.653-7.134 1.395-1 3.189-1.666 5.115-1.666 1.063 0 2.06.2 3.055.533.266.067.532.133.798.133 1.262 0 2.325-1 2.325-2.333 0-1-.598-1.867-1.528-2.133a12.997 12.997 0 0 0-4.584-.8C91.934 3.067 88.214 5 85.756 8a13.213 13.213 0 0 0-2.99 8.4 13.163 13.163 0 0 0 2.857 8.467ZM8.702 4c-.864.333-1.528 1.2-1.528 2.2 0 1.267.996 2.333 2.325 2.333.266 0 .531-.066.797-.133a8.902 8.902 0 0 1 3.056-.533c1.86 0 3.653.666 5.114 1.666L5.314 20a8.52 8.52 0 0 1-.73-3.467c0-1.666.464-3.266 1.328-4.6.2-.333.398-.866.398-1.333 0-1.267-.996-2.267-2.324-2.267-.798 0-1.528.467-1.927 1.067C.731 11.467 0 13.933 0 16.533c0 7.4 5.978 13.334 13.352 13.334 4.184 0 7.97-1.934 10.362-5 .332-.4.532-.867.532-1.467a2.315 2.315 0 0 0-2.325-2.333c-.731 0-1.395.333-1.794.866a8.657 8.657 0 0 1-6.775 3.267c-1.927 0-3.787-.667-5.182-1.733l15.146-12.134c.597-.4.93-1.066.93-1.8 0-.533-.2-1.066-.532-1.466-2.458-3-6.244-4.934-10.362-4.934-1.661 0-3.189.267-4.65.867ZM104.289 2.867a2.84 2.84 0 0 0 2.856 2.866 2.84 2.84 0 0 0 2.856-2.866A2.84 2.84 0 0 0 107.145 0a2.84 2.84 0 0 0-2.856 2.867Zm.531 0c0-1.267 1.063-2.334 2.325-2.334 1.262 0 2.325 1.067 2.325 2.334 0 1.266-1.063 2.333-2.325 2.333-1.262-.067-2.325-1.067-2.325-2.333Z" fill="#4B2C30"/><path d="M106.813 2.667h.199c.266 0 .598-.067.598-.4 0-.334-.332-.4-.598-.4h-.199v.8Zm-.598-1.2h.598c.598 0 1.328 0 1.328.733 0 .333-.199.6-.597.667.132 0 .265.133.332.266l.465 1.134h-.598l-.332-.867c-.067-.2-.133-.267-.399-.267h-.199v1.2h-.531V1.467h-.067Z" fill="#4B2C30"/></svg>