<svg width="90" height="90" fill="none" xmlns="http://www.w3.org/2000/svg"><path d="M45 56.737c-8.467 0-15.37-6.904-15.37-15.37 0-8.468 6.903-15.371 15.37-15.371 8.467 0 15.37 6.903 15.37 15.37-.022 8.467-6.903 15.37-15.37 15.37Zm0-27.39c-6.635 0-12.02 5.384-12.02 12.02C32.98 48 38.366 53.385 45 53.385S57.02 48 57.02 41.366 51.612 29.346 45 29.346Z" fill="#4B2C30"/><path d="M36.443 74.542h-.089c-.648-.044-1.229-.447-1.452-1.05l-2.19-5.429-5.786 1.14a1.682 1.682 0 0 1-1.675-.648 1.67 1.67 0 0 1-.134-1.787l8.69-16.242a1.711 1.711 0 0 1 2.279-.693 1.691 1.691 0 0 1 .693 2.28L29.74 65.248l3.664-.738a1.663 1.663 0 0 1 1.877 1.028l1.363 3.396 7.752-14.41a1.711 1.711 0 0 1 2.279-.693 1.711 1.711 0 0 1 .692 2.28l-9.45 17.559c-.29.536-.871.871-1.475.871ZM53.534 74.542a1.692 1.692 0 0 1-1.474-.871l-5.407-9.986c-.447-.805-.134-1.832.67-2.28.805-.446 1.832-.133 2.28.671l3.708 6.859 1.362-3.396a1.688 1.688 0 0 1 1.877-1.028l3.664.738-7.06-13.092c-.447-.804-.134-1.832.67-2.279a1.684 1.684 0 0 1 2.28.67L64.86 66.79c.313.58.268 1.273-.134 1.787a1.666 1.666 0 0 1-1.676.648l-5.786-1.14-2.19 5.43a1.684 1.684 0 0 1-1.452 1.05c-.022-.023-.044-.023-.089-.023Z" fill="#4B2C30"/><path d="M26.747 57.541c-.759 0-1.452-.536-1.63-1.296-.358-1.586-.067-3.24.849-4.669.514-.804.58-1.765.223-2.636a2.88 2.88 0 0 0-2.033-1.72c-2.904-.648-4.87-3.106-4.87-6.077s1.943-5.429 4.87-6.077a2.824 2.824 0 0 0 2.033-1.72 2.834 2.834 0 0 0-.223-2.636c-1.587-2.525-1.252-5.63.87-7.73 2.1-2.1 5.229-2.458 7.73-.872.805.514 1.766.581 2.637.224a2.881 2.881 0 0 0 1.72-2.033c.648-2.927 3.083-4.87 6.077-4.87 2.971 0 5.429 1.943 6.077 4.87a2.825 2.825 0 0 0 1.72 2.033c.871.357 1.832.29 2.636-.224 2.525-1.586 5.63-1.25 7.73.872 2.1 2.1 2.458 5.227.871 7.73a2.834 2.834 0 0 0-.223 2.636 2.881 2.881 0 0 0 2.033 1.72c2.904.648 4.87 3.105 4.87 6.077 0 2.971-1.943 5.429-4.87 6.077a2.824 2.824 0 0 0-2.033 1.72 2.834 2.834 0 0 0 .223 2.636c.827 1.318 1.14 2.77.939 4.222a1.668 1.668 0 0 1-1.9 1.408 1.668 1.668 0 0 1-1.407-1.899 2.827 2.827 0 0 0-.447-1.944c-1.072-1.72-1.273-3.842-.491-5.719a6.23 6.23 0 0 1 4.379-3.686c1.653-.38 2.256-1.698 2.256-2.815s-.58-2.435-2.256-2.815c-1.966-.447-3.62-1.832-4.38-3.686-.781-1.877-.58-4 .492-5.72.916-1.43.38-2.792-.402-3.574s-2.144-1.296-3.574-.402c-1.72 1.072-3.843 1.273-5.72.491a6.231 6.231 0 0 1-3.686-4.379c-.38-1.653-1.698-2.256-2.815-2.256s-2.435.58-2.815 2.256c-.446 1.966-1.832 3.62-3.686 4.38-1.877.781-3.999.58-5.72-.492-1.429-.916-2.792-.38-3.574.402s-1.295 2.145-.402 3.574c1.073 1.72 1.274 3.843.492 5.72a6.23 6.23 0 0 1-4.38 3.686c-1.652.38-2.256 1.698-2.256 2.815s.581 2.435 2.257 2.815c1.966.447 3.62 1.832 4.379 3.686.782 1.877.58 4-.492 5.72-.447.692-.58 1.407-.402 2.144.201.894-.357 1.81-1.251 2.01-.179 0-.313.023-.425.023Z" fill="#4B2C30"/></svg>