<svg width="90" height="90" fill="none" xmlns="http://www.w3.org/2000/svg"><path d="M32.143 72.321h-9.964a2.88 2.88 0 0 1-2.893-2.892v-47.25a2.88 2.88 0 0 1 2.893-2.893h6.75M53.036 19.286h6.75a2.88 2.88 0 0 1 2.893 2.892v16.393M49.821 20.893H32.143v-5.465a2.539 2.539 0 0 1 2.571-2.571H47.09a2.539 2.539 0 0 1 2.572 2.571v5.465h.16ZM36.964 45h17.679M36.964 32.143H56.25M36.964 51.428h11.25M36.964 38.571H51.43" stroke="#4B2C30" stroke-width="2.5" stroke-miterlimit="10" stroke-linecap="round" stroke-linejoin="round"/><path d="m25.714 46.285 2.09 2.411 4.339-4.178M25.875 32.625l2.09 2.25 4.017-4.018M42.107 74.732l-1.928.482-1.447-1.446.482-1.929c.483-2.732 1.929-5.143 3.858-7.071l20.089-20.09c1.768-1.767 4.5-1.767 6.268 0 .803.804 1.285 1.929 1.285 3.054 0 1.125-.482 2.25-1.285 3.054l-20.25 20.089c-1.929 1.928-4.5 3.375-7.072 3.857ZM61.714 45.803l6.268 6.268M50.786 56.732 57.054 63M64.286 55.928l2.571-2.57c.804-.804 2.25-.804 3.215 0 .803.803.803 2.25 0 3.213l-9.483 9.483M39.375 74.41l-2.571 2.733" stroke="#4B2C30" stroke-width="2.5" stroke-miterlimit="10" stroke-linecap="round" stroke-linejoin="round"/></svg>