<svg width="90" height="90" fill="none" xmlns="http://www.w3.org/2000/svg"><path d="M66.794 21.857H34.217V40.86h32.577V21.857Z" stroke="#4B2C30" stroke-width="2.5" stroke-miterlimit="10" stroke-linecap="round" stroke-linejoin="round"/><path d="M50.506 36.788a5.43 5.43 0 1 0 0-10.859 5.43 5.43 0 0 0 0 10.86ZM64.08 27.287c-1.63 0-2.715-1.086-2.715-2.715M36.932 35.43c1.629 0 2.715 1.087 2.715 2.715M36.932 27.287c1.629 0 2.715-1.086 2.715-2.715M64.08 35.43c-1.63 0-2.715 1.087-2.715 2.715M57.292 54.027l10.588-2.308c1.086-.271 2.308.272 2.715 1.222.407 1.086-.272 2.172-1.358 2.85l-18.46 7.738c-2.986 1.085-6.651 1.628-9.773 1.628-2.172 0-3.936-.271-6.108-.678L32.86 63.8M32.86 65.293l-4.072 2.715-9.502-17.646 4.072-2.715 9.502 17.646Z" stroke="#4B2C30" stroke-width="2.5" stroke-miterlimit="10" stroke-linecap="round" stroke-linejoin="round"/><path d="M41.004 57.15h12.895a3.36 3.36 0 0 0 3.393-3.394 3.36 3.36 0 0 0-3.393-3.394h-8.823l-1.222-.814c-2.714-2.036-6.108-3.258-9.637-3.258-2.172 0-4.344.407-6.38 1.357l-3.257 1.358" stroke="#4B2C30" stroke-width="2.5" stroke-miterlimit="10" stroke-linecap="round" stroke-linejoin="round"/></svg>