<svg width="90" height="90" fill="none" xmlns="http://www.w3.org/2000/svg"><path fill-rule="evenodd" clip-rule="evenodd" d="M49.336 24.065c-.86.013-1.441.225-1.953.737L21.555 50.63c-.883.883-.883 2.433 0 3.315l14.349 14.349c.882.882 2.43.883 3.313.002l.002-.002L64.892 42.47a1.59 1.59 0 0 1 .111-.102c.461-.384.73-1.04.643-1.738a1.388 1.388 0 0 1-.004-.035l-1.662-16.16a1.607 1.607 0 1 1 3.198-.33l1.66 16.146c.204 1.686-.41 3.41-1.714 4.533l-25.629 25.78-.003.003c-2.138 2.138-5.723 2.138-7.861 0L19.282 56.218c-2.138-2.138-2.138-5.723 0-7.861L45.11 22.529c1.284-1.284 2.795-1.679 4.308-1.679.058 0 .117.003.175.01l9.666 1.057a1.607 1.607 0 0 1-.35 3.195l-9.573-1.047Z" fill="#4B2C30"/><path fill-rule="evenodd" clip-rule="evenodd" d="M71.858 18.156a1.607 1.607 0 0 1-.014 2.273L60.366 31.767c.312.685.477 1.44.477 2.32a5.668 5.668 0 0 1-5.686 5.686 5.668 5.668 0 0 1-5.685-5.686c0-2.756 1.913-4.852 4.205-5.477a1.607 1.607 0 1 1 .846 3.101c-1.03.281-1.837 1.206-1.837 2.377a2.454 2.454 0 0 0 2.471 2.47 2.454 2.454 0 0 0 2.471-2.47c0-.667-.161-1.073-.554-1.564a1.607 1.607 0 0 1 .126-2.148l12.385-12.234a1.607 1.607 0 0 1 2.273.014ZM28.634 48.908a1.607 1.607 0 0 1 1.735-1.47L50.457 49.1a1.607 1.607 0 1 1-.265 3.203l-20.088-1.661a1.607 1.607 0 0 1-1.47-1.734ZM40.507 55.632a1.414 1.414 0 1 0 0 2.827 1.414 1.414 0 0 0 0-2.827Zm-4.628 1.413a4.628 4.628 0 1 1 9.256 0 4.628 4.628 0 0 1-9.256 0ZM40.507 40.528a1.414 1.414 0 1 0 0 2.827 1.414 1.414 0 0 0 0-2.827Zm-4.628 1.413a4.628 4.628 0 1 1 9.256 0 4.628 4.628 0 0 1-9.256 0Z" fill="#4B2C30"/></svg>