<svg width="222" height="500" fill="none" xmlns="http://www.w3.org/2000/svg"><path d="M35.42 498.749c14.816-24.132 32.376-46.07 45.821-71.299 1.921-3.565 3.842-7.404 5.762-11.243 4.94-2.194 10.701-1.371 16.189-1.645 4.939-.275 10.152-.549 14.817-1.646 9.329-1.919 17.56-6.581 23.597-13.711 12.621-14.26 17.286-35.101 32.377-47.167.823-.549.549-2.194-.549-1.92-6.859.549-13.719.549-20.304 2.468-6.585 1.92-12.896 5.485-18.658 9.324-12.073 8.227-22.5 18.922-35.121 26.326 4.939-12.34 9.603-24.955 13.444-37.843 1.921-6.033 3.567-12.066 5.214-18.099 7.682-2.743 15.914-5.759 24.42-5.485 10.426.549 19.207 9.05 29.633 11.243 20.305 4.114 38.14-6.581 49.389-22.212.549-.823 0-1.92-1.097-1.92-1.921.275-3.842.549-5.488.549-18.109.548-35.395-13.437-53.779-13.163-17.012.274-30.457 10.146-40.883 22.487 3.841-15.631 6.859-31.536 8.78-47.716 13.17-5.484 26.341-11.517 39.237-17.55 12.622-5.759 21.676-16.728 28.536-28.794 14.268-25.777 14.542-58.684 17.286-88.575 0-1.097-1.098-1.92-1.921-1.097-5.213 6.033-8.78 12.34-15.365 17.002-4.939 3.839-9.878 7.404-14.543 11.792-8.78 8.501-16.463 18.647-21.95 29.89-6.037 12.066-8.232 24.681-10.976 38.118-2.743 13.985-9.877 26.326-20.03 35.375.275-1.919.549-4.113.824-6.033 2.743-24.406 4.39-50.732 1.92-75.961 18.933-5.758 33.475-25.503 36.768-45.521 1.92-11.518.823-23.584-1.921-35.375-3.567-14.534-12.622-30.44-6.86-44.7.275-1.096-.548-1.919-1.646-1.37-1.646.822-3.018 1.92-4.116 3.016-.274-.274-.823-.274-1.372 0-2.195 2.194-3.567 4.662-4.664 7.13-2.47 4.113-4.116 9.05-5.488 14.26-3.292 11.792-4.39 22.761-3.841 35.375 1.097 20.841-.549 43.054-7.409 62.249-.274-1.645-.548-3.565-.823-5.21 0-.274-.274-.548-.274-.823-2.744-17.55-7.408-34.552-13.445-51.28-5.762-16.453-11.798-34.004-24.146-47.167C80.418 67.391 63.681 57.52 48.864 47.373c-8.231-5.485-16.463-10.695-23.323-18.1C18.681 22.419 12.645 14.192 6.61 6.24c-.549-.549-1.92-.549-1.92.274 0 1.097-.275 1.92-.275 3.016-1.098-2.742-1.92-5.484-2.195-8.5-.275-1.372-2.47-1.372-2.195 0C.847 5.69 2.219 10.077 4.139 14.19c0 13.163 4.665 26.326 12.896 37.57C22.523 59.163 28.56 66.842 35.42 73.15c3.842 3.565 7.683 6.581 10.976 10.695 3.018 3.839 5.213 7.952 7.408 12.34 4.39 8.775 8.506 17.55 14.542 25.777 6.037 8.227 12.896 15.905 20.03 23.309 6.585 6.856 13.171 13.437 19.481 20.567 6.311 7.13 12.622 14.534 20.305 20.293 0 0 .274 0 .274.274-.274 27.149.275 54.023-3.018 80.897-1.646 12.889-3.567 25.777-6.311 38.392-2.744-7.679-1.92-16.18-4.116-24.132-2.469-9.872-7.408-19.47-12.896-28.246-3.292-5.21-6.86-10.42-9.329-16.179-1.92-4.662-3.567-9.598-5.487-14.534-4.665-10.695-9.604-21.115-14.543-31.81-.548-.823-1.92-1.097-1.92 0-1.647 12.34-.823 24.68.549 37.569 1.371 13.163.274 26.6 2.469 40.037 2.195 11.792 7.408 22.212 17.012 29.891 8.231 6.581 17.286 12.066 26.066 17.55-2.744 12.066-5.762 23.858-9.603 35.65a419.18 419.18 0 0 1-9.878 27.971c-1.372-7.13-1.098-13.712-1.372-21.116-.274-8.227-2.47-16.453-6.037-24.132-3.292-7.678-7.408-14.808-10.975-22.212-4.664-9.598-8.231-19.196-11.524-29.342-.274-1.097-1.646-1.097-1.92-.275-9.055 16.454-18.384 34.827-12.074 55.668 3.293 10.421 8.78 20.567 15.092 29.617 6.86 10.146 16.188 18.921 20.853 30.439-4.116 9.598-8.78 18.647-13.72 27.697-6.585 12.34-13.993 24.406-21.95 35.923-7.683 10.969-18.11 21.39-22.5 34.553-1.372 3.016 2.47 5.21 4.116 2.468ZM160.263 96.185c4.39 12.888 7.683 25.503 7.134 38.94-.549 22.761-13.719 45.796-34.024 53.474 4.939-7.678 8.232-16.453 11.799-25.229 3.841-9.598 8.506-18.647 9.603-29.616.823-10.421-1.646-20.293-4.116-30.713-2.195-9.324-3.841-20.019-.274-28.246 1.646-2.742 3.841-5.21 6.585-7.13-2.469 9.05 0 18.922 3.293 28.52Zm-19.207 37.569c0-11.792-1.372-23.309 1.097-34.553 1.098-4.936 2.196-10.42 4.116-15.356-.549 13.162 5.762 27.971 6.585 40.859.824 12.615-3.292 22.761-7.682 33.456-3.293 7.678-6.037 15.631-9.878 22.761 4.39-15.083 5.762-31.536 5.762-47.167ZM6.609 9.529c9.878 12.889 19.207 25.503 32.652 34.553 15.64 10.42 32.102 20.567 46.37 33.181 15.092 13.163 22.225 31.536 28.536 49.909 6.037 16.728 10.976 33.73 13.72 51.281-7.409-12.889-14.268-26.052-20.579-39.215-3.842-7.952-7.409-15.905-10.701-24.132-3.567-9.049-7.409-18.373-13.445-26.051-5.213-6.856-12.073-12.066-18.933-17.276-8.505-6.307-16.462-12.889-24.145-20.567-11.25-11.518-26.341-22.487-33.75-37.295 0-1.371 0-3.017.275-4.388Zm85.608 137.388C77.949 132.108 65.876 117.3 57.096 98.653c-3.567-7.404-7.409-14.808-13.17-20.841-6.86-6.856-13.995-12.889-20.03-20.841-9.604-12.066-16.19-24.68-17.287-38.94 6.31 10.42 15.914 18.921 24.969 27.422 7.957 7.404 15.365 15.63 23.871 22.212 7.683 5.76 15.64 10.97 22.5 17.825 7.957 8.501 12.347 19.196 16.737 29.891 3.018 7.678 6.585 15.356 10.152 23.035 7.134 14.808 14.817 29.616 23.323 43.876v1.371c-13.445-10.421-23.871-24.68-35.944-36.746Zm104.265 79.251c-6.31 12.615-15.914 24.68-28.535 30.713-11.25 5.211-22.774 10.421-34.298 15.357 7.408-6.581 13.719-14.26 18.383-23.309 6.585-12.34 10.701-25.777 16.738-38.392 5.762-12.614 16.737-20.293 24.694-30.987 7.409-10.147 11.524-22.487 18.11-33.182-2.47 27.149-3.293 56.491-15.092 79.8Zm-43.078.549c1.372-7.405 3.842-14.534 6.585-21.39 5.488-12.615 13.72-23.858 23.323-33.456 5.213-5.21 11.25-9.323 17.012-13.985a21.098 21.098 0 0 0 4.939-4.936c-4.39 8.775-8.232 18.099-13.994 25.777-7.408 9.598-17.286 16.728-23.048 27.697-6.037 11.243-9.604 24.132-15.366 35.649-1.92 4.388-4.39 8.227-6.859 12.066 1.097-2.468 2.195-4.662 3.018-7.404 2.195-6.307 3.018-13.163 4.39-20.018Zm8.232 105.851c-7.957-4.114-14.268-7.953-23.049-7.678-7.134.274-13.719 2.742-20.03 4.936v-.275c13.994-9.323 30.731-16.453 48.566-14.808 15.915 1.371 33.75 12.066 48.018 2.468.823 0 1.92 0 2.743-.274-12.896 16.728-34.572 26.6-56.248 15.631Zm7.682-27.423c13.994 2.743 27.439 10.969 41.432 12.066-7.957 3.291-17.011 1.646-25.792-.822-8.231-2.194-16.188-4.114-24.694-3.84-13.445.549-26.067 5.211-37.316 11.792 11.798-13.163 27.438-22.761 46.37-19.196Zm-78.473-66.911c2.195 4.936 5.213 9.598 8.231 13.986 6.037 9.597 11.799 20.292 13.994 31.261 1.92 8.501 1.097 17.277 4.939 25.229v.274c-8.506-17.276-17.286-34.278-25.518-51.28-4.939-10.146-10.427-20.567-14.268-31.262-3.293-9.598-4.116-20.018-5.488-29.89 4.116 8.775 8.232 17.55 12.073 26.6 2.47 4.936 3.842 10.146 6.037 15.082Zm3.292 59.781c-12.073-9.049-17.835-21.115-19.207-35.649-1.372-11.518-.548-22.761-1.646-34.278-.823-8.227-1.372-16.18-1.372-24.406.823 6.581 1.646 13.437 3.567 20.018 3.293 10.695 8.78 20.841 13.445 30.713 9.33 19.196 18.932 38.392 28.536 57.588 0 .548-.274.823-.274 1.371-7.958-4.936-15.915-9.872-23.049-15.357Zm47.743 97.625c-6.86 8.775-16.189 13.985-27.438 15.905-6.037 1.097-12.073 1.097-18.11 1.097a41.86 41.86 0 0 0-8.231.823c1.097-2.194 2.195-4.388 3.293-6.856 13.993-6.581 25.792-16.454 37.041-27.423 6.037-6.033 11.799-13.437 20.03-16.453 7.409-2.742 14.268-4.936 20.853-9.872l.275-.275h.823c-12.896 11.792-18.109 29.617-28.536 43.054Zm-9.055-29.342c5.762-4.114 11.799-7.953 18.659-10.421 4.39-1.645 8.78-2.194 13.444-2.742-6.036 3.565-12.621 5.484-19.207 8.227-6.585 2.742-10.975 8.501-15.914 13.437-10.975 10.969-22.774 21.389-36.767 28.519 1.646-3.839 3.567-7.678 5.213-11.791 12.622-6.582 22.774-16.728 34.572-25.229Zm-45.273-32.085c3.841 8.775 6.036 17.277 5.762 26.326 0 7.678.275 14.534 2.195 21.938-.274.823-.823 1.92-1.097 2.742-.275-6.581-.824-13.163-2.744-19.744-2.195-8.227-6.86-15.631-10.701-23.309-4.39-8.501-9.055-17.551-11.799-26.6-2.47-8.227-2.195-17.551-1.646-26.052 2.47 6.856 4.939 13.437 7.957 20.019 3.842 8.501 8.506 16.453 12.073 24.68Zm-13.445 38.118c-6.86-9.05-12.896-18.922-17.011-29.617-8.506-21.389-.824-39.488 8.505-56.765-.548 7.953-1.097 16.454.275 24.407 1.372 8.226 5.762 16.727 9.329 24.406 4.116 9.049 9.603 17.276 13.17 26.6 3.567 9.323 4.116 18.921 4.39 28.519-.823 1.92-1.646 3.565-2.47 5.485-4.115-8.501-10.426-15.631-16.188-23.035Z" fill="#D8A574"/></svg>