<svg width="134" height="301" fill="none" xmlns="http://www.w3.org/2000/svg"><path d="M21.802 299.723c8.89-14.479 19.426-27.642 27.493-42.779 1.152-2.139 2.305-4.443 3.457-6.746 2.963-1.316 6.42-.823 9.713-.987 2.964-.165 6.092-.329 8.89-.988 5.598-1.151 10.537-3.948 14.159-8.226 7.573-8.556 10.371-21.061 19.426-28.301.494-.329.329-1.316-.329-1.151-4.116.329-8.232.329-12.183 1.48-3.951 1.152-7.737 3.291-11.195 5.595-7.243 4.936-13.5 11.353-21.073 15.795 2.964-7.404 5.763-14.973 8.067-22.706 1.153-3.62 2.14-7.239 3.128-10.859 4.61-1.646 9.549-3.455 14.652-3.291 6.256.329 11.525 5.43 17.781 6.746 12.182 2.468 22.883-3.949 29.633-13.327.329-.494 0-1.152-.658-1.152-1.153.164-2.305.329-3.293.329-10.866.329-21.237-8.062-32.268-7.898-10.207.165-18.274 6.088-24.53 13.492 2.305-9.378 4.116-18.921 5.269-28.629 7.902-3.291 15.804-6.91 23.542-10.53 7.573-3.456 13.006-10.037 17.121-17.277 8.561-15.466 8.726-35.21 10.372-53.145 0-.658-.659-1.151-1.152-.658-3.128 3.62-5.269 7.404-9.22 10.201-2.963 2.304-5.926 4.443-8.725 7.076-5.268 5.1-9.878 11.188-13.17 17.934-3.622 7.239-4.94 14.808-6.586 22.87-1.646 8.392-5.926 15.796-12.018 21.225.165-1.151.33-2.468.494-3.619 1.646-14.644 2.634-30.439 1.152-45.577 11.36-3.455 20.085-15.302 22.061-27.313 1.152-6.91.494-14.15-1.152-21.225-2.14-8.72-7.573-18.263-4.116-26.82.165-.657-.33-1.15-.988-.822-.988.494-1.81 1.152-2.47 1.81-.164-.164-.493-.164-.823 0-1.317 1.316-2.14 2.797-2.798 4.278-1.482 2.468-2.47 5.43-3.293 8.556-1.975 7.075-2.634 13.656-2.305 21.225.659 12.505-.329 25.832-4.445 37.35-.164-.988-.329-2.139-.494-3.127 0-.164-.164-.329-.164-.493-1.646-10.53-4.445-20.732-8.067-30.768-3.457-9.873-7.08-20.403-14.488-28.3-7.408-8.063-17.45-13.986-26.34-20.074-4.94-3.29-9.878-6.417-13.994-10.86-4.116-4.113-7.738-9.049-11.36-13.82-.329-.33-1.152-.33-1.152.164 0 .659-.165 1.152-.165 1.81-.658-1.645-1.152-3.29-1.317-5.1C1.717.268.4.268.564 1.09a31.54 31.54 0 0 0 2.47 7.897c0 7.898 2.799 15.796 7.737 22.542 3.293 4.442 6.915 9.05 11.03 12.834 2.306 2.139 4.61 3.948 6.586 6.416 1.81 2.304 3.128 4.772 4.445 7.404 2.634 5.266 5.103 10.53 8.725 15.467 3.622 4.936 7.738 9.543 12.018 13.985 3.951 4.114 7.903 8.063 11.69 12.34 3.786 4.279 7.572 8.721 12.182 12.176 0 0 .164 0 .164.165-.164 16.289.165 32.413-1.81 48.538-.988 7.733-2.14 15.466-3.787 23.035-1.646-4.607-1.152-9.708-2.47-14.479-1.481-5.924-4.444-11.682-7.737-16.947-1.976-3.127-4.116-6.253-5.598-9.708-1.152-2.797-2.14-5.759-3.292-8.72-2.799-6.417-5.762-12.67-8.726-19.087-.329-.493-1.152-.658-1.152 0-.988 7.404-.494 14.809.33 22.542.822 7.898.164 15.96 1.48 24.022 1.318 7.075 4.446 13.327 10.208 17.934 4.939 3.949 10.372 7.24 15.64 10.531-1.646 7.239-3.457 14.314-5.762 21.389a251.45 251.45 0 0 1-5.927 16.783c-.823-4.278-.658-8.227-.823-12.669-.165-4.936-1.482-9.872-3.622-14.479-1.976-4.607-4.445-8.885-6.585-13.328-2.799-5.759-4.939-11.517-6.915-17.605-.164-.658-.987-.658-1.152-.165-5.433 9.872-11.03 20.896-7.244 33.401 1.976 6.252 5.268 12.34 9.055 17.77 4.116 6.088 9.713 11.353 12.512 18.263-2.47 5.759-5.268 11.189-8.232 16.619-3.95 7.404-8.396 14.643-13.17 21.554-4.61 6.581-10.866 12.834-13.5 20.731-.823 1.81 1.482 3.126 2.47 1.481ZM96.709 58.185c2.634 7.733 4.609 15.301 4.28 23.364-.329 13.656-8.232 27.477-20.414 32.084 2.963-4.607 4.939-9.872 7.079-15.137 2.305-5.759 5.103-11.189 5.762-17.77.494-6.252-.988-12.176-2.47-18.428-1.317-5.594-2.304-12.011-.164-16.947.988-1.646 2.305-3.126 3.95-4.278-1.48 5.43 0 11.353 1.977 17.111Zm-11.525 22.54c0-7.074-.823-13.985.659-20.73.658-2.962 1.317-6.253 2.47-9.215-.33 7.898 3.457 16.783 3.95 24.516.494 7.569-1.975 13.657-4.61 20.074-1.975 4.607-3.621 9.378-5.926 13.656 2.634-9.05 3.457-18.921 3.457-28.3ZM4.516 6.192c5.926 7.733 11.524 15.302 19.59 20.732 9.384 6.252 19.262 12.34 27.823 19.909 9.055 7.897 13.335 18.921 17.122 29.945 3.621 10.037 6.585 20.238 8.231 30.768-4.445-7.733-8.56-15.63-12.347-23.528-2.305-4.772-4.445-9.543-6.42-14.48-2.141-5.43-4.446-11.023-8.068-15.63-3.128-4.114-7.243-7.24-11.36-10.366-5.103-3.784-9.877-7.733-14.487-12.34C17.85 24.29 8.796 17.709 4.35 8.824c0-.823 0-1.81.166-2.633ZM55.88 88.624c-8.56-8.885-15.804-17.77-21.073-28.959-2.14-4.442-4.445-8.885-7.902-12.504-4.116-4.114-8.396-7.733-12.018-12.505-5.762-7.24-9.713-14.808-10.371-23.364 3.786 6.252 9.548 11.353 14.98 16.453 4.775 4.443 9.22 9.379 14.324 13.328 4.61 3.455 9.384 6.581 13.5 10.695 4.774 5.1 7.408 11.517 10.042 17.934 1.81 4.607 3.951 9.214 6.091 13.821 4.28 8.885 8.89 17.77 13.994 26.326v.822c-8.067-6.252-14.323-14.808-21.567-22.047Zm62.56 47.55c-3.787 7.569-9.549 14.809-17.122 18.428-6.75 3.127-13.664 6.253-20.579 9.214 4.445-3.948 8.232-8.555 11.03-13.985 3.952-7.404 6.421-15.466 10.043-23.035 3.457-7.569 10.042-12.176 14.817-18.593 4.445-6.087 6.914-13.492 10.865-19.908-1.481 16.289-1.975 33.894-9.054 47.879Zm-25.847.33c.823-4.443 2.304-8.721 3.95-12.834 3.293-7.569 8.232-14.315 13.994-20.074 3.128-3.126 6.75-5.594 10.207-8.39a12.645 12.645 0 0 0 2.964-2.963c-2.634 5.266-4.939 10.86-8.396 15.467-4.445 5.759-10.372 10.036-13.829 16.618-3.622 6.746-5.762 14.479-9.22 21.39-1.152 2.632-2.634 4.936-4.115 7.239.658-1.481 1.317-2.797 1.81-4.442 1.318-3.785 1.812-7.898 2.635-12.011Zm4.939 63.51c-4.775-2.468-8.561-4.771-13.83-4.607-4.28.165-8.23 1.646-12.017 2.962v-.165c8.396-5.594 18.438-9.872 29.139-8.884 9.549.822 20.25 7.239 28.811 1.48.493 0 1.152 0 1.646-.164-7.738 10.037-20.744 15.96-33.75 9.378Zm4.609-16.453c8.396 1.645 16.463 6.581 24.859 7.239-4.774 1.975-10.207.988-15.475-.493-4.939-1.317-9.713-2.468-14.817-2.304-8.066.329-15.64 3.126-22.39 7.075 7.08-7.897 16.464-13.656 27.823-11.517Zm-47.084-40.147c1.317 2.962 3.128 5.759 4.939 8.391 3.622 5.759 7.079 12.176 8.396 18.757 1.153 5.101.659 10.366 2.963 15.138v.164c-5.103-10.365-10.371-20.567-15.31-30.768-2.964-6.088-6.256-12.34-8.561-18.757-1.976-5.759-2.47-12.011-3.293-17.934 2.47 5.265 4.94 10.53 7.244 15.96 1.482 2.961 2.305 6.087 3.622 9.049Zm1.976 35.869c-7.244-5.43-10.701-12.669-11.525-21.39-.823-6.91-.329-13.656-.987-20.567-.494-4.936-.824-9.707-.824-14.643.494 3.948.988 8.062 2.14 12.011 1.976 6.417 5.269 12.504 8.068 18.428 5.597 11.517 11.36 23.035 17.121 34.552 0 .329-.164.494-.164.823-4.775-2.962-9.549-5.923-13.83-9.214Zm28.645 58.575c-4.115 5.265-9.713 8.391-16.463 9.543-3.622.658-7.244.658-10.865.658-1.647 0-3.293.164-4.94.493.66-1.316 1.318-2.632 1.976-4.113 8.396-3.949 15.476-9.872 22.225-16.454 3.622-3.619 7.08-8.062 12.018-9.872 4.445-1.645 8.561-2.961 12.512-5.923l.165-.165h.494c-7.738 7.076-10.866 17.77-17.122 25.833Zm-5.433-17.606c3.458-2.468 7.08-4.771 11.195-6.252 2.634-.987 5.269-1.316 8.067-1.645-3.622 2.139-7.573 3.29-11.524 4.936-3.951 1.645-6.585 5.1-9.549 8.062-6.585 6.581-13.664 12.834-22.06 17.112.988-2.304 2.14-4.607 3.128-7.075 7.573-3.949 13.664-10.037 20.743-15.138Zm-27.164-19.25c2.305 5.265 3.622 10.365 3.458 15.795 0 4.607.164 8.72 1.317 13.163-.165.493-.494 1.152-.659 1.645-.164-3.949-.494-7.897-1.646-11.846-1.317-4.936-4.116-9.379-6.42-13.986-2.635-5.1-5.434-10.53-7.08-15.96-1.482-4.936-1.317-10.53-.988-15.631 1.482 4.114 2.964 8.063 4.775 12.011 2.304 5.101 5.103 9.873 7.243 14.809Zm-8.066 22.87c-4.116-5.43-7.738-11.353-10.208-17.77-5.103-12.834-.493-23.693 5.104-34.059-.33 4.772-.659 9.872.165 14.644.823 4.936 3.457 10.037 5.597 14.644 2.47 5.429 5.762 10.365 7.902 15.96 2.14 5.594 2.47 11.353 2.634 17.111-.494 1.152-.987 2.139-1.481 3.291-2.47-5.101-6.256-9.378-9.713-13.821Z" fill="#4B2C30"/></svg>