<svg width="90" height="90" fill="none" xmlns="http://www.w3.org/2000/svg"><path fill-rule="evenodd" clip-rule="evenodd" d="M45 24.372c-13.314 0-24.107 10.793-24.107 24.107S31.686 72.586 45 72.586 69.107 61.793 69.107 48.48 58.314 24.372 45 24.372ZM17.679 48.479c0-15.09 12.232-27.321 27.321-27.321 15.09 0 27.321 12.232 27.321 27.321C72.321 63.569 60.09 75.8 45 75.8c-15.09 0-27.321-12.232-27.321-27.321Z" fill="#4B2C30"/><path fill-rule="evenodd" clip-rule="evenodd" d="M45 30.422c-9.972 0-18.057 8.085-18.057 18.057 0 9.973 8.085 18.057 18.057 18.057 9.972 0 18.057-8.084 18.057-18.057 0-9.972-8.085-18.057-18.057-18.057ZM23.729 48.48c0-11.748 9.523-21.271 21.271-21.271 11.748 0 21.271 9.523 21.271 21.271 0 11.748-9.523 21.271-21.271 21.271-11.748 0-21.271-9.523-21.271-21.271Z" fill="#4B2C30"/><path fill-rule="evenodd" clip-rule="evenodd" d="M45 47.061a1.418 1.418 0 1 0 0 2.836 1.418 1.418 0 0 0 0-2.836Zm-4.632 1.418a4.632 4.632 0 1 1 9.264 0 4.632 4.632 0 0 1-9.264 0ZM35.83 16.714c0-.887.72-1.607 1.607-1.607h15.126a1.607 1.607 0 1 1 0 3.215H37.437c-.888 0-1.607-.72-1.607-1.608ZM61.56 23.14a1.607 1.607 0 0 1 2.274 0l3.932 3.934a1.607 1.607 0 1 1-2.272 2.272l-3.933-3.932a1.607 1.607 0 0 1 0-2.273Z" fill="#4B2C30"/><path fill-rule="evenodd" clip-rule="evenodd" d="M47.93 48.48c0-.888.72-1.608 1.608-1.608h9.075a1.607 1.607 0 0 1 0 3.214h-9.075c-.888 0-1.607-.72-1.607-1.607ZM41.067 16.62c.888 0 1.607.72 1.607 1.607v3.63a1.607 1.607 0 1 1-3.214 0v-3.63c0-.888.72-1.607 1.607-1.607ZM48.63 16.62c.888 0 1.607.72 1.607 1.607v3.63a1.607 1.607 0 1 1-3.214 0v-3.63c0-.888.72-1.607 1.607-1.607ZM45 31.746c.888 0 1.607.72 1.607 1.607v1.513a1.607 1.607 0 1 1-3.214 0v-1.513c0-.888.72-1.607 1.607-1.607ZM45 60.485c.888 0 1.607.72 1.607 1.608v1.512a1.607 1.607 0 1 1-3.214 0v-1.512c0-.888.72-1.608 1.607-1.608ZM28.267 48.48c0-.888.72-1.608 1.607-1.608h1.513a1.607 1.607 0 0 1 0 3.214h-1.513c-.888 0-1.607-.72-1.607-1.607Z" fill="#4B2C30"/></svg>