<svg width="75" height="11" viewBox="0 0 75 11" fill="none" xmlns="http://www.w3.org/2000/svg">
<path d="M10.7034 4.98894C10.8267 4.89267 10.9182 4.75836 10.965 4.60486C11.0119 4.45135 11.0116 4.28634 10.9644 4.13297C10.9172 3.9796 10.8254 3.84555 10.7018 3.74962C10.5782 3.6537 10.4291 3.6007 10.2753 3.59807L7.28867 3.47985C7.27399 3.47878 7.25991 3.4733 7.24813 3.46404C7.23636 3.45479 7.22739 3.44216 7.2223 3.42769L6.19025 0.506853C6.13839 0.358251 6.04421 0.229936 5.92046 0.139278C5.7967 0.0486202 5.64934 0 5.49834 0C5.34734 0 5.19998 0.0486202 5.07623 0.139278C4.95247 0.229936 4.85829 0.358251 4.80643 0.506853L3.7777 3.43812C3.77261 3.45259 3.76364 3.46522 3.75187 3.47447C3.74009 3.48373 3.72601 3.48922 3.71133 3.49028L0.724677 3.6085C0.570899 3.61113 0.421764 3.66413 0.298181 3.76005C0.174598 3.85598 0.0827658 3.99003 0.0355601 4.1434C-0.0116456 4.29678 -0.0118574 4.46178 0.0349544 4.61529C0.0817662 4.7688 0.173254 4.9031 0.29659 4.99938L2.63945 6.92921C2.65118 6.93888 2.65994 6.95194 2.66466 6.96677C2.66938 6.9816 2.66984 6.99756 2.666 7.01267L1.8596 10.0065C1.81782 10.159 1.82187 10.3212 1.8712 10.4712C1.92053 10.6211 2.01275 10.7515 2.13532 10.8446C2.25789 10.9377 2.40485 10.989 2.55621 10.9915C2.70757 10.9939 2.85598 10.9475 2.98126 10.8584L5.45686 9.11984C5.46905 9.11102 5.48352 9.10629 5.49834 9.10629C5.51316 9.10629 5.52763 9.11102 5.53982 9.11984L8.01542 10.8584C8.13901 10.9505 8.28689 11 8.43853 11C8.59018 11 8.73806 10.9505 8.86164 10.8584C8.98424 10.7662 9.07655 10.6365 9.12588 10.487C9.1752 10.3376 9.17911 10.1758 9.13708 10.0239L8.32404 7.01962C8.31974 7.00454 8.31997 6.98843 8.32473 6.9735C8.32948 6.95856 8.33851 6.94553 8.35059 6.93617L10.7034 4.98894Z" fill="url(#paint0_linear_21_367)"/>
<path d="M26.7034 4.98894C26.8267 4.89267 26.9182 4.75836 26.965 4.60486C27.0119 4.45135 27.0116 4.28634 26.9644 4.13297C26.9172 3.9796 26.8254 3.84555 26.7018 3.74962C26.5782 3.6537 26.4291 3.6007 26.2753 3.59807L23.2887 3.47985C23.274 3.47878 23.2599 3.4733 23.2481 3.46404C23.2364 3.45479 23.2274 3.44216 23.2223 3.42769L22.1902 0.506853C22.1384 0.358251 22.0442 0.229936 21.9205 0.139278C21.7967 0.0486202 21.6493 0 21.4983 0C21.3473 0 21.2 0.0486202 21.0762 0.139278C20.9525 0.229936 20.8583 0.358251 20.8064 0.506853L19.7777 3.43812C19.7726 3.45259 19.7636 3.46522 19.7519 3.47447C19.7401 3.48373 19.726 3.48922 19.7113 3.49028L16.7247 3.6085C16.5709 3.61113 16.4218 3.66413 16.2982 3.76005C16.1746 3.85598 16.0828 3.99003 16.0356 4.1434C15.9884 4.29678 15.9881 4.46178 16.035 4.61529C16.0818 4.7688 16.1733 4.9031 16.2966 4.99938L18.6395 6.92921C18.6512 6.93888 18.6599 6.95194 18.6647 6.96677C18.6694 6.9816 18.6698 6.99756 18.666 7.01267L17.8596 10.0065C17.8178 10.159 17.8219 10.3212 17.8712 10.4712C17.9205 10.6211 18.0128 10.7515 18.1353 10.8446C18.2579 10.9377 18.4048 10.989 18.5562 10.9915C18.7076 10.9939 18.856 10.9475 18.9813 10.8584L21.4569 9.11984C21.4691 9.11102 21.4835 9.10629 21.4983 9.10629C21.5132 9.10629 21.5276 9.11102 21.5398 9.11984L24.0154 10.8584C24.139 10.9505 24.2869 11 24.4385 11C24.5902 11 24.7381 10.9505 24.8616 10.8584C24.9842 10.7662 25.0766 10.6365 25.1259 10.487C25.1752 10.3376 25.1791 10.1758 25.1371 10.0239L24.324 7.01962C24.3197 7.00454 24.32 6.98843 24.3247 6.9735C24.3295 6.95856 24.3385 6.94553 24.3506 6.93617L26.7034 4.98894Z" fill="url(#paint1_linear_21_367)"/>
<path d="M42.7034 4.98894C42.8267 4.89267 42.9182 4.75836 42.965 4.60486C43.0119 4.45135 43.0116 4.28634 42.9644 4.13297C42.9172 3.9796 42.8254 3.84555 42.7018 3.74962C42.5782 3.6537 42.4291 3.6007 42.2753 3.59807L39.2887 3.47985C39.274 3.47878 39.2599 3.4733 39.2481 3.46404C39.2364 3.45479 39.2274 3.44216 39.2223 3.42769L38.1902 0.506853C38.1384 0.358251 38.0442 0.229936 37.9205 0.139278C37.7967 0.0486202 37.6493 0 37.4983 0C37.3473 0 37.2 0.0486202 37.0762 0.139278C36.9525 0.229936 36.8583 0.358251 36.8064 0.506853L35.7777 3.43812C35.7726 3.45259 35.7636 3.46522 35.7519 3.47447C35.7401 3.48373 35.726 3.48922 35.7113 3.49028L32.7247 3.6085C32.5709 3.61113 32.4218 3.66413 32.2982 3.76005C32.1746 3.85598 32.0828 3.99003 32.0356 4.1434C31.9884 4.29678 31.9881 4.46178 32.035 4.61529C32.0818 4.7688 32.1733 4.9031 32.2966 4.99938L34.6395 6.92921C34.6512 6.93888 34.6599 6.95194 34.6647 6.96677C34.6694 6.9816 34.6698 6.99756 34.666 7.01267L33.8596 10.0065C33.8178 10.159 33.8219 10.3212 33.8712 10.4712C33.9205 10.6211 34.0128 10.7515 34.1353 10.8446C34.2579 10.9377 34.4048 10.989 34.5562 10.9915C34.7076 10.9939 34.856 10.9475 34.9813 10.8584L37.4569 9.11984C37.4691 9.11102 37.4835 9.10629 37.4983 9.10629C37.5132 9.10629 37.5276 9.11102 37.5398 9.11984L40.0154 10.8584C40.139 10.9505 40.2869 11 40.4385 11C40.5902 11 40.7381 10.9505 40.8616 10.8584C40.9842 10.7662 41.0766 10.6365 41.1259 10.487C41.1752 10.3376 41.1791 10.1758 41.1371 10.0239L40.324 7.01962C40.3197 7.00454 40.32 6.98843 40.3247 6.9735C40.3295 6.95856 40.3385 6.94553 40.3506 6.93617L42.7034 4.98894Z" fill="url(#paint2_linear_21_367)"/>
<path d="M58.7034 4.98894C58.8267 4.89267 58.9182 4.75836 58.965 4.60486C59.0119 4.45135 59.0116 4.28634 58.9644 4.13297C58.9172 3.9796 58.8254 3.84555 58.7018 3.74962C58.5782 3.6537 58.4291 3.6007 58.2753 3.59807L55.2887 3.47985C55.274 3.47878 55.2599 3.4733 55.2481 3.46404C55.2364 3.45479 55.2274 3.44216 55.2223 3.42769L54.1902 0.506853C54.1384 0.358251 54.0442 0.229936 53.9205 0.139278C53.7967 0.0486202 53.6493 0 53.4983 0C53.3473 0 53.2 0.0486202 53.0762 0.139278C52.9525 0.229936 52.8583 0.358251 52.8064 0.506853L51.7777 3.43812C51.7726 3.45259 51.7636 3.46522 51.7519 3.47447C51.7401 3.48373 51.726 3.48922 51.7113 3.49028L48.7247 3.6085C48.5709 3.61113 48.4218 3.66413 48.2982 3.76005C48.1746 3.85598 48.0828 3.99003 48.0356 4.1434C47.9884 4.29678 47.9881 4.46178 48.035 4.61529C48.0818 4.7688 48.1733 4.9031 48.2966 4.99938L50.6395 6.92921C50.6512 6.93888 50.6599 6.95194 50.6647 6.96677C50.6694 6.9816 50.6698 6.99756 50.666 7.01267L49.8596 10.0065C49.8178 10.159 49.8219 10.3212 49.8712 10.4712C49.9205 10.6211 50.0128 10.7515 50.1353 10.8446C50.2579 10.9377 50.4048 10.989 50.5562 10.9915C50.7076 10.9939 50.856 10.9475 50.9813 10.8584L53.4569 9.11984C53.4691 9.11102 53.4835 9.10629 53.4983 9.10629C53.5132 9.10629 53.5276 9.11102 53.5398 9.11984L56.0154 10.8584C56.139 10.9505 56.2869 11 56.4385 11C56.5902 11 56.7381 10.9505 56.8616 10.8584C56.9842 10.7662 57.0766 10.6365 57.1259 10.487C57.1752 10.3376 57.1791 10.1758 57.1371 10.0239L56.324 7.01962C56.3197 7.00454 56.32 6.98843 56.3247 6.9735C56.3295 6.95856 56.3385 6.94553 56.3506 6.93617L58.7034 4.98894Z" fill="url(#paint3_linear_21_367)"/>
<path d="M74.7034 4.98894C74.8267 4.89267 74.9182 4.75836 74.965 4.60486C75.0119 4.45135 75.0116 4.28634 74.9644 4.13297C74.9172 3.9796 74.8254 3.84555 74.7018 3.74962C74.5782 3.6537 74.4291 3.6007 74.2753 3.59807L71.2887 3.47985C71.274 3.47878 71.2599 3.4733 71.2481 3.46404C71.2364 3.45479 71.2274 3.44216 71.2223 3.42769L70.1902 0.506853C70.1384 0.358251 70.0442 0.229936 69.9205 0.139278C69.7967 0.0486202 69.6493 0 69.4983 0C69.3473 0 69.2 0.0486202 69.0762 0.139278C68.9525 0.229936 68.8583 0.358251 68.8064 0.506853L67.7777 3.43812C67.7726 3.45259 67.7636 3.46522 67.7519 3.47447C67.7401 3.48373 67.726 3.48922 67.7113 3.49028L64.7247 3.6085C64.5709 3.61113 64.4218 3.66413 64.2982 3.76005C64.1746 3.85598 64.0828 3.99003 64.0356 4.1434C63.9884 4.29678 63.9881 4.46178 64.035 4.61529C64.0818 4.7688 64.1733 4.9031 64.2966 4.99938L66.6395 6.92921C66.6512 6.93888 66.6599 6.95194 66.6647 6.96677C66.6694 6.9816 66.6698 6.99756 66.666 7.01267L65.8596 10.0065C65.8178 10.159 65.8219 10.3212 65.8712 10.4712C65.9205 10.6211 66.0128 10.7515 66.1353 10.8446C66.2579 10.9377 66.4048 10.989 66.5562 10.9915C66.7076 10.9939 66.856 10.9475 66.9813 10.8584L69.4569 9.11984C69.4691 9.11102 69.4835 9.10629 69.4983 9.10629C69.5132 9.10629 69.5276 9.11102 69.5398 9.11984L72.0154 10.8584C72.139 10.9505 72.2869 11 72.4385 11C72.5902 11 72.7381 10.9505 72.8616 10.8584C72.9842 10.7662 73.0766 10.6365 73.1259 10.487C73.1752 10.3376 73.1791 10.1758 73.1371 10.0239L72.324 7.01962C72.3197 7.00454 72.32 6.98843 72.3247 6.9735C72.3295 6.95856 72.3385 6.94553 72.3506 6.93617L74.7034 4.98894Z" fill="url(#paint4_linear_21_367)"/>
<defs>
<linearGradient id="paint0_linear_21_367" x1="5.5" y1="0" x2="5.5" y2="11" gradientUnits="userSpaceOnUse">
<stop stop-color="#FF7A00"/>
<stop offset="1" stop-color="#F38300"/>
</linearGradient>
<linearGradient id="paint1_linear_21_367" x1="21.5" y1="0" x2="21.5" y2="11" gradientUnits="userSpaceOnUse">
<stop stop-color="#FF7A00"/>
<stop offset="1" stop-color="#F38300"/>
</linearGradient>
<linearGradient id="paint2_linear_21_367" x1="37.5" y1="0" x2="37.5" y2="11" gradientUnits="userSpaceOnUse">
<stop stop-color="#FF7A00"/>
<stop offset="1" stop-color="#F38300"/>
</linearGradient>
<linearGradient id="paint3_linear_21_367" x1="53.5" y1="0" x2="53.5" y2="11" gradientUnits="userSpaceOnUse">
<stop stop-color="#FF7A00"/>
<stop offset="1" stop-color="#F38300"/>
</linearGradient>
<linearGradient id="paint4_linear_21_367" x1="69.5" y1="0" x2="69.5" y2="11" gradientUnits="userSpaceOnUse">
<stop stop-color="#FF7A00"/>
<stop offset="1" stop-color="#F38300"/>
</linearGradient>
</defs>
</svg>
