<svg viewBox="0 0 13 18" version="1.1" xmlns="http://www.w3.org/2000/svg" style="height: 100%; width: 100%;">
    <title></title>
    <g id="Page-1" stroke="none" stroke-width="1" fill="none" fill-rule="evenodd">
      <g id="moscowdutyfree-basket-1" transform="translate(-1257.000000, -203.000000)" fill="#999999">
        <g id="Group-2-Copy" transform="translate(576.000000, 193.000000)">
          <path d="M683.748197,12.4545455 L684.293367,11.3569545 C684.706179,10.5254232 685.550065,10.0001091 686.473236,
            10 L688.527172,10 C689.450343,10.0001091 690.29423,10.5254232 690.707041,11.3569545 L691.252211,12.4545455
            L692.375051,12.4545455 C693.272486,12.4545455 694,13.1871704 694,14.0909091 L694,14.5 C694,14.7259347
            693.818121,14.9090909 693.593763,14.9090909 L681.406645,14.9090909 C681.182287,14.9090909 681.000408,14.7259347
            681.000408,14.5 L681.000408,14.0909091 C681.000408,13.1871704 681.727923,12.4545455 682.625357,12.4545455
            L683.748197,12.4545455 Z M685.56489,12.4545455 L689.435518,12.4545455 L689.25393,12.0888182 C689.116277,
            11.8114123 688.834714,11.6362191 688.526766,11.6363636 L686.473236,11.6363636 C686.165434,11.6363742
            685.884066,11.8115442 685.746478,12.0888182 L685.56489,12.4545455 Z M693.137965,16.1363636 C693.614075,
            16.1363636 694,16.5299091 694,17.0150909 C694,17.0686818 693.995125,17.1222727 693.985782,17.1750455
            L692.4108,25.8436818 C692.183307,27.0934545 691.114091,28 689.867755,28 L685.132653,28 C683.885911,28
            682.816695,27.0934545 682.589608,25.8436818 L681.014626,17.1750455 C680.927692,16.6980455 681.237244,
            16.2394545 681.70523,16.1510909 C681.757228,16.1412727 681.809633,16.1363636 681.862444,16.1363636 L693.137558,
            16.1363636 L693.137965,16.1363636 Z M685.875255,19 C685.426538,19 685.062781,19.3663125 685.062781,19.8181818
            L685.062781,24.3181818 C685.062781,24.7700512 685.426538,25.1363636 685.875255,25.1363636 C686.323972,25.1363636
            686.68773,24.7700512 686.68773,24.3181818 L686.68773,19.8181818 C686.68773,19.3663125 686.323972,19 685.875255,19
            Z M689.125153,19 C688.676436,19 688.312679,19.3663125 688.312679,19.8181818 L688.312679,24.3181818 C688.312679,
            24.7700512 688.676436,25.1363636 689.125153,25.1363636 C689.57387,25.1363636 689.937628,24.7700512 689.937628,
            24.3181818 L689.937628,19.8181818 C689.937628,19.3663125 689.57387,19 689.125153,19 Z" id="Shape"></path>
        </g>
      </g>
    </g>
  </svg>