<svg viewBox="0 0 36 26" version="1.1" xmlns="http://www.w3.org/2000/svg" style="height: 100%; width: 100%;">
    <title></title>
    <g id="Page-1" stroke="none" stroke-width="1" fill="none" fill-rule="evenodd">
      <g id="moscowdutyfree-basket-1" transform="translate(-607.000000, -26.000000)" fill="#ff476f">
        <g id="Group-3" transform="translate(606.000000, 20.000000)">
          <path d="M22.1666667,26.9166667 L15.8333333,26.9166667 C15.8333333,29.5400192 13.7066859,31.6666667 11.0833333,
            31.6666667 C8.45998077,31.6666667 6.33333333,29.5400192 6.33333333,26.9166667 L4.75,26.9166667 C3.00109829,26.9166667
            1.58333333,25.4989017 1.58333333,23.75 L1.58333333,9.5 C1.58333333,7.75109829 3.00109829,6.33333333 4.75,
            6.33333333 L22.9583333,6.33333333 C24.707235,6.33333333 26.125,7.75109829 26.125,9.5 C26.125,10.3744509
            26.8338825,11.0833333 27.7083333,11.0833333 L30.354875,11.0833333 C31.1949329,11.0833027 32.0005791,11.4170663
            32.5945,12.0111667 L35.4888333,14.9055 C36.0829337,15.4994209 36.4166973,16.3050671 36.4166667,17.145125
            L36.4166667,23.75 C36.4166667,25.4989017 34.9989017,26.9166667 33.25,26.9166667 L31.6666667,26.9166667
            C31.6666667,29.5400192 29.5400192,31.6666667 26.9166667,31.6666667 C24.2933141,31.6666667 22.1666667,
            29.5400192 22.1666667,26.9166667 Z M11.0833333,29.2916667 C12.3950096,29.2916667 13.4583333,28.2283429
            13.4583333,26.9166667 C13.4583333,25.6049904 12.3950096,24.5416667 11.0833333,24.5416667 C9.77165705,24.5416667
            8.70833333,25.6049904 8.70833333,26.9166667 C8.70833333,28.2283429 9.77165705,29.2916667 11.0833333,29.2916667
            Z M26.9166667,29.2916667 C28.2283429,29.2916667 29.2916667,28.2283429 29.2916667,26.9166667 C29.2916667,
            25.6049904 28.2283429,24.5416667 26.9166667,24.5416667 C25.6049904,24.5416667 24.5416667,25.6049904
            24.5416667,26.9166667 C24.5416667,28.2283429 25.6049904,29.2916667 26.9166667,29.2916667 Z M7.91666667,
            11.0833333 C7.04221581,11.0833333 6.33333333,11.7922158 6.33333333,12.6666667 L6.33333333,19 C6.33333333,
            19.8744509 7.04221581,20.5833333 7.91666667,20.5833333 C8.79111752,20.5833333 9.5,19.8744509 9.5,19 L9.5,
            12.6666667 C9.5,11.7922158 8.79111752,11.0833333 7.91666667,11.0833333 Z M14.25,11.0833333 C13.3755491,
            11.0833333 12.6666667,11.7922158 12.6666667,12.6666667 L12.6666667,19 C12.6666667,19.8744509 13.3755491,
            20.5833333 14.25,20.5833333 C15.1244509,20.5833333 15.8333333,19.8744509 15.8333333,19 L15.8333333,12.6666667
            C15.8333333,11.7922158 15.1244509,11.0833333 14.25,11.0833333 Z M20.5833333,11.0833333 C19.7088825,11.0833333
            19,11.7922158 19,12.6666667 L19,19 C19,19.8744509 19.7088825,20.5833333 20.5833333,20.5833333 C21.4577842,
            20.5833333 22.1666667,19.8744509 22.1666667,19 L22.1666667,12.6666667 C22.1666667,11.7922158 21.4577842,
            11.0833333 20.5833333,11.0833333 Z" id="Shape"></path>
        </g>
      </g>
    </g>
  </svg>